<svg width="335" height="333" fill="none" xmlns="http://www.w3.org/2000/svg"><path d="M180.727 181.17c-12.564-4.25-29.58-6.859-48.314-6.859-38.668 0-70.014 11.115-70.014 24.827v62.74c0-17.618 31.346-31.9 70.014-31.9 18.734 0 35.75 3.352 48.315 8.813h-.001V181.17Z" stroke="#fff" stroke-width="1.8" stroke-miterlimit="10" stroke-linecap="round" stroke-linejoin="round"/><path d="M62.4 261.878v-62.74c0 6.619 7.318 12.633 19.225 17.084 10.637 3.976 24.938 6.704 40.991 7.501v69.745c-16.049-1.024-30.355-4.527-40.99-9.633C69.71 278.116 62.4 270.386 62.4 261.878Z" fill="#B880FF"/><path d="M62.4 261.878v-62.74c0 6.619 7.318 12.633 19.225 17.084 10.637 3.976 24.938 6.704 40.991 7.501v69.745c-16.049-1.024-30.355-4.527-40.99-9.633C69.71 278.116 62.4 270.386 62.4 261.878Z" stroke="#fff" stroke-width="1.8" stroke-miterlimit="10" stroke-linecap="round" stroke-linejoin="round"/><path d="M65.255 245.402c-1.807-2.775-2.837-5.984-2.855-9.317M79.98 257.277c-4.147-2.221-8.248-4.725-11.606-8.076M86.173 260.043a105.45 105.45 0 0 1-1.955-.81M104.13 265.276c-4.572-.922-9.099-2.084-13.518-3.587M67.714 257.6c-2.792-3.189-4.669-7.078-5.314-11.297M80.996 266.698c-2.969-1.301-5.85-2.845-8.478-4.76M94.717 271.229c-3.193-.812-6.363-1.729-9.467-2.844M100.833 272.602l-1.15-.241" stroke="#fff" stroke-width="1.8" stroke-miterlimit="10" stroke-linecap="round" stroke-linejoin="round"/><path d="M89.846 231.534a94.339 94.339 0 0 1-8.221-2.624c-11.908-4.451-19.226-10.465-19.226-17.084v6.673c0 6.619 7.318 12.633 19.226 17.084 2.539.949 5.29 1.826 8.221 2.624v-6.673Z" fill="#fff"/><path d="M89.846 231.534a94.339 94.339 0 0 1-8.221-2.624c-11.908-4.451-19.226-10.465-19.226-17.084v6.673c0 6.619 7.318 12.633 19.226 17.084 2.539.949 5.29 1.826 8.221 2.624v-6.673Z" stroke="#fff" stroke-width="1.8" stroke-miterlimit="10" stroke-linecap="round" stroke-linejoin="round"/><path d="M102.906 246.639c-8.039-1.327-15.25-3.18-21.28-5.435-11.908-4.45-19.226-10.465-19.226-17.084v3.325c0 7.563 7.314 14.435 19.225 19.52 6.031 2.575 13.242 4.691 21.281 6.207v-6.533Z" fill="#fff"/><path d="M102.906 246.639c-8.039-1.327-15.25-3.18-21.28-5.435-11.908-4.45-19.226-10.465-19.226-17.084v3.325c0 7.563 7.314 14.435 19.225 19.52 6.031 2.575 13.242 4.691 21.281 6.207v-6.533Z" stroke="#fff" stroke-width="1.8" stroke-miterlimit="10" stroke-linecap="round" stroke-linejoin="round"/><path d="m134.619 164.017-8.31 14.95 21.706 8.814 8.877-14.613-22.273-9.151Z" fill="#B880FF"/><path d="M96.795 127.602s5.797 8.599 8.899 10.963c-3.625-5.524-5.041-14.732-5.041-14.732l-3.858 3.769Z" fill="#000"/><path d="M96.795 127.602s5.797 8.599 8.899 10.963c-3.625-5.524-5.041-14.732-5.041-14.732l-3.858 3.769Z" stroke="#000" stroke-width="1.8" stroke-miterlimit="10" stroke-linecap="round" stroke-linejoin="round"/><path d="M129.497 144.298V93.324c15.8-3.743 35.309-5.955 56.421-5.955 52.668 0 95.363 13.761 95.363 30.735v-.196 58.231c0-21.81-42.695-39.491-95.363-39.491-21.112 0-40.621 2.841-56.421 7.65Z" fill="#B880FF"/><path d="M129.497 144.298V93.324v0c15.8-3.743 35.309-5.955 56.421-5.955 52.668 0 95.363 13.761 95.363 30.735v-.196 58.231c0-21.81-42.695-39.491-95.363-39.491-21.112 0-40.621 2.841-56.421 7.65Z" stroke="#fff" stroke-width="1.8" stroke-miterlimit="10" stroke-linecap="round" stroke-linejoin="round"/><path d="M189.423 132.134c0-10.31-9.633-18.667-21.516-18.667s-21.515 8.357-21.515 18.667c0 10.31 9.632 18.668 21.515 18.668 11.883 0 21.516-8.358 21.516-18.668Z" fill="#B880FF"/><path d="M149.864 121.469s-4.47 16.824 19.203 28.666c-6.296-6.941-7.341-16.167-7.341-16.167s1.586 8.611 12.54 14.956c-6.296-6.941-8.858-15.725-6.118-23.602.043 4.578 2.624 14.212 20.279 23.811-9.466-9.128-8.043-22.352-8.043-22.352l-13.393-6.084-17.127.772Z" fill="#000"/><path d="M149.864 121.469s-4.47 16.824 19.203 28.666c-6.296-6.941-7.341-16.167-7.341-16.167s1.586 8.611 12.54 14.956c-6.296-6.941-8.858-15.725-6.118-23.602.043 4.578 2.624 14.212 20.279 23.811-9.466-9.128-8.043-22.352-8.043-22.352l-13.393-6.084-17.127.772Z" stroke="#000" stroke-width="1.8" stroke-miterlimit="10" stroke-linecap="round" stroke-linejoin="round"/><path d="m162.496 118.302-.099.016V69.88c11.067-2.55 25.418-4.09 41.099-4.09 35.008 0 63.387 7.671 63.387 17.133v49.795" fill="#B880FF"/><path d="m162.496 118.302-.099.016V69.88v0c11.067-2.55 25.418-4.09 41.099-4.09 35.008 0 63.387 7.671 63.387 17.133v49.795" stroke="#fff" stroke-width="1.8" stroke-miterlimit="10" stroke-linecap="round" stroke-linejoin="round"/><path d="M243.514 147.312v-51.12l-.002-.045c14.262-3.142 23.371-7.927 23.371-13.288v49.794c0 5.914-9.109 11.194-23.371 14.66l.002-.001Z" fill="#B880FF"/><path d="M243.514 147.312v-51.12l-.002-.045c14.262-3.142 23.371-7.927 23.371-13.288v49.794c0 5.914-9.109 11.194-23.371 14.66l.002-.001Z" stroke="#fff" stroke-width="1.8" stroke-miterlimit="10" stroke-linecap="round" stroke-linejoin="round"/><path d="M165.52 16.524s-1.769-7.138 1.264-5.349l-1.264 5.35Z" fill="#B880FF"/><path d="M165.52 16.524s-1.769-7.138 1.264-5.349" stroke="#fff" stroke-width="1.8" stroke-miterlimit="10" stroke-linecap="round" stroke-linejoin="round"/><path d="M172.69 14.448c.853.191 3.191 1.82 1.927 3.226-1.263 1.406-3.159-.639-3.159-.639" fill="#B880FF"/><path d="M172.69 14.448c.853.191 3.191 1.82 1.927 3.226-1.263 1.406-3.159-.639-3.159-.639" stroke="#fff" stroke-width="1.8" stroke-miterlimit="10" stroke-linecap="round" stroke-linejoin="round"/><path d="M218.268 57.224V13.658C218.268 6.668 199.81 1 177.042 1c-6.74 0-13.102.497-18.72 1.377v42.646c5.618-.952 11.98-1.49 18.72-1.49 22.768 0 41.226 6.13 41.226 13.69Z" fill="#B880FF"/><path d="M218.268 57.224V13.658C218.268 6.668 199.81 1 177.042 1c-6.74 0-13.102.497-18.72 1.377v42.646c5.618-.952 11.98-1.49 18.72-1.49 22.768 0 41.226 6.13 41.226 13.69Z" stroke="#fff" stroke-width="1.8" stroke-miterlimit="10" stroke-linecap="round" stroke-linejoin="round"/><path d="M194.37 30.089c-7.019-.954-14.119-1.292-21.197-1.09M218.268 41.845c.137-5.681-8.632-8.19-12.767-9.434a64.133 64.133 0 0 0-6.355-1.545M194.372 35.481c-2.579-.35-5.168-.617-7.764-.806M201.418 36.733a73.581 73.581 0 0 0-2.272-.475M218.266 47.237c-.547-5.883-7.448-7.786-12.317-9.298" stroke="#fff" stroke-width="1.8" stroke-miterlimit="10" stroke-linecap="round" stroke-linejoin="round"/><path d="M144.481 117.729V33.998a308.997 308.997 0 0 0-20.326-.66c-53.152 0-96.24 13.23-96.24 29.55v83.802c0-9.898 10.063-11.595 26.463-18.246 17.534-7.11 42.312-11.543 69.777-11.543a246.5 246.5 0 0 1 20.326.828Z" fill="#B880FF"/><path d="M144.481 117.729V33.998a308.997 308.997 0 0 0-20.326-.66c-53.152 0-96.24 13.23-96.24 29.55v83.802c0-9.898 10.063-11.595 26.463-18.246 17.534-7.11 42.312-11.543 69.777-11.543a246.5 246.5 0 0 1 20.326.828Z" stroke="#fff" stroke-width="1.8" stroke-miterlimit="10" stroke-linecap="round" stroke-linejoin="round"/><path d="M153.232 57.907s.058-6.146-6.642-10.352c-9.133-5.733-26.891-5.3-32.931 8.296-6.039 13.596-26.32 17.399-41.931 7.49 11.053 9.563 33.5 11.604 39.767 5.571C105 78.09 96.454 72.097 88.82 80.854c-7.635 8.757-6.04 42.633-6.04 42.633s30.31-24.658 47.515-24.658c17.206 0 49.111 32.608 57.429 28.921 8.318-3.687 13.854-6.545 13.854-6.545s-5.536-28.396-28.097-31.354c-29.764-3.902-24.76-9.806-23.051-22.25" fill="#000"/><path d="M153.232 57.907s.058-6.146-6.642-10.352c-9.133-5.733-26.891-5.3-32.931 8.296-6.039 13.596-26.32 17.399-41.931 7.49 11.053 9.563 33.5 11.604 39.767 5.571C105 78.09 96.454 72.097 88.82 80.854c-7.635 8.757-6.04 42.633-6.04 42.633s30.31-24.658 47.515-24.658c17.206 0 49.111 32.608 57.429 28.921 8.318-3.687 13.854-6.545 13.854-6.545s-5.536-28.396-28.097-31.354c-29.764-3.902-24.76-9.806-23.051-22.25" stroke="#000" stroke-width="1.8" stroke-miterlimit="10" stroke-linecap="round" stroke-linejoin="round"/><path d="M112.916 57.347s-5.29 10.487-19.706 9.277c-4.078-.342-7.406-1.223-10.082-2.312" stroke="#000" stroke-width="1.8" stroke-miterlimit="10" stroke-linecap="round" stroke-linejoin="round"/><path d="M27.914 147.641c0 9.891 10.049 18.878 26.427 25.527V83.222c-16.368-5.298-26.427-12.456-26.427-20.334v84.753Z" fill="#B880FF"/><path d="M27.914 147.641c0 9.891 10.049 18.878 26.427 25.527V83.222c-16.368-5.298-26.427-12.456-26.427-20.334v84.753Z" stroke="#fff" stroke-width="1.8" stroke-miterlimit="10" stroke-linecap="round" stroke-linejoin="round"/><path d="M121.079 78.546s.615 8.012.045 10.72c2.05 4.897 20.054 3.229 20.054 3.229s-.863-3.724.423-6.444c1.286-2.72-20.522-7.505-20.522-7.505Z" fill="#B880FF"/><path d="M121.079 78.546s.615 8.012.045 10.72c2.05 4.897 20.054 3.229 20.054 3.229s-.863-3.724.423-6.444c1.286-2.72-20.522-7.505-20.522-7.505Z" stroke="#000" stroke-width="1.8" stroke-miterlimit="10" stroke-linecap="round" stroke-linejoin="round"/><path d="M150.494 65.485s-2.18-17.96-21.456-8.825c-4.99 2.364-7.528 6.372-8.517 10.601-2.16-1.387-2.451-5.102-2.451-5.102s-3.013 3.832-2.444 7.864c.402 2.84 3.161 4.85 4.759 5.792.42 2.273 1.162 4.286 2.044 5.747 4.522 7.487 11.599 12.396 20.128 3.551 8.529-8.844 7.937-19.628 7.937-19.628Z" fill="#B880FF"/><path d="M150.494 65.485s-2.18-17.96-21.456-8.825c-4.99 2.364-7.528 6.372-8.517 10.601-2.16-1.387-2.451-5.102-2.451-5.102s-3.013 3.832-2.444 7.864c.402 2.84 3.161 4.85 4.759 5.792.42 2.273 1.162 4.286 2.044 5.747 4.522 7.487 11.599 12.396 20.128 3.551 8.529-8.844 7.937-19.628 7.937-19.628Z" stroke="#000" stroke-width="1.8" stroke-miterlimit="10" stroke-linecap="round" stroke-linejoin="round"/><path d="M139.524 85.326c4.383-4.608 6.726-12.52 7.548-26.23a36.328 36.328 0 0 1 1.601 1.983c1.841 2.451 1.53 4.13 1.83 6.626-.147 2.876-7.442 26.27-20.072 21.734 2.383.132 6.223-1.095 9.093-4.113Z" fill="#fff"/><path d="M150.494 65.485s-2.18-17.96-21.456-8.825c-4.99 2.364-7.528 6.372-8.517 10.601-2.16-1.387-2.451-5.102-2.451-5.102s-3.013 3.832-2.444 7.864c.402 2.84 3.161 4.85 4.759 5.792.42 2.273 1.162 4.286 2.044 5.747 4.522 7.487 11.599 12.396 20.128 3.551 8.529-8.844 7.937-19.628 7.937-19.628Z" stroke="#000" stroke-width="1.8" stroke-miterlimit="10" stroke-linecap="round" stroke-linejoin="round"/><path d="M149.881 71.29c-.122 1.268-1.467 11.638 12.89 11.638 7.624 0 15.249-1.072 21.201.666 3.596 1.05 6.582 3.126 8.588 7.085M134.619 83.895c-.12.008-.241.013-.363.013-2.47 0-4.472-1.817-4.472-4.058 0-.236.022-.467.065-.692" stroke="#000" stroke-width="1.8" stroke-miterlimit="10" stroke-linecap="round" stroke-linejoin="round"/><path d="M153.233 57.907c.422 5.866-6.642 10.964-11.286 10.964-5.64-1.987-16.151-13.049-16.151-13.049" fill="#000"/><path d="M153.233 57.907c.422 5.866-6.642 10.964-11.286 10.964-5.64-1.987-16.151-13.049-16.151-13.049" stroke="#000" stroke-width="1.8" stroke-miterlimit="10" stroke-linecap="round" stroke-linejoin="round"/><path d="M69.308 119.598s-2.82 4.583-2.307 7.806c.513 3.224 2.307 10.169 9.524 11.475 9.217 1.667 16.455-5.713 24.512-16.341 2.689 9.596 14.676 31.022 14.676 31.022s8.329 2.908 11.451 5.012c25.467-1.728 31.62-15.382 31.62-15.382s-6.229-6.665-6.456-11.603c-.105-2.281.669-9.359.669-9.359s16.617 15.826 35.299 15.63c21.953-.231 35.992-19.951 35.992-19.951s-8.96 1.838-11.78-6.025c-9.657 6.74-15.197 8.724-22.845 8.027-13.996-1.275-20.795-11.977-27.803-15.952-7.007-3.975-18.117-7.547-18.117-7.547l-1.709-6.107s-12.99 7.144-21.621-1.556c-2.051 7-5.498 8.008-12.107 9.621-6.609 1.614-17.32 1.614-22.333 11.177-5.014 9.563-16.665 10.053-16.665 10.053Z" fill="#B880FF"/><path d="M69.308 119.598s-2.82 4.583-2.307 7.806c.513 3.224 2.307 10.169 9.524 11.475 9.217 1.667 16.455-5.713 24.512-16.341 2.689 9.596 14.676 31.022 14.676 31.022s8.329 2.908 11.451 5.012c25.467-1.728 31.62-15.382 31.62-15.382s-6.229-6.665-6.456-11.603c-.105-2.281.669-9.359.669-9.359s16.617 15.826 35.299 15.63c21.953-.231 35.992-19.951 35.992-19.951s-8.96 1.838-11.78-6.025c-9.657 6.74-15.197 8.724-22.845 8.027-13.996-1.275-20.795-11.977-27.803-15.952-7.007-3.975-18.117-7.547-18.117-7.547l-1.709-6.107s-12.99 7.144-21.621-1.556c-2.051 7-5.498 8.008-12.107 9.621-6.609 1.614-17.32 1.614-22.333 11.177-5.014 9.563-16.665 10.053-16.665 10.053Z" stroke="#000" stroke-width="1.8" stroke-miterlimit="10" stroke-linecap="round" stroke-linejoin="round"/><path d="M221.406 100.801s4.036-5.383 9.506-10.44c1.196-.922 1.94 1.669-4.045 9.332l-.955 1.021s7.962-6.95 10.351-7.232c2.389-.283-3.065 6.088-8.599 10.532" fill="#B880FF"/><path d="M221.406 100.801s4.036-5.383 9.506-10.44c1.196-.922 1.94 1.669-4.045 9.332l-.955 1.021s7.962-6.95 10.351-7.232c2.389-.283-3.065 6.088-8.599 10.532" stroke="#000" stroke-width="1.8" stroke-miterlimit="10" stroke-linecap="round" stroke-linejoin="round"/><path d="m222.436 102.142 9.298-11.244-.823-.538-5.042 4.933-5.246 6.197 1.813.652Z" fill="#fff"/><path d="M221.406 100.801s4.036-5.383 9.506-10.44c1.196-.922 1.94 1.669-4.045 9.332l-.955 1.021s7.962-6.95 10.351-7.232c2.389-.283-3.065 6.088-8.599 10.532M231.078 101.225s5.274-2.729 7.634-2.259c2.359.47-3.09 4.545-9.703 7.065" stroke="#000" stroke-width="1.8" stroke-miterlimit="10" stroke-linecap="round" stroke-linejoin="round"/><path d="M153.356 91.71s20.67 2.593 33.287 12.246c12.617 9.653 13.326 16.071 13.326 16.071" stroke="#B880FF" stroke-width="1.8" stroke-miterlimit="10" stroke-linecap="round" stroke-linejoin="round"/><path d="M173.481 89.851s17.776-.005 27.764 17.772c-11.346-11.51-26.178-12.525-26.178-12.525l-1.586-5.247Z" fill="#000"/><path d="M173.481 89.851s17.776-.005 27.764 17.772c-11.346-11.51-26.178-12.525-26.178-12.525l-1.586-5.247Z" stroke="#000" stroke-width="1.8" stroke-miterlimit="10" stroke-linecap="round" stroke-linejoin="round"/><path d="M143.743 96.41c-18.516 6.049-27.017-1.327-27.017-1.327l3.687-6.336s7.947 7.202 21.621 1.556l1.709 6.106Z" fill="#fff"/><path d="M143.743 96.41c-18.516 6.049-27.017-1.327-27.017-1.327l3.687-6.336s7.947 7.202 21.621 1.556l1.709 6.106Z" stroke="#fff" stroke-width="1.8" stroke-miterlimit="10" stroke-linecap="round" stroke-linejoin="round"/><path d="M158.784 143.19s29.583 17.244 45.72 42.258c24.698 38.283 33.244 85.985 42.132 103.614 8.888 17.63 21.706 24.456 21.45 40.012-11.024 1.296-18.716-4.408-21.279-14.259-2.564-9.852-8.721-9.332-9.999-12.703-3.504-9.247 2.564-11.148-13.588-35.259-16.152-24.11-31.62-54.011-63.753-83.738-2.392-31.11-.683-39.925-.683-39.925Z" fill="#B880FF"/><path d="M158.784 143.19s29.583 17.244 45.72 42.258c24.698 38.283 33.244 85.985 42.132 103.614 8.888 17.63 21.706 24.456 21.45 40.012-11.024 1.296-18.716-4.408-21.279-14.259-2.564-9.852-8.721-9.332-9.999-12.703-3.504-9.247 2.564-11.148-13.588-35.259-16.152-24.11-31.62-54.011-63.753-83.738-2.392-31.11-.683-39.925-.683-39.925Z" stroke="#000" stroke-width="1.8" stroke-miterlimit="10" stroke-linecap="round" stroke-linejoin="round"/><path d="M166.475 189.855s-2.062-25.392 9.566-34.56c-11.09-8.154-17.257-12.105-17.257-12.105s-6.837 13.827-31.62 15.382c5.629 7.338 9.491 13.267 9.491 13.267s20.42 10.239 27.598 19.053c1.337-1.916 2.222-1.037 2.222-1.037Z" fill="#B880FF"/><path d="M166.475 189.855s-2.062-25.392 9.566-34.56c-11.09-8.154-17.257-12.105-17.257-12.105s-6.837 13.827-31.62 15.382c5.629 7.338 9.491 13.267 9.491 13.267s20.42 10.239 27.598 19.053c1.337-1.916 2.222-1.037 2.222-1.037ZM164.253 190.892s-2.804 8.283-11.543 12.956M218.376 207.715s1.482 12.905-3.076 18.781" stroke="#000" stroke-width="1.8" stroke-miterlimit="10" stroke-linecap="round" stroke-linejoin="round"/><path d="M200.063 135.833c-8.376-6.914-3.32-15.924-3.32-15.924s10.696-3.402 16.649-9.159c-2.251 4.614 1.424 9.068 9.044 9.462-9.899 12.003-22.373 15.621-22.373 15.621Z" fill="#fff"/><path d="M200.063 135.833c-8.376-6.914-3.32-15.924-3.32-15.924s10.696-3.402 16.649-9.159c-2.251 4.614 1.424 9.068 9.044 9.462-9.899 12.003-22.373 15.621-22.373 15.621Z" stroke="#fff" stroke-width="1.8" stroke-miterlimit="10" stroke-linecap="round" stroke-linejoin="round"/><path d="M99.44 124.612c2.66-3.189 3.798-5.949 4.285-7.715M89.628 118.28s-1.17 17.661-3.519 18.966" stroke="#000" stroke-width="1.8" stroke-miterlimit="10" stroke-linecap="round" stroke-linejoin="round"/><path d="M69.308 119.598s5.644-11.762 6.413-17.38c4.188 1.297 15.122 3.38 15.122 3.38s-1.453 14.748-2.05 22.093c-9.572 5.185-17.69-2.994-19.485-8.093Z" fill="#fff"/><path d="M69.308 119.598s5.644-11.762 6.413-17.38c4.188 1.297 15.122 3.38 15.122 3.38s-1.453 14.748-2.05 22.093c-9.572 5.185-17.69-2.994-19.485-8.093Z" stroke="#fff" stroke-width="1.8" stroke-miterlimit="10" stroke-linecap="round" stroke-linejoin="round"/><path d="M62.602 90.768c2.53 3.007 7.001 2.132 10.288 4.727.604.477 1.878 5.743 3.428 7.624 4.243 5.152 8.544 3.879 12.324 2.555 6.814-2.386 6.652-11.559 7.498-13.79 1.463-3.859 5.41-5.634 4.63-6.704-.405-.557-3.294.008-4.573.736-3.75 2.135-5.265 4.89-5.265 4.89s-1.492-4.99-2.509-6.618c-1.017-1.628-5.36-6.62-6.763-8.627-.695-.995-2.172.54-1.038 3.908.41 1.217 3.065 4.508 3.065 4.508l1.413 5.155s-5.787-8.512-10.619-10.88c-2.707-1.327-2.6.946-1.442 2.33.66.788 1.341 1.501 1.903 2.06a14.51 14.51 0 0 1 2.362 3.082l2.408 4.199s-10.543-6.267-13.947-7.087c-1.177-.283-2.01 1.129 1.926 4.186 4.067 3.159 7.042 4.223 7.042 4.223s-14.18-2.91-12.131-.477Z" fill="#B880FF"/><path d="M62.602 90.768c2.53 3.007 7.001 2.132 10.288 4.727.604.477 1.878 5.743 3.428 7.624 4.243 5.152 8.544 3.879 12.324 2.555 6.814-2.386 6.652-11.559 7.498-13.79 1.463-3.859 5.41-5.634 4.63-6.704-.405-.557-3.294.008-4.573.736-3.75 2.135-5.265 4.89-5.265 4.89s-1.492-4.99-2.509-6.618c-1.017-1.628-5.36-6.62-6.763-8.627-.695-.995-2.172.54-1.038 3.908.41 1.217 3.065 4.508 3.065 4.508l1.413 5.155s-5.787-8.512-10.619-10.88c-2.707-1.327-2.6.946-1.442 2.33.66.788 1.341 1.501 1.903 2.06a14.51 14.51 0 0 1 2.362 3.082l2.408 4.199s-10.543-6.267-13.947-7.087c-1.177-.283-2.01 1.129 1.926 4.186 4.067 3.159 7.042 4.223 7.042 4.223s-14.18-2.91-12.131-.477Z" stroke="#000" stroke-width="1.8" stroke-miterlimit="10" stroke-linecap="round" stroke-linejoin="round"/><path d="M77.405 93.445c2.368-1.415 6.252-3.251 9.034-3.337l-9.034 3.337Z" fill="#B880FF"/><path d="M77.405 93.445c2.368-1.415 6.252-3.251 9.034-3.337" stroke="#000" stroke-width="1.8" stroke-miterlimit="10" stroke-linecap="round" stroke-linejoin="round"/><path d="M85.266 89.312c-.092-.314-.709-.79-.819-1.1-1.643-2.264-6.107-8.07-9.966-9.96-1.31-.642-1.96-.44-2.152.096 2.322.912 6.303 5.102 9.056 8.555 1.7 2.133 4.02 2.762 3.881 2.41ZM79.713 89.923c-1.656-.975-10.863-6.345-13.947-7.087-.65-.156-1.192.205-.889 1.072 2.944 1.097 5.97 3.664 11.838 6.106 2.364.894 3.211.289 2.998-.091ZM80.931 104.66c-2.871-2.158-5.385-10.54-8.084-9.197.014.01 1.921 5.775 3.47 7.656 2.425 2.943 4.89 4.424 10.21 3.43-.154-.316-2.307.583-5.596-1.889ZM63.111 90.765c5.712 1.324 11.253 2.135 11.708 1.012-.33-.269-1.088-.605-1.46-.799-3.335-.627-11.545-2.025-10.919-.47.087.04.57.233.672.257ZM89.203 95.39c.47-1.635 1.106-3.223 1.488-4.917a2.08 2.08 0 0 1 .068-.232c-.422-1.35-1.528-4.76-2.335-6.053-1.017-1.628-5.36-6.62-6.763-8.628-.298-.426-.74-.384-1.058.065.09.091.173.196.25.317 1.702 2.69 3.772 5.13 5.382 7.881 1.598 2.73 2.383 5.568 2.677 8.712.089.952.188 1.903.291 2.854Z" fill="#fff"/><path d="M88.848 96.957c-1.652-2.16-.139-5.77.37-5.733.185.014.558 1.373.627.865.164-1.203.88-.676.692-.565-1.953 1.152-1.182 6.096-1.689 5.433Z" fill="#fff"/><path d="M62.602 90.768c2.53 3.007 7.001 2.132 10.288 4.727.604.477 1.878 5.743 3.428 7.624 4.243 5.152 8.544 3.879 12.324 2.555 6.814-2.386 6.652-11.559 7.498-13.79 1.463-3.859 5.41-5.634 4.63-6.704-.405-.557-3.294.008-4.573.736-3.75 2.135-5.265 4.89-5.265 4.89s-1.492-4.99-2.509-6.618c-1.017-1.628-5.36-6.62-6.763-8.627-.695-.995-2.172.54-1.038 3.908.41 1.217 3.065 4.508 3.065 4.508l1.413 5.155s-5.787-8.512-10.619-10.88c-2.707-1.327-2.6.946-1.442 2.33.66.788 1.341 1.501 1.903 2.06a14.51 14.51 0 0 1 2.362 3.082l2.408 4.199s-10.543-6.267-13.947-7.087c-1.177-.283-2.01 1.129 1.926 4.186 4.067 3.159 7.042 4.223 7.042 4.223s-14.18-2.91-12.131-.477Z" stroke="#000" stroke-width="1.8" stroke-miterlimit="10" stroke-linecap="round" stroke-linejoin="round"/><path d="M89.412 96.784s-.26-5.764 4.146-9.003" stroke="#000" stroke-width="1.8" stroke-miterlimit="10" stroke-linecap="round" stroke-linejoin="round"/><path d="M139.847 75.455c1.028.232 1.787 1.054 1.787 2.033 0 1.16-1.064 2.099-2.378 2.099-1.097 0-2.02-.655-2.295-1.545" fill="#B880FF"/><path d="M139.847 75.455c1.028.232 1.787 1.054 1.787 2.033 0 1.16-1.064 2.099-2.378 2.099-1.097 0-2.02-.655-2.295-1.545" stroke="#000" stroke-width="1.8" stroke-miterlimit="10" stroke-linecap="round" stroke-linejoin="round"/><path d="M219.048 260.495a431.252 431.252 0 0 0 4.171 6.358c16.152 24.111 10.084 26.012 13.588 35.258 1.278 3.372 7.435 2.852 9.999 12.704 2.564 9.851 10.255 15.555 21.279 14.259.256-15.555-12.562-22.382-21.45-40.011 0 0-.456 1.543-13.832-40.121 0 0-2.006-2.282-9.413-5.623-.228 6.798-4.342 17.176-4.342 17.176Z" fill="#fff"/><path d="M219.048 260.495a431.252 431.252 0 0 0 4.171 6.358c16.152 24.111 10.084 26.012 13.588 35.258 1.278 3.372 7.435 2.852 9.999 12.704 2.564 9.851 10.255 15.555 21.279 14.259.256-15.555-12.562-22.382-21.45-40.011 0 0-.456 1.543-13.832-40.121 0 0-2.006-2.282-9.413-5.623-.228 6.798-4.342 17.176-4.342 17.176Z" stroke="#B880FF" stroke-width="1.8" stroke-miterlimit="10" stroke-linecap="round" stroke-linejoin="round"/><path d="M221.476 107.345c5.64-6.222 8.238-8.487 7.469-8.92-.769-.431-8.888 2.161-11.024 4.84-1.428 1.791-2.36 4.121-3.816 6.425-.467.74-.989 1.476-1.598 2.191-.332.391-1.004 3.921 2.719 6.587 3.264 2.338 7.21 1.744 7.21 1.744s4.672-4.287 7.748-10.852c0 0 13.203-1.601 11.162-2.559-3.893-1.828-9.138-1.053-9.138-1.053l-3.2.283" fill="#B880FF"/><path d="M221.476 107.345c5.64-6.222 8.238-8.487 7.469-8.92-.769-.431-8.888 2.161-11.024 4.84-1.428 1.791-2.36 4.121-3.816 6.425-.467.74-.989 1.476-1.598 2.191-.332.391-1.004 3.921 2.719 6.587 3.264 2.338 7.21 1.744 7.21 1.744s4.672-4.287 7.748-10.852c0 0 13.203-1.601 11.162-2.559-3.893-1.828-9.138-1.053-9.138-1.053l-3.2.283" stroke="#000" stroke-width="1.8" stroke-miterlimit="10" stroke-linecap="round" stroke-linejoin="round"/><path d="M228.915 99.092a4.906 4.906 0 0 1-.358.517c.178-.193.291-.367.358-.517Z" fill="#fff"/><path d="M225.228 101.537c1.889-.75 2.85-1.41 3.33-1.928.154-.199.272-.37.358-.517.189-.423.03-.666.03-.666-.769-.432-8.888 2.16-11.024 4.839-1.428 1.791-2.36 4.121-3.816 6.425-.467.74-.989 1.476-1.598 2.191-.298.35-.866 3.222 1.7 5.734 1.109-3.15 3.788-10.329 5.916-12.522 2.752-2.837 3.662-2.984 5.104-3.556Z" fill="#fff"/><path d="M221.476 107.345s1.085 3.584-.503 8.457" stroke="#000" stroke-width="1.8" stroke-miterlimit="10" stroke-linecap="round" stroke-linejoin="round"/><path d="M281.282 117.907v58.232c0 21.81-42.696 39.49-95.364 39.49-3.404 0-6.767-.074-10.079-.218l.013.001v-66.574l-.015-.17c3.312.113 6.676.17 10.081.17 52.668 0 95.364-13.76 95.364-30.734v-.197Z" fill="#B880FF"/><path d="M281.282 117.907v58.232c0 21.81-42.696 39.49-95.364 39.49-3.404 0-6.767-.074-10.079-.218l.013.001v-66.574l-.015-.17c3.312.113 6.676.17 10.081.17 52.668 0 95.364-13.76 95.364-30.734v-.197Z" stroke="#fff" stroke-width="1.8" stroke-miterlimit="10" stroke-linecap="round" stroke-linejoin="round"/><path d="m126.48 50.55 1.282 5.272 5.811 4.234 10.17 3.717 7.264-1.74v-4.686l-4.016-6.796-10.029-2.247-10.482 2.247Z" fill="#000"/><path d="M218.267 57.224V13.658c0 6.991-18.458 12.658-41.226 12.658-2.163 0-4.288-.05-6.361-.15v44.519l-.003.067c2.074.106 4.199.162 6.364.162 22.768 0 41.226-6.13 41.226-13.69Z" fill="#B880FF"/><path d="M218.267 57.224V13.658c0 6.991-18.458 12.658-41.226 12.658-2.163 0-4.288-.05-6.361-.15v44.519l-.003.067c2.074.106 4.199.162 6.364.162 22.768 0 41.226-6.13 41.226-13.69Z" stroke="#fff" stroke-width="1.8" stroke-miterlimit="10" stroke-linecap="round" stroke-linejoin="round"/><path d="M249.224 293.752s-2.683-1.579-5.656 1.187" stroke="#B880FF" stroke-width="1.8" stroke-miterlimit="10" stroke-linecap="round" stroke-linejoin="round"/><path d="M221.476 107.345c5.64-6.222 8.238-8.487 7.469-8.92-.769-.431-8.888 2.161-11.024 4.84-1.428 1.791-2.36 4.121-3.816 6.425-.467.74-.989 1.476-1.598 2.191-.332.391-1.004 3.921 2.719 6.587 3.264 2.338 7.21 1.744 7.21 1.744s4.672-4.287 7.748-10.852c0 0 13.203-1.601 11.162-2.559-3.893-1.828-9.138-1.053-9.138-1.053l-3.2.283" stroke="#000" stroke-width="1.8" stroke-miterlimit="10" stroke-linecap="round" stroke-linejoin="round"/><path d="M196.708 50.479c-5.828.972-11.739 1.427-17.643 1.515M212.164 46.081c-3.514 1.648-7.333 2.727-11.103 3.559M212.594 51.827c2.124-1.277 4.578-2.837 5.376-5.335.732-2.294.362-4.782.298-7.14l-.001 2.691.001-2.692c-.001 1.75-1.032 3.272-2.304 4.373M179.065 58.526c9.797-.043 19.835-.994 29.212-4.542" stroke="#fff" stroke-width="1.8" stroke-miterlimit="10" stroke-linecap="round" stroke-linejoin="round"/><path d="M211.168 29.008c-7.225 3.266-19.292 5.442-33.036 5.551v3.361c13.865-.12 26.024-2.512 33.227-6.097-.052-.939-.117-1.877-.191-2.815Z" fill="#fff"/><path d="M211.168 29.008c-7.225 3.266-19.292 5.442-33.036 5.551v3.361c13.865-.12 26.024-2.512 33.227-6.097-.052-.939-.117-1.877-.191-2.815Z" stroke="#fff" stroke-width="1.8" stroke-miterlimit="10" stroke-linecap="round" stroke-linejoin="round"/><path d="M201.417 38.972c-6.555 1.478-14.584 2.375-23.285 2.444v3.362c8.701-.076 16.73-1.046 23.285-2.644v-3.162Z" fill="#fff"/><path d="M201.417 38.972c-6.555 1.478-14.584 2.375-23.285 2.444v3.362c8.701-.076 16.73-1.046 23.285-2.644v-3.162Z" stroke="#fff" stroke-width="1.8" stroke-miterlimit="10" stroke-linecap="round" stroke-linejoin="round"/><path d="M154.197 120.837s-.956 9.205-.627 10.917c.318 1.65 1.054 9.362 21.165 20.25" stroke="#B880FF" stroke-width="1.8" stroke-miterlimit="10" stroke-linecap="round" stroke-linejoin="round"/><path d="M153.502 116.703c-.14 2.038-.814 8.627-.814 8.627l.814-8.627Z" fill="#B880FF"/><path d="M153.502 116.703c-.14 2.038-.814 8.627-.814 8.627" stroke="#000" stroke-width="1.8" stroke-miterlimit="10" stroke-linecap="round" stroke-linejoin="round"/><path d="M115.712 153.56s8.329 2.908 11.451 5.012c25.467-1.728 31.62-15.382 31.62-15.382s-2.033-2.177-3.819-4.964a89.839 89.839 0 0 1-41.263 11.659c1.22 2.261 2.011 3.675 2.011 3.675Z" fill="#fff"/><path d="M115.712 153.56s8.329 2.908 11.451 5.012c25.467-1.728 31.62-15.382 31.62-15.382s-2.033-2.177-3.819-4.964a89.839 89.839 0 0 1-41.263 11.659c1.22 2.261 2.011 3.675 2.011 3.675Z" stroke="#B880FF" stroke-width="1.8" stroke-miterlimit="10" stroke-linecap="round" stroke-linejoin="round"/><path d="M110.468 142.166c-.276 0-.55-.008-.826-.01 1.526 2.99 2.965 5.7 4.06 7.729a89.835 89.835 0 0 0 41.262-11.659c-1.279-1.997-2.429-4.306-2.613-6.354-12.54 6.575-26.781 10.294-41.883 10.294Z" fill="#fff"/><path d="M110.468 142.166c-.276 0-.55-.008-.826-.01 1.526 2.99 2.965 5.7 4.06 7.729a89.835 89.835 0 0 0 41.262-11.659c-1.279-1.997-2.429-4.306-2.613-6.354-12.54 6.575-26.781 10.294-41.883 10.294Z" stroke="#B880FF" stroke-width="1.8" stroke-miterlimit="10" stroke-linecap="round" stroke-linejoin="round"/><path d="M115.712 153.56s8.329 2.908 11.451 5.012c25.467-1.728 31.62-15.382 31.62-15.382s-2.033-2.177-3.819-4.964a89.839 89.839 0 0 1-41.263 11.659c1.22 2.261 2.011 3.675 2.011 3.675Z" fill="#fff"/><path d="M115.712 153.56s8.329 2.908 11.451 5.012c25.467-1.728 31.62-15.382 31.62-15.382s-2.033-2.177-3.819-4.964a89.839 89.839 0 0 1-41.263 11.659c1.22 2.261 2.011 3.675 2.011 3.675Z" stroke="#B880FF" stroke-width="1.8" stroke-miterlimit="10" stroke-linecap="round" stroke-linejoin="round"/><path d="M152.996 122.228s-.774 7.078-.669 9.359c.227 4.938 6.456 11.603 6.456 11.603l3.031 2.015M101.037 122.538c2.69 9.596 14.676 31.022 14.676 31.022" stroke="#000" stroke-width="1.8" stroke-miterlimit="10" stroke-linecap="round" stroke-linejoin="round"/><path d="M117.934 153.56c-3.585 0-8.375 1.556-10.939 6.395-2.564 4.839-3.077 17.283 15.383 36.987 18.459 19.703 28.714 27.653 30.252 33.702 1.538 6.049 1.538 15.556 6.495 19.358 4.956 3.802 14.186 11.061 15.553 8.814 1.368-2.247.513-17.878-2.905-22.593-3.419-4.715-10.945-11.401-12.313-15.549-1.367-4.148-25.46-67.114-41.526-67.114Z" fill="#B880FF"/><path d="M117.934 153.56c-3.585 0-8.375 1.556-10.939 6.395-2.564 4.839-3.077 17.283 15.383 36.987 18.459 19.703 28.714 27.653 30.252 33.702 1.538 6.049 1.538 15.556 6.495 19.358 4.956 3.802 14.186 11.061 15.553 8.814 1.368-2.247.513-17.878-2.905-22.593-3.419-4.715-10.945-11.401-12.313-15.549-1.367-4.148-25.46-67.114-41.526-67.114Z" stroke="#000" stroke-width="1.8" stroke-miterlimit="10" stroke-linecap="round" stroke-linejoin="round"/><path d="M128.915 203.799c14.35 14.804 22.37 21.552 23.716 26.845 1.538 6.049 1.538 15.555 6.495 19.358 4.957 3.802 14.186 11.061 15.553 8.814 1.368-2.246.513-17.878-2.905-22.593-3.419-4.714-10.945-11.401-12.313-15.549-.587-1.782-5.369-14.42-11.907-28.258h-.001c-6.787-5.735-17.124-6.536-17.124-6.536l-1.466 17.968-.048-.049Z" fill="#fff"/><path d="M128.915 203.799c14.35 14.804 22.37 21.552 23.716 26.845 1.538 6.049 1.538 15.555 6.495 19.358 4.957 3.802 14.186 11.061 15.553 8.814 1.368-2.246.513-17.878-2.905-22.593-3.419-4.714-10.945-11.401-12.313-15.549-.587-1.782-5.369-14.42-11.907-28.258h-.001c-6.787-5.735-17.124-6.536-17.124-6.536l-1.466 17.968-.048-.049Z" stroke="#fff" stroke-width="1.8" stroke-miterlimit="10" stroke-linecap="round" stroke-linejoin="round"/><path d="M162.544 223.385s-4.472-1.958-8.944 1.786" stroke="#B880FF" stroke-width="1.8" stroke-miterlimit="10" stroke-linecap="round" stroke-linejoin="round"/><path d="m273.648 157.964-2.012-.864-6.344 5.694c-.479.022-.96.048-1.44.07.51.947.374 1.555.33 1.718-.12.441-.452.819-.939 1.073 2.121.091 4.185-.412 5.99-1.58 2.187-1.413 3.667-3.585 4.415-6.111ZM264.461 138.357l-11.485 5.36c1.501.262 2.994.521 4.478.777.077-.05.147-.105.228-.149 2.695-1.547 6.287-.463 8.597 2.367.001-.117.018-1.089.789-1.63.83-.584 1.799-.148 1.88-.109l-.164-1.623-.932-2.81a15.562 15.562 0 0 0-3.391-2.183ZM220.031 164.508c-1.304-2.227-1.659-4.423-.796-4.903.861-.478 2.605.925 3.899 3.135 1.295 2.211 1.657 4.404.807 4.901-.851.493-2.606-.907-3.91-3.133Z" fill="#B880FF"/></svg>
