<svg width="335" height="333" fill="none" xmlns="http://www.w3.org/2000/svg"><path d="M5.966 134.3c4.261 6.018 13.599 6.608 20.95 1.299 7.296-5.312 9.687-14.4 5.487-20.478l-2.976-4.073-25.911 19.651 2.45 3.601Z" fill="#000"/><path d="M5.966 134.3c4.261 6.018 13.599 6.608 20.95 1.299 7.296-5.312 9.687-14.4 5.487-20.478l-2.976-4.073-25.911 19.651 2.45 3.601Z" stroke="#000" stroke-width="1.8" stroke-miterlimit="10" stroke-linecap="round" stroke-linejoin="round"/><path d="M24 131.525c7.294-5.251 9.686-14.458 5.427-20.477-4.26-6.02-13.656-6.668-20.893-1.357-7.294 5.251-9.687 14.458-5.427 20.476 4.261 6.02 13.599 6.609 20.893 1.358Z" fill="#B880FF"/><path d="M24 131.525c7.294-5.251 9.686-14.458 5.427-20.477-4.26-6.02-13.656-6.668-20.893-1.357-7.294 5.251-9.687 14.458-5.427 20.476 4.261 6.02 13.599 6.609 20.893 1.358Z" stroke="#000" stroke-width="1.8" stroke-miterlimit="10" stroke-linecap="round" stroke-linejoin="round"/><path d="m16.706 106.329-1.868 14.398 16.3-4.995s-2.07-10.206-14.316-9.875" fill="#fff"/><path d="M24 131.525c7.294-5.251 9.686-14.458 5.427-20.477-4.26-6.02-13.656-6.668-20.893-1.357-7.294 5.251-9.687 14.458-5.427 20.476 4.261 6.02 13.599 6.609 20.893 1.358Z" stroke="#000" stroke-width="1.8" stroke-miterlimit="10" stroke-linecap="round" stroke-linejoin="round"/><path d="m38.708 49.284-1.007-1.523-.275-1.115a8.418 8.418 0 0 1-2.344-.995l-2.809.882c-.548-.547-.885-.945-1.838-2.24-.869-1.18-1.488-2.14-1.791-3.009l2.164-2.342a12.674 12.674 0 0 1-.135-2.891l-1.193-1.46c-.943-.988-1.613-2.257-1.613-2.257l6.362-4.501a11.692 11.692 0 0 1 2.203-1.892l5.535-5.69 1.007 1.522 1.288 2.647a8.41 8.41 0 0 1 2.344.994l2.332-1.725c.68.634 1.365 1.46 2.309 3.075.472.807.878 1.63 1.182 2.5l-1.555 2.852c.152.944.202 1.92.134 2.89l.792.672 1.008 1.523a16.568 16.568 0 0 1-2.506 5.813l-2.849.21a11.67 11.67 0 0 1-2.203 1.892l-1.01 3.09c-1.824.83-3.715 1.18-5.532 1.078Z" fill="#000"/><path d="m38.708 49.284-1.007-1.523-.275-1.115a8.418 8.418 0 0 1-2.344-.995l-2.809.882c-.548-.547-.885-.945-1.838-2.24-.869-1.18-1.488-2.14-1.791-3.009l2.164-2.342a12.674 12.674 0 0 1-.135-2.891l-1.193-1.46c-.943-.988-1.613-2.257-1.613-2.257l6.362-4.501a11.692 11.692 0 0 1 2.203-1.892l5.535-5.69 1.007 1.522 1.288 2.647a8.41 8.41 0 0 1 2.344.994l2.332-1.725c.68.634 1.365 1.46 2.309 3.075.472.807.878 1.63 1.182 2.5l-1.555 2.852c.152.944.202 1.92.134 2.89l.792.672 1.008 1.523a16.568 16.568 0 0 1-2.506 5.813l-2.849.21a11.67 11.67 0 0 1-2.203 1.892l-1.01 3.09c-1.824.83-3.715 1.18-5.532 1.078Z" stroke="#000" stroke-width="1.8" stroke-miterlimit="10" stroke-linecap="round" stroke-linejoin="round"/><path d="m37.696 47.753-1.287-2.647a8.41 8.41 0 0 1-2.344-.994l-2.808.882a10.97 10.97 0 0 1-1.839-2.24c-.49-.791-.878-1.63-1.182-2.5l1.555-2.852a12.654 12.654 0 0 1-.135-2.89l-1.799-2.195a16.575 16.575 0 0 1 2.506-5.813l2.849-.21c.354-.388.726-.75 1.132-1.089.35-.293.706-.563 1.071-.803l1.01-3.09c1.83-.821 3.72-1.172 5.538-1.07l1.287 2.647a8.415 8.415 0 0 1 2.344.994l2.809-.881c.686.641 1.303 1.38 1.838 2.239.49.792.878 1.63 1.181 2.5l-1.554 2.852c.152.944.202 1.92.134 2.891l1.8 2.194a16.575 16.575 0 0 1-2.506 5.814l-2.849.21a11.76 11.76 0 0 1-2.203 1.892l-1.01 3.089c-1.818.825-3.715 1.181-5.538 1.07Z" fill="#fff"/><path d="m37.696 47.753-1.287-2.647a8.41 8.41 0 0 1-2.344-.994l-2.808.882a10.97 10.97 0 0 1-1.839-2.24c-.49-.791-.878-1.63-1.182-2.5l1.555-2.852a12.654 12.654 0 0 1-.135-2.89l-1.799-2.195a16.575 16.575 0 0 1 2.506-5.813l2.849-.21c.354-.388.726-.75 1.132-1.089.35-.293.706-.563 1.071-.803l1.01-3.09c1.83-.821 3.72-1.172 5.538-1.07l1.287 2.647a8.415 8.415 0 0 1 2.344.994l2.809-.881c.686.641 1.303 1.38 1.838 2.239.49.792.878 1.63 1.181 2.5l-1.554 2.852c.152.944.202 1.92.134 2.891l1.8 2.194a16.575 16.575 0 0 1-2.506 5.814l-2.849.21a11.76 11.76 0 0 1-2.203 1.892l-1.01 3.089c-1.818.825-3.715 1.181-5.538 1.07Z" stroke="#000" stroke-width="1.8" stroke-miterlimit="10" stroke-linecap="round" stroke-linejoin="round"/><path d="M37.695 31.077c2.086-1.768 4.817-1.736 6.48-.055a5.313 5.313 0 0 0-.442-.833c-1.544-2.341-4.695-2.623-7.039-.64-2.343 1.982-2.987 5.484-1.45 7.817.172.262.357.486.56.695-.925-2.27-.188-5.222 1.891-6.984Z" fill="#000"/><path d="M37.695 31.077c2.086-1.768 4.817-1.736 6.48-.055a5.313 5.313 0 0 0-.442-.833c-1.544-2.341-4.695-2.623-7.039-.64-2.343 1.982-2.987 5.484-1.45 7.817.172.262.357.486.56.695-.925-2.27-.188-5.222 1.891-6.984Z" stroke="#000" stroke-width="1.8" stroke-miterlimit="10" stroke-linecap="round" stroke-linejoin="round"/><path d="M44.182 31.03c-1.663-1.68-4.388-1.717-6.48.055-2.078 1.762-2.821 4.707-1.89 6.984 1.663 1.682 4.388 1.718 6.48-.054 2.079-1.762 2.828-4.712 1.89-6.985Z" fill="#B880FF"/><path d="M44.182 31.03c-1.663-1.68-4.388-1.717-6.48.055-2.078 1.762-2.821 4.707-1.89 6.984 1.663 1.682 4.388 1.718 6.48-.054 2.079-1.762 2.828-4.712 1.89-6.985Z" stroke="#000" stroke-width="1.8" stroke-miterlimit="10" stroke-linecap="round" stroke-linejoin="round"/><path d="M257.681 144.345c3.057-1.756 7.273-.125 9.461 3.612 2.189 3.737 1.576 8.259-1.416 10.126-3.039 1.898-7.372.338-9.627-3.512-2.257-3.854-1.525-8.444 1.582-10.226Zm-5.296 18.024c.948-.581 6.115-3.559 7.052-2.835 4.316 3.343 7.215 6.168 11.288 3.534 5.509-3.564 5.082-10.968 1.036-17.876-4.046-6.909-11.851-10.012-17.59-6.841-4.19 2.314-6.148 7.34-5.396 12.7.161 1.164-.311 2.277-1.26 2.828l-16.02 9.349c-.403.237-.933-.051-.967-.537-.07-.924-.502-2.188-1.246-3.459-1.275-2.177-2.982-3.565-3.818-3.101l-2.615 1.458 4.662 7.962-7.4 4.32 5.301 9.052 26.973-16.554Z" fill="#000"/><path d="m273.648 157.964-2.012-.864-6.344 5.694c-.479.022-.96.048-1.44.07.51.947.374 1.555.33 1.718-.12.441-.452.819-.939 1.073 2.121.091 4.185-.412 5.99-1.58 2.187-1.413 3.667-3.585 4.415-6.111ZM264.461 138.357l-11.485 5.36c1.501.262 2.994.521 4.478.777.077-.05.147-.105.228-.149 2.695-1.547 6.287-.463 8.597 2.367.001-.117.018-1.089.789-1.63.83-.584 1.799-.148 1.88-.109l-.164-1.623-.932-2.81a15.562 15.562 0 0 0-3.391-2.183Z" fill="#B880FF"/><path d="M257.681 144.345c3.057-1.756 7.273-.125 9.461 3.612 2.189 3.737 1.576 8.259-1.416 10.126-3.039 1.898-7.372.338-9.627-3.512-2.257-3.854-1.525-8.444 1.582-10.226Zm-5.296 18.024c.947-.581 2.152-.456 3.09.269 4.315 3.342 9.689 4.072 13.761 1.438 5.509-3.564 6.571-11.976 2.525-18.884-4.046-6.909-11.851-10.012-17.59-6.841-4.19 2.314-6.148 7.34-5.396 12.7.161 1.164-.311 2.277-1.26 2.828l-16.02 9.349c-.403.237-.933-.051-.967-.537-.07-.924-.502-2.188-1.246-3.459-1.275-2.177-2.982-3.565-3.818-3.101l-2.615 1.458 4.662 7.962-7.4 4.32 5.301 9.052 26.973-16.554Z" stroke="#000" stroke-width="1.8" stroke-miterlimit="10" stroke-linecap="round" stroke-linejoin="round"/><path d="m223.942 167.634 5.29-3.167-5.29 3.167Zm36.008-24.594c3.02-1.734 7.196-.108 9.372 3.608 2.176 3.715 1.578 8.2-1.377 10.044-3.004 1.873-7.293.315-9.533-3.511-2.241-3.826-1.531-8.378 1.538-10.141Zm-5.189 17.872c.936-.572 2.128-.449 3.056.274 4.278 3.327 9.595 4.066 13.621 1.464 5.441-3.519 6.472-11.863 2.45-18.732-4.023-6.869-11.755-9.966-17.422-6.833-4.14 2.288-6.06 7.266-5.306 12.587.166 1.158-.301 2.259-1.238 2.803l-15.815 9.23c-.396.234-.921-.054-.957-.534-.071-.92-.504-2.17-1.245-3.435-1.266-2.162-2.958-3.546-3.779-3.087l-8.885 4.951 4.704 8.033-7.983 4.66 5.353 9.141 33.446-20.522Z" fill="#fff"/><path d="m223.942 167.634 5.29-3.167-5.29 3.167Zm36.008-24.594c3.02-1.734 7.196-.107 9.372 3.608 2.175 3.715 1.578 8.2-1.377 10.044-3.004 1.874-7.293.315-9.533-3.511-2.241-3.826-1.531-8.378 1.538-10.141Zm-5.189 17.872c.936-.572 2.128-.449 3.055.274 4.279 3.327 9.596 4.066 13.622 1.464 5.441-3.519 6.472-11.863 2.45-18.732-4.023-6.869-11.755-9.966-17.422-6.833-4.14 2.288-6.06 7.266-5.306 12.587.166 1.158-.301 2.259-1.238 2.803l-15.815 9.23c-.396.234-.921-.054-.957-.534-.071-.92-.504-2.17-1.245-3.435-1.266-2.162-2.958-3.546-3.779-3.087l-8.885 4.951 4.704 8.033-7.983 4.66 5.353 9.141 33.446-20.522Z" stroke="#000" stroke-width="1.8" stroke-miterlimit="10" stroke-linecap="round" stroke-linejoin="round"/><path d="M216.871 177.921c-1.485-2.536-1.881-5.061-.89-5.638.988-.575 2.975.997 4.448 3.512 1.473 2.515 1.88 5.032.907 5.632-.98.595-2.979-.97-4.465-3.506Z" fill="#B880FF"/><path d="M216.871 177.921c-1.485-2.536-1.881-5.061-.89-5.638.988-.575 2.975.997 4.448 3.512 1.473 2.515 1.88 5.032.907 5.632-.98.595-2.979-.97-4.465-3.506Z" stroke="#000" stroke-width="1.8" stroke-miterlimit="10" stroke-linecap="round" stroke-linejoin="round"/><path d="M220.031 164.508c-1.304-2.227-1.659-4.423-.796-4.903.861-.478 2.605.925 3.899 3.135 1.295 2.211 1.657 4.404.807 4.901-.851.493-2.606-.907-3.91-3.133Z" fill="#B880FF"/><path d="M220.031 164.508c-1.304-2.227-1.659-4.423-.796-4.903.861-.478 2.605.925 3.899 3.135 1.295 2.211 1.657 4.404.807 4.901-.851.493-2.606-.907-3.91-3.133Z" stroke="#000" stroke-width="1.8" stroke-miterlimit="10" stroke-linecap="round" stroke-linejoin="round"/></svg>
