<svg width="368" height="298" viewBox="0 0 368 298" fill="none" xmlns="http://www.w3.org/2000/svg">
<path d="M135.94 2.97776L34.3751 43.2096C32.5637 43.9088 31.6103 45.879 32.1505 47.754L102.445 293.404C102.954 295.151 104.924 296.009 106.545 295.183L333.699 178.206C335.415 177.316 336.209 175.25 335.478 173.471L295.247 71.874C294.579 70.2215 293.308 68.9186 291.687 68.2195L141.056 3.0731C139.436 2.34219 137.592 2.31041 135.94 2.97776Z" fill="#B880FF" stroke="white" stroke-width="2" stroke-miterlimit="10"/>
<path d="M118.28 261.726C128.006 257.884 138.219 253.507 148.773 248.449C156.554 244.753 163.947 240.96 170.901 237.167C180.725 240.571 190.598 244.024 200.519 247.574C208.981 250.589 217.395 253.605 225.76 256.669C210.732 265.958 195.704 275.198 180.725 284.487C168.615 282.785 153.344 279.283 136.955 271.794C129.952 268.584 123.727 265.131 118.28 261.726Z" fill="white"/>
<path d="M171.587 273.723C181.177 271.562 187.745 264.458 186.257 257.855C184.769 251.252 175.789 247.651 166.2 249.812C156.61 251.973 150.042 259.077 151.53 265.68C153.017 272.282 161.998 275.883 171.587 273.723Z" fill="#B880FF"/>
<path d="M157.138 261.386L167.594 269.848L176.008 257.495L157.138 261.386Z" fill="white"/>
<path d="M172.506 237.701C171.971 237.507 171.485 237.361 170.95 237.167C167.448 239.063 163.801 241.009 160.104 242.905C163.412 245.775 166.962 248.693 170.707 251.611C174.889 254.869 178.974 257.884 182.914 260.656C179.461 252.972 175.959 245.337 172.506 237.701Z" fill="black"/>
<path d="M219.583 217.665C227.267 225.008 235.875 241.544 246.478 239.161C216.325 245.872 182.914 260.608 182.914 260.608C182.914 260.608 166.087 244.218 161.418 219.999C180.093 223.209 198.622 221.312 219.583 217.665Z" fill="white" stroke="#B880FF" stroke-width="1.2" stroke-miterlimit="10" stroke-linecap="round" stroke-linejoin="round"/>
<path d="M180.579 228.461C181.649 230.99 182.962 233.519 184.47 235.999C195.072 234.929 206.257 233.033 218.221 230.261C219.486 231.574 220.848 232.838 222.258 234.054C210.1 237.507 198.914 239.987 188.312 241.641C190.695 244.802 193.418 247.866 196.482 250.784C193.759 251.513 191.035 252.194 188.409 252.778C181.065 245.337 175.667 237.021 172.7 228.558C175.278 228.607 177.904 228.558 180.579 228.461Z" fill="#B880FF"/>
<path d="M224.933 274.809C202.075 279.332 199.497 279.915 199.789 281.715C200.373 285.022 214.622 280.159 216.422 281.52C217.346 282.25 215.498 282.833 216.86 284.438C217.784 285.46 229.504 284.925 230.72 284.633C233.541 283.952 239.28 282.201 240.495 277.241" fill="black"/>
<path d="M224.933 274.809C202.075 279.332 199.497 279.915 199.789 281.715C200.373 285.022 214.622 280.159 216.422 281.52C217.346 282.25 215.498 282.833 216.86 284.438C217.784 285.46 229.504 284.925 230.72 284.633C233.541 283.952 239.28 282.201 240.495 277.241" stroke="black" stroke-width="1.2" stroke-miterlimit="10" stroke-linecap="round" stroke-linejoin="round"/>
<path d="M268.752 257.495L270.162 258.711L270.211 264.596C270.211 265.617 269.87 266.638 269.141 267.368C262.283 274.809 237.383 287.648 225.662 282.055C223.766 281.18 222.599 279.283 222.501 277.192C222.453 276.219 222.453 275.246 222.599 274.565L268.752 257.495Z" fill="white" stroke="black" stroke-width="1.2" stroke-miterlimit="10" stroke-linecap="round" stroke-linejoin="round"/>
<path d="M235.681 256.766C232.86 259.392 220.653 271.162 222.793 275.782C229.699 286.627 257.712 274.906 270.162 258.711C270.648 255.55 270.308 252.486 269.676 248.936L235.681 256.766Z" fill="#B880FF"/>
<path d="M241.663 255.355L235.681 256.717C232.86 259.343 220.653 271.113 222.793 275.733C223.522 276.9 224.495 277.775 225.614 278.456C224.495 273.836 237.383 259.83 241.663 255.355Z" fill="white"/>
<path d="M235.681 256.766C232.86 259.392 220.653 271.162 222.793 275.782C229.699 286.627 257.712 274.906 270.162 258.711C270.648 255.55 270.308 252.486 269.676 248.936L235.681 256.766Z" stroke="black" stroke-width="1.2" stroke-miterlimit="10" stroke-linecap="round" stroke-linejoin="round"/>
<path d="M198.622 220.485V222.09L200.276 222.43C201.735 222.722 203.291 222.43 204.507 221.506C205.82 220.534 207.133 219.415 208.446 218.102C216.519 210.175 219.389 200.691 220.507 195.244C219.534 194.758 218.562 194.272 217.589 193.785L198.622 220.485Z" fill="white" stroke="black" stroke-width="1.2" stroke-miterlimit="10" stroke-linecap="round" stroke-linejoin="round"/>
<path d="M193.856 200.351C193.662 202.247 191.911 219.95 197.552 221.895C197.99 222.041 198.428 222.09 199.011 222.041C206.89 220.777 215.644 200.74 217.541 193.737C214.428 191.013 211.316 188.241 208.203 185.518L193.856 200.351Z" fill="#B880FF"/>
<path d="M197.552 221.896C197.99 222.042 198.428 222.09 199.011 222.042C199.449 221.993 199.838 221.847 200.276 221.652C195.899 218.929 197.212 202.929 197.601 197.968L196.628 197.482L193.905 200.302C193.661 202.248 191.911 219.902 197.552 221.896Z" fill="white"/>
<path d="M193.856 200.351C193.662 202.247 191.911 219.95 197.552 221.895C197.99 222.041 198.428 222.09 199.011 222.041C206.89 220.777 215.644 200.74 217.541 193.737C214.428 191.013 211.316 188.241 208.203 185.518L193.856 200.351Z" stroke="black" stroke-width="1.2" stroke-miterlimit="10" stroke-linecap="round" stroke-linejoin="round"/>
<path d="M201.832 209.494C200.227 209.397 194.732 209.154 193.564 211.488" stroke="black" stroke-width="1.2" stroke-miterlimit="10" stroke-linecap="round" stroke-linejoin="round"/>
<path d="M201.735 205.701C200.13 205.604 194.634 205.36 193.467 207.695" stroke="black" stroke-width="1.2" stroke-miterlimit="10" stroke-linecap="round" stroke-linejoin="round"/>
<path d="M114.535 21.6719V48.5175" stroke="white" stroke-width="1.2" stroke-miterlimit="10" stroke-linecap="round" stroke-linejoin="round"/>
<path d="M105.732 26.5352L114.535 27.2647" stroke="white" stroke-width="1.2" stroke-miterlimit="10" stroke-linecap="round" stroke-linejoin="round"/>
<path d="M136.42 91.2178V111.401" stroke="white" stroke-width="1.2" stroke-miterlimit="10" stroke-linecap="round" stroke-linejoin="round"/>
<path d="M68.625 66.7064L83.3609 65.8796" stroke="white" stroke-width="1.2" stroke-miterlimit="10" stroke-linecap="round" stroke-linejoin="round"/>
<path d="M82.3396 108.58L101.161 102.987" stroke="white" stroke-width="1.2" stroke-miterlimit="10" stroke-linecap="round" stroke-linejoin="round"/>
<path d="M86.4248 115.048L86.668 107.315" stroke="white" stroke-width="1.2" stroke-miterlimit="10" stroke-linecap="round" stroke-linejoin="round"/>
<path d="M119.447 146.708C115.848 147.049 119.058 136.641 119.058 136.641C119.058 136.641 122.997 146.416 119.447 146.708Z" fill="black" stroke="black" stroke-width="1.2" stroke-miterlimit="10" stroke-linecap="round" stroke-linejoin="round"/>
<path d="M186.756 81.8801L99.1181 120.738L74.4124 43.4597L157.041 18.219L186.756 81.8801Z" fill="white"/>
<path d="M144.409 38.0018C144.93 34.7937 142.751 31.771 139.543 31.2503C136.335 30.7297 133.312 32.9082 132.792 36.1163C132.271 39.3244 134.45 42.3471 137.658 42.8678C140.866 43.3884 143.889 41.2098 144.409 38.0018Z" fill="black" stroke="black" stroke-width="1.2" stroke-miterlimit="10" stroke-linecap="round" stroke-linejoin="round"/>
<path d="M121.003 118.209C118.718 116.847 119.933 91.0716 119.933 91.0716C119.933 91.0716 123.143 84.4575 123.24 86.4028C123.532 93.7464 123.873 119.911 121.003 118.209Z" fill="black" stroke="black" stroke-width="1.2" stroke-miterlimit="10" stroke-linecap="round" stroke-linejoin="round"/>
<path d="M247.888 133.626C246.575 135.863 237.432 132.994 227.462 127.206C217.492 121.419 210.489 114.853 211.802 112.616C213.115 110.379 222.258 113.249 232.228 119.036C242.198 124.823 249.201 131.389 247.888 133.626Z" fill="black" stroke="black" stroke-width="1.2" stroke-miterlimit="10" stroke-linecap="round" stroke-linejoin="round"/>
<path d="M229.456 52.7486C229.358 53.624 229.067 54.7912 228.532 56.0557C227.608 58.1469 226.246 59.46 225.419 60.1895C227.413 60.8218 229.602 61.4054 231.985 61.8917C234.465 62.378 236.751 62.7185 238.891 62.9617C239.037 58.1469 239.182 53.3809 239.328 48.5662L229.456 52.7486Z" fill="black" stroke="black" stroke-width="1.2" stroke-miterlimit="10" stroke-linecap="round" stroke-linejoin="round"/>
<path d="M266.806 126.185C266.612 125.699 265.493 125.601 264.229 126.039C262.964 126.477 262.089 127.206 262.283 127.741L263.353 132.021L268.557 130.076L266.806 126.185Z" fill="white" stroke="black" stroke-width="1.2" stroke-miterlimit="10" stroke-linecap="round" stroke-linejoin="round"/>
<path d="M275.998 130.124C274.928 128.52 270.794 128.325 266.271 129.881C261.748 131.438 259.414 133.772 259.414 135.863C260.046 141.796 261.068 148.362 262.721 155.462C264.083 161.347 265.639 166.697 267.293 171.511C268.168 174.04 273.907 174.332 280.132 172.192C286.357 170.052 290.685 166.259 289.81 163.73L275.998 130.124Z" fill="black" stroke="black" stroke-width="1.2" stroke-miterlimit="10" stroke-linecap="round" stroke-linejoin="round"/>
<path d="M280.375 137.565L279.597 139.365C271.572 143.936 266.612 145.784 266.125 145.055C265.736 144.471 266.952 143.401 270.746 140.775C266.028 142.672 260.581 144.714 260.241 143.499C259.998 142.672 262.04 141.553 269.384 138.1C264.472 139.9 258.684 142.477 258.344 141.31C257.955 139.948 261.846 137.906 269.384 133.82C262.089 137.322 258.295 139.024 257.906 138.1C257.323 136.836 261.894 133.821 271.183 127.401C270.794 126.72 270.405 125.991 270.016 125.31C269.578 125.456 265.055 126.136 263.694 124.921C263.402 124.677 263.451 124.142 263.84 123.997L268.557 122.1C269.141 121.857 269.822 121.857 270.405 122.051L276.873 124.191C277.651 124.532 278.381 124.872 279.159 125.261L280.375 137.565Z" fill="#B880FF"/>
<path d="M270.891 133.577C271.524 134.55 272.156 135.717 272.739 137.03C273.226 138.1 273.663 139.17 274.004 140.143" stroke="black" stroke-width="1.2" stroke-miterlimit="10" stroke-linecap="round" stroke-linejoin="round"/>
<path d="M279.597 139.365C271.572 143.936 266.612 146.125 266.125 145.055C265.639 144.034 266.903 143.207 270.746 140.775C266.174 142.818 260.581 145.201 260.241 143.499C260.046 142.477 262.04 141.553 269.384 138.1C264.472 139.9 258.684 142.477 258.344 141.31C257.955 139.948 261.846 137.906 269.384 133.82C262.089 137.322 258.295 139.024 257.906 138.1C257.323 136.836 261.894 133.821 271.183 127.401C270.794 126.72 270.405 125.991 270.016 125.31C269.578 125.456 265.055 126.136 263.694 124.921C263.402 124.677 263.451 124.142 263.84 123.997L268.557 122.1C269.141 121.857 269.822 121.857 270.405 122.051L276.873 124.191" stroke="black" stroke-width="1.2" stroke-miterlimit="10" stroke-linecap="round" stroke-linejoin="round"/>
<path d="M270.891 133.577C271.524 134.55 272.156 135.717 272.739 137.03C273.226 138.1 273.663 139.17 274.004 140.143" stroke="black" stroke-width="1.2" stroke-miterlimit="10" stroke-linecap="round" stroke-linejoin="round"/>
<path d="M280.131 172.192C286.357 170.052 290.685 166.259 289.81 163.73L287.961 159.207C287.086 156.678 281.396 156.337 275.22 158.477C269.092 160.569 265.006 164.119 265.736 166.648C266.222 168.301 266.757 169.906 267.292 171.462C268.168 173.991 273.906 174.332 280.131 172.192Z" fill="white" stroke="black" stroke-width="1.2" stroke-miterlimit="10" stroke-linecap="round" stroke-linejoin="round"/>
<path d="M280.143 172.163C286.365 170.022 290.708 166.249 289.843 163.734C288.978 161.22 283.233 160.917 277.01 163.057C270.788 165.198 266.444 168.972 267.309 171.486C268.174 174.001 273.92 174.304 280.143 172.163Z" fill="#B880FF" stroke="black" stroke-width="1.2" stroke-miterlimit="10" stroke-linecap="round" stroke-linejoin="round"/>
<path d="M188.312 57.7091C185.199 49.5873 183.254 45.5021 182.719 45.7939C181.552 46.3775 181.698 49.5873 184.081 57.8064C184.324 58.6818 178.926 63.156 179.266 64.1773L183.692 72.1532" fill="#B880FF"/>
<path d="M188.312 57.7091C185.199 49.5873 183.254 45.5021 182.719 45.7939C181.552 46.3775 181.698 49.5873 184.081 57.8064C184.324 58.6818 178.926 63.156 179.266 64.1773L183.692 72.1532" stroke="black" stroke-width="1.2" stroke-miterlimit="10" stroke-linecap="round" stroke-linejoin="round"/>
<path d="M184.567 57.0284C184.713 56.4448 184.519 55.6181 184.081 54.8886C183.497 53.8673 182.184 53.4782 181.357 54.1104C181.163 54.2563 181.066 54.4022 180.968 54.5481C180.92 54.6454 180.871 54.694 180.871 54.7913L179.461 58.0497L183.886 59.5574L184.567 57.0284Z" fill="white" stroke="black" stroke-width="1.2" stroke-miterlimit="10" stroke-linecap="round" stroke-linejoin="round"/>
<path d="M183.011 55.3749C182.914 55.6667 182.622 55.8126 182.379 55.7154C182.135 55.6181 182.038 55.3263 182.135 55.0345C182.233 54.7427 182.524 54.5968 182.768 54.6941C183.011 54.7427 183.108 55.0831 183.011 55.3749Z" fill="black"/>
<path d="M185.248 65.1016C185.54 63.3508 185.053 61.2596 183.789 59.217C182.038 56.299 178.439 55.4722 175.91 56.9312C173.819 58.1471 163.606 78.3786 163.606 78.3786C168.518 81.9774 173.43 85.5277 178.342 89.1266C180.141 83.6796 181.892 77.9409 183.448 71.959C184.129 69.6732 184.713 67.3388 185.248 65.1016Z" fill="#B880FF" stroke="black" stroke-width="1.2" stroke-miterlimit="10" stroke-linecap="round" stroke-linejoin="round"/>
<path d="M178.391 89.078C180.19 83.6311 181.892 77.9409 183.497 72.0077C184.129 69.6733 184.713 67.3875 185.248 65.1504C185.491 63.74 185.199 62.0864 184.421 60.3843L174.889 84.9442L175.23 86.8895C176.3 87.6676 177.321 88.3971 178.391 89.1753V89.078Z" fill="black"/>
<path d="M176.494 79.497C179.12 83.874 179.461 89.1264 177.029 91.0717C174.646 92.9684 169.296 91.4122 165.843 87.5215C162.439 83.6794 161.904 78.962 165.357 76.2872C168.664 73.7582 174.014 75.4118 176.494 79.497Z" fill="white" stroke="black" stroke-width="1.2" stroke-miterlimit="10" stroke-linecap="round" stroke-linejoin="round"/>
<path d="M168.469 86.8894C168.421 86.1599 168.226 83.2905 170.22 80.9075C171.047 79.9348 171.971 79.3512 172.652 79.0108C170.95 77.8922 168.81 77.6977 167.302 78.8649C165.065 80.567 165.406 83.6309 167.643 86.1112C167.886 86.403 168.178 86.6462 168.469 86.8894Z" fill="black"/>
<path d="M172.311 59.3626C172.263 59.2653 172.214 59.0708 172.165 58.9249C171.922 57.4173 172.798 55.9096 174.257 55.3747C174.743 55.1801 175.229 55.0342 175.764 54.8397C176.883 54.4993 177.953 54.2075 178.877 54.0129C179.849 53.867 179.947 54.2075 180.044 54.4993C180.239 55.1315 178.78 56.2014 175.278 57.8063" fill="#B880FF"/>
<path d="M172.311 59.3626C172.263 59.2653 172.214 59.0708 172.165 58.9249C171.922 57.4173 172.798 55.9096 174.257 55.3747C174.743 55.1801 175.229 55.0342 175.764 54.8397C176.883 54.4993 177.953 54.2075 178.877 54.0129C179.849 53.867 179.947 54.2075 180.044 54.4993C180.239 55.1315 178.78 56.2014 175.278 57.8063" stroke="black" stroke-width="1.2" stroke-miterlimit="10" stroke-linecap="round" stroke-linejoin="round"/>
<path d="M211.315 113.394C211.315 113.394 221.431 101.771 225.857 91.9957C224.495 88.2995 224.981 87.4241 224.981 87.4241C224.981 87.4241 218.367 91.4607 215.984 92.3847C215.984 92.3847 219.632 81.1991 213.747 78.3783C220.361 74.0986 223.474 71.1806 225.225 69.0893C226.975 66.9981 233.298 62.9129 235.729 63.8369C234.562 67.2899 234.659 71.9587 242.733 68.2626C249.784 62.767 251.973 63.0102 251.973 63.0102C251.973 63.0102 266.758 65.0041 274.296 71.2292C271.864 73.8554 268.46 75.2658 268.217 84.8952C261.408 81.2963 259.219 81.8799 259.219 81.8799C259.219 81.8799 258.976 109.017 248.131 132.653C242.635 130.611 211.315 113.394 211.315 113.394Z" fill="white"/>
<path d="M216.179 80.3724C215.692 79.6915 214.914 78.8161 213.698 78.038C205.479 82.2691 198.039 82.6095 194.294 79.6915C190.598 76.8222 191.473 65.1015 191.181 62.6698L190.792 56.6879C190.744 56.0557 190.549 55.4235 190.16 54.9371C189.139 53.5754 188.117 52.165 187.096 50.8033C186.804 50.4142 186.221 50.5601 186.123 50.9978C186.026 51.6301 185.929 52.4082 185.977 53.235C186.075 55.8125 187.096 57.7092 187.68 58.5846C187.096 59.5087 186.415 60.7731 185.929 62.3294C185.394 63.8857 185.053 66.9496 185.005 68.0195L181.746 76.6276C184.324 98.999 204.653 96.6646 215.984 91.9958C216.179 91.6067 219.437 85.0899 216.179 80.3724Z" fill="#B880FF"/>
<path d="M213.796 78.1353C215.06 78.9134 215.692 79.6915 216.179 80.3724C219.437 85.0898 216.179 91.6067 215.936 92.0444" stroke="black" stroke-width="1.2" stroke-miterlimit="10" stroke-linecap="round" stroke-linejoin="round"/>
<path d="M224.981 87.0351C216.422 93.5034 187.047 106.78 181.698 77.4543" stroke="black" stroke-width="1.2" stroke-miterlimit="10" stroke-linecap="round" stroke-linejoin="round"/>
<path d="M184.956 68.0195C185.053 66.9496 185.394 63.8857 185.88 62.3294C186.415 60.7731 187.096 59.5087 187.631 58.5846C187.047 57.7092 186.026 55.8125 185.929 53.235C185.88 52.4082 185.977 51.6301 186.075 50.9978C186.172 50.5601 186.755 50.4142 187.047 50.8033C188.069 52.165 189.09 53.5754 190.111 54.9371C190.5 55.4235 190.695 56.0557 190.743 56.6879L191.133 62.6698C191.424 65.1502 190.549 76.8222 194.245 79.6915C199.789 83.9713 213.115 81.5396 225.565 69.2354C231.012 63.8371 236.556 63.8371 239.231 63.2048" stroke="black" stroke-width="1.2" stroke-miterlimit="10" stroke-linecap="round" stroke-linejoin="round"/>
<path d="M178.926 81.5397L180.433 82.6096C181.357 79.5943 182.281 76.4818 183.157 73.272C183.935 70.4999 184.616 67.7278 185.248 65.0529L184.372 64.1289L178.926 81.5397Z" fill="black" stroke="black" stroke-width="1.2" stroke-miterlimit="10" stroke-linecap="round" stroke-linejoin="round"/>
<path d="M171.193 62.0862C171.144 61.989 171.096 61.7944 171.047 61.6485C170.804 60.1409 171.679 58.6333 173.138 58.0983C173.625 57.9038 174.111 57.7579 174.646 57.5633C175.764 57.2229 176.834 56.9311 177.758 56.7366C178.731 56.5907 178.828 56.9311 178.926 57.2229C179.12 57.8551 177.661 58.9251 174.16 60.53" fill="#B880FF"/>
<path d="M171.193 62.0862C171.144 61.989 171.096 61.7944 171.047 61.6485C170.804 60.1409 171.679 58.6333 173.138 58.0983C173.625 57.9038 174.111 57.7579 174.646 57.5633C175.764 57.2229 176.834 56.9311 177.758 56.7366C178.731 56.5907 178.828 56.9311 178.926 57.2229C179.12 57.8551 177.661 58.9251 174.16 60.53" stroke="black" stroke-width="1.2" stroke-miterlimit="10" stroke-linecap="round" stroke-linejoin="round"/>
<path d="M169.685 65.8798C169.637 65.6852 169.345 64.9557 169.345 64.1776C169.296 63.1563 169.88 62.2323 170.804 61.7945C172.506 61.0164 174.16 60.2383 175.862 59.4601C176.202 59.3142 176.591 59.5088 176.689 59.8492C176.98 61.5514 173.527 64.0803 170.318 64.8585" fill="#B880FF"/>
<path d="M169.685 65.8798C169.637 65.6852 169.345 64.9557 169.345 64.1776C169.296 63.1563 169.88 62.2323 170.804 61.7945C172.506 61.0164 174.16 60.2383 175.862 59.4601C176.202 59.3142 176.591 59.5088 176.689 59.8492C176.98 61.5514 173.527 64.0803 170.318 64.8585" stroke="black" stroke-width="1.2" stroke-miterlimit="10" stroke-linecap="round" stroke-linejoin="round"/>
<path d="M236.653 50.9977C236.702 52.8944 236.653 54.9856 236.507 57.1741C236.313 60.1894 235.924 62.9615 235.437 65.4418C234.173 73.6608 244.337 68.8948 249.395 63.156C248.617 56.4446 247.839 49.6846 247.012 42.9731" fill="#B880FF"/>
<path d="M236.653 50.9977C236.702 52.8944 236.653 54.9856 236.507 57.1741C236.313 60.1894 235.924 62.9615 235.437 65.4418C234.173 73.6608 244.337 68.8948 249.395 63.156C248.617 56.4446 247.839 49.6846 247.012 42.9731" stroke="black" stroke-width="1.2" stroke-miterlimit="10" stroke-linecap="round" stroke-linejoin="round"/>
<path d="M237.286 50.5602C230.72 55.0831 227.802 54.2563 227.17 53.8673C223.863 51.8247 223.668 43.7515 229.067 31.6418L239.231 31.2041C239.231 31.2041 247.11 36.0188 247.012 36.262C246.915 36.5538 243.657 47.3018 243.657 47.3018L237.286 50.5602Z" fill="#B880FF"/>
<path d="M229.067 31.6418C223.62 43.7516 223.863 51.8247 227.17 53.8673C227.802 54.2564 230.671 55.0832 237.286 50.5602" stroke="black" stroke-width="1.2" stroke-miterlimit="10" stroke-linecap="round" stroke-linejoin="round"/>
<path d="M227.072 40.9795C225.808 40.785 222.112 40.5904 221.917 41.6604C221.723 42.633 224.689 43.3625 226.732 43.6057" fill="#B880FF"/>
<path d="M227.072 40.9795C225.808 40.785 222.112 40.5904 221.917 41.6604C221.723 42.633 224.689 43.3625 226.732 43.6057" stroke="black" stroke-width="1.2" stroke-miterlimit="10" stroke-linecap="round" stroke-linejoin="round"/>
<path d="M232.033 45.259C231.985 45.4049 231.352 46.9612 229.893 47.253C229.407 47.3503 228.969 47.3016 228.677 47.2044" stroke="black" stroke-width="1.2" stroke-miterlimit="10" stroke-linecap="round" stroke-linejoin="round"/>
<path d="M226.197 32.0305C227.559 31.8846 231.45 31.9333 235.584 34.9972C237.286 36.2616 238.404 37.7206 239.036 38.8392C240.739 37.9638 242.489 37.672 243.316 38.4015C244.338 39.3255 244.046 42.8271 241.517 45.4533C239.474 50.5112 246.234 52.1161 247.547 58.3898C248.034 60.6756 249.152 63.8368 247.401 69.1378C248.763 68.846 250.806 68.2624 252.8 66.852C256.447 64.2745 256.982 61.1619 259.365 58.2926C261.456 55.8123 268.314 56.7849 270.697 52.6997C270.648 52.0189 270.065 50.4626 270.454 49.1495C272.399 42.584 284.363 41.3681 285.287 35.3862C285.384 34.7054 285.433 33.5868 284.752 32.0792C282.661 32.2737 279.208 35.4835 276.971 35.1431C274.101 34.6567 274.296 31.2524 270.551 30.0366C267.195 28.9666 264.666 31.5928 260.387 31.6415C256.739 31.6901 258.49 26.8267 244.678 25.3677C240.106 24.8328 229.893 25.8541 226.197 32.0305Z" fill="black" stroke="black" stroke-width="1.2" stroke-miterlimit="10" stroke-linecap="round" stroke-linejoin="round"/>
<path d="M254.307 38.5476C254.648 42.876 270.162 45.8913 272.35 52.9431" stroke="#B880FF" stroke-width="1.2" stroke-miterlimit="10" stroke-linecap="round" stroke-linejoin="round"/>
<path d="M261.894 37.283C263.353 38.6447 271.864 40.3469 275.414 46.3288" stroke="#B880FF" stroke-width="1.2" stroke-miterlimit="10" stroke-linecap="round" stroke-linejoin="round"/>
<path d="M274.442 71.2778C273.372 72.0073 270.162 74.2931 268.751 78.5728C267.827 81.3936 268.022 83.8253 268.216 85.187C279.888 93.406 290.539 114.173 276.873 124.24C277.797 129.297 278.721 134.355 279.645 139.365C287.864 134.696 297.299 125.407 297.834 108.482C298.272 94.6705 289.421 80.3236 274.442 71.2778Z" fill="#B880FF"/>
<path d="M268.168 85.187C267.973 83.8739 267.779 81.3936 268.703 78.5728C270.162 74.2445 273.323 71.9587 274.393 71.2778" stroke="black" stroke-width="1.2" stroke-miterlimit="10" stroke-linecap="round" stroke-linejoin="round"/>
<path d="M276.825 124.24C294.235 111.4 272.204 81.2478 258.879 81.7341" stroke="black" stroke-width="1.2" stroke-miterlimit="10" stroke-linecap="round" stroke-linejoin="round"/>
<path d="M249.395 62.5725C278.916 66.6091 298.466 88.1051 297.786 108.434C297.202 125.358 287.767 134.647 279.597 139.316" stroke="black" stroke-width="1.2" stroke-miterlimit="10" stroke-linecap="round" stroke-linejoin="round"/>
<path d="M227.073 80.6643C223.328 85.0899 226.051 91.7041 226.051 91.7041C226.051 91.7041 221.139 102.744 211.85 112.616C216.13 113.006 223.96 114.221 232.276 119.036C241.857 124.629 248.714 130.903 248.034 133.383C250.903 126.526 253.87 117.869 256.009 107.704C258.052 97.8319 258.782 89.0293 258.927 81.7342" stroke="black" stroke-width="1.2" stroke-miterlimit="10" stroke-linecap="round" stroke-linejoin="round"/>
<path d="M150.281 132.216C151.399 143.644 158.305 159.791 166.67 174.138C174.062 186.831 182.135 196.947 189.43 204.777C195.364 208.327 208.3 189.311 208.3 184.983C201.686 167.572 188.312 148.751 173.479 131.292" fill="black"/>
<path d="M150.281 132.216C151.399 143.644 158.305 159.791 166.67 174.138C174.062 186.831 182.135 196.947 189.43 204.777C195.364 208.327 208.3 189.311 208.3 184.983C201.686 167.572 188.312 148.751 173.479 131.292" stroke="black" stroke-width="1.2" stroke-miterlimit="10" stroke-linecap="round" stroke-linejoin="round"/>
<path d="M193.953 187.949C198.427 182.405 201.929 175.84 202.367 169.323" stroke="#B880FF" stroke-width="1.2" stroke-miterlimit="10" stroke-linecap="round" stroke-linejoin="round"/>
<path d="M246.915 130.513C244.873 138.295 242.684 146.271 240.35 154.392C237.675 163.487 235.292 171.268 232.471 179.779C230.331 186.442 247.693 197.773 257.177 215.573C264.034 228.412 268.022 237.653 270.162 246.747C271.135 256.085 235.973 261.386 234.173 257.447C233.833 256.425 233.541 255.112 233.395 253.556C233.346 253.021 233.346 252.486 233.346 252C233.346 250.93 233.541 249.908 234.027 248.936C234.368 248.255 234.708 247.72 235.049 247.282C226.538 230.99 218.319 215.768 209.954 199.816C206.744 193.737 205.577 186.831 206.647 180.022L213.407 135.814C213.65 134.258 213.553 132.605 213.018 131.097C212.775 130.368 212.531 129.589 212.288 128.86" fill="black"/>
<path d="M246.915 130.513C244.873 138.295 242.684 146.271 240.35 154.392C237.675 163.487 235.292 171.268 232.471 179.779C230.331 186.442 247.693 197.773 257.177 215.573C264.034 228.412 268.022 237.653 270.162 246.747C271.135 256.085 235.973 261.386 234.173 257.447C233.833 256.425 233.541 255.112 233.395 253.556C233.346 253.021 233.346 252.486 233.346 252C233.346 250.93 233.541 249.908 234.027 248.936C234.368 248.255 234.708 247.72 235.049 247.282C226.538 230.99 218.319 215.768 209.954 199.816C206.744 193.737 205.577 186.831 206.647 180.022L213.407 135.814C213.65 134.258 213.553 132.605 213.018 131.097C212.775 130.368 212.531 129.589 212.288 128.86" stroke="black" stroke-width="1.2" stroke-miterlimit="10" stroke-linecap="round" stroke-linejoin="round"/>
<path d="M253.772 248.839C233.881 253.07 233.59 247.282 232.86 246.212" stroke="#B880FF" stroke-width="1.2" stroke-miterlimit="10" stroke-linecap="round" stroke-linejoin="round"/>
<path d="M226.44 182.065C226.586 182.746 227.073 184.788 228.969 186.491C229.65 187.123 230.38 187.561 231.061 187.804" stroke="#B880FF" stroke-width="1.2" stroke-miterlimit="10" stroke-linecap="round" stroke-linejoin="round"/>
<path d="M232.228 119.036C225.079 114.853 218.27 113.394 213.796 112.811C210.732 114.659 183.74 110.671 165.26 110.671C158.791 110.671 152.955 114.805 151.107 120.981C151.059 121.176 150.961 121.419 150.913 121.613C149.746 126.088 149.989 129.93 150.28 132.216C157.43 132.896 164.627 133.577 171.776 134.258C177.077 136.447 185.005 138.976 194.829 139.705C206.452 140.58 215.936 138.538 221.869 136.738C230.234 134.696 238.599 132.702 246.964 130.659C244.824 127.595 239.28 123.121 232.228 119.036Z" fill="black" stroke="black" stroke-width="1.2" stroke-miterlimit="10" stroke-linecap="round" stroke-linejoin="round"/>
<path d="M175.862 133.918C176.397 134.453 176.883 134.939 177.418 135.474C180.433 138.538 183.254 141.602 185.88 144.666" stroke="#B880FF" stroke-width="1.2" stroke-miterlimit="10" stroke-linecap="round" stroke-linejoin="round"/>
<path d="M210.683 144.86L212.094 135.96C212.337 134.404 212.24 132.75 211.705 131.243C211.461 130.513 211.218 129.735 210.975 129.006" stroke="#B880FF" stroke-width="1.2" stroke-miterlimit="10" stroke-linecap="round" stroke-linejoin="round"/>
<path d="M225.516 81.8801C225.079 82.561 224.592 83.2419 224.106 83.9227C221.723 87.0839 219.048 89.4669 216.665 91.2177C218.367 90.7314 220.507 89.9533 222.744 88.5915C223.717 88.0079 224.592 87.3757 225.322 86.7435C225.468 85.8681 225.614 84.8468 225.614 83.6796C225.614 83.0473 225.565 82.4637 225.516 81.8801Z" fill="black"/>
<path d="M255.037 81.4423C255.669 81.2964 256.447 81.1992 257.323 81.1019C258.149 81.0533 258.879 81.0533 259.511 81.1019C259.219 83.1931 258.928 85.2357 258.636 87.327C258.052 86.9865 257.128 86.3057 256.35 85.2357C255.329 83.7281 255.085 82.1718 255.037 81.4423Z" fill="black"/>
<path d="M240.155 92.5308C240.787 92.9198 242.149 93.6493 243.997 93.7952C245.894 93.9411 247.353 93.4062 248.034 93.1144" stroke="black" stroke-width="1.2" stroke-miterlimit="10" stroke-linecap="round" stroke-linejoin="round"/>
<path d="M274.393 193.105C271.086 194.466 271.086 183.573 271.086 183.573C271.086 183.573 277.7 191.743 274.393 193.105Z" fill="black" stroke="black" stroke-width="1.2" stroke-miterlimit="10" stroke-linecap="round" stroke-linejoin="round"/>
<path d="M277.7 181.481C276.241 182.405 275.414 177.104 275.414 177.104C275.414 177.104 279.256 180.508 277.7 181.481Z" fill="black" stroke="black" stroke-width="1.2" stroke-miterlimit="10" stroke-linecap="round" stroke-linejoin="round"/>
<path d="M238.745 267.952C237.723 267.028 236.313 265.86 234.514 264.839C232.714 263.818 231.012 263.186 229.699 262.748" stroke="black" stroke-width="1.2" stroke-miterlimit="10" stroke-linecap="round" stroke-linejoin="round"/>
<path d="M241.906 263.915C240.885 262.991 239.474 261.824 237.675 260.802C235.875 259.781 234.805 259.343 233.444 258.906" stroke="black" stroke-width="1.2" stroke-miterlimit="10" stroke-linecap="round" stroke-linejoin="round"/>
<path d="M170.755 38.6449C171.485 37.4291 179.12 45.4536 179.12 45.4536C179.12 45.4536 170.026 39.8608 170.755 38.6449Z" fill="black" stroke="black" stroke-width="1.2" stroke-miterlimit="10" stroke-linecap="round" stroke-linejoin="round"/>
<path d="M163.12 50.6088C162.585 48.6149 169.15 49.3444 169.15 49.3444C169.15 49.3444 163.655 52.6028 163.12 50.6088Z" fill="black" stroke="black" stroke-width="1.2" stroke-miterlimit="10" stroke-linecap="round" stroke-linejoin="round"/>
<path d="M149.502 35.6296C150.281 32.9548 172.117 46.6694 172.117 46.6694C172.117 46.6694 148.724 38.3045 149.502 35.6296Z" fill="black" stroke="black" stroke-width="1.2" stroke-miterlimit="10" stroke-linecap="round" stroke-linejoin="round"/>
<path d="M206.987 169.128L205.528 179.244C205.139 181.53 204.847 184.691 205.285 188.436C205.771 192.813 206.939 196.509 208.008 198.795" stroke="#B880FF" stroke-width="1.2" stroke-miterlimit="10" stroke-linecap="round" stroke-linejoin="round"/>
<path d="M169.637 66.9009L146.195 51.3869L141.77 52.7486L137.393 61.2108L113.125 48.6147L109.234 49.8306L100.091 98.1236L166.621 72.6883L169.637 66.9009ZM106.754 90.5368L113.903 55.618L139.873 69.0894L145.612 58.001L162.001 68.8462L106.754 90.5368Z" fill="black"/>
<path d="M167.691 19.2023L144.741 12.9644L143.236 18.5022L166.186 24.7402L167.691 19.2023Z" fill="black" stroke="black" stroke-width="1.2" stroke-miterlimit="10" stroke-linecap="round" stroke-linejoin="round"/>
<path d="M115.069 115.694L92.1194 109.456L90.6141 114.994L113.563 121.232L115.069 115.694Z" fill="black" stroke="black" stroke-width="1.2" stroke-miterlimit="10" stroke-linecap="round" stroke-linejoin="round"/>
<path d="M168.858 68.9922C161.418 74.2932 154.998 76.9194 150.426 78.2812C147.265 79.2538 146.098 79.2538 143.958 80.5669C137.344 84.5062 136.323 91.4122 132.092 91.4608C130.195 91.4608 130.098 90.0991 128.395 90.0505C122.268 89.9532 119.009 107.461 115.653 106.78C114.097 106.489 114.632 95.8378 112.541 95.4488C112.298 95.4001 111.714 95.4001 111.033 95.0597C110.109 94.622 110.158 94.087 109.623 93.9898C108.504 93.698 107.678 96.0324 106.121 96.081C105.635 96.1296 104.516 95.9837 103.495 94.6706L168.858 68.9922Z" fill="black" stroke="black" stroke-width="1.2" stroke-miterlimit="10" stroke-linecap="round" stroke-linejoin="round"/>
</svg>
