<svg width="368" height="298" viewBox="0 0 368 298" fill="none" xmlns="http://www.w3.org/2000/svg">
<path d="M293.227 86.167C283.544 54.3482 264.372 23.8804 238.363 2.74308C237.375 1.94232 236.02 1.78005 234.863 2.2986L192.98 21.2171C155.57 14.2889 118.164 12.8002 82.0906 26.0887C80.8347 26.5508 79.9811 27.7255 79.9105 29.0589C79.3849 39.2995 77.1978 81.9339 77.1978 81.9339C52.2472 108.267 32.7431 141.402 28.0267 177.338C27.868 178.579 28.4254 179.803 29.4484 180.519L74.3757 211.83C84.0625 243.653 103.235 274.12 129.24 295.258C130.228 296.058 131.583 296.221 132.736 295.699L174.623 276.784C212.029 283.708 249.436 285.197 285.512 271.912C286.765 271.45 287.625 270.268 287.696 268.935L290.402 216.07C315.356 189.73 334.856 156.595 339.573 120.663C339.735 119.425 339.178 118.197 338.155 117.481L293.224 86.1705L293.227 86.167Z" fill="#C7FA73"/>
<mask id="mask0_5415_581" style="mask-type:alpha" maskUnits="userSpaceOnUse" x="28" y="2" width="312" height="294">
<path d="M293.227 86.167C283.544 54.3482 264.372 23.8804 238.363 2.74308C237.375 1.94232 236.02 1.78005 234.863 2.2986L192.98 21.2171C155.57 14.2889 118.164 12.8002 82.0906 26.0887C80.8347 26.5508 79.9811 27.7255 79.9105 29.0589C79.3849 39.2995 77.1978 81.9339 77.1978 81.9339C52.2472 108.267 32.7431 141.402 28.0267 177.338C27.868 178.579 28.4254 179.803 29.4484 180.519L74.3757 211.83C84.0625 243.653 103.235 274.12 129.24 295.258C130.228 296.058 131.583 296.221 132.736 295.699L174.623 276.784C212.029 283.708 249.436 285.197 285.512 271.912C286.765 271.45 287.625 270.268 287.696 268.935L290.402 216.07C315.356 189.73 334.856 156.595 339.573 120.663C339.735 119.425 339.178 118.197 338.155 117.481L293.224 86.1705L293.227 86.167Z" fill="#FF788F"/>
</mask>
<g mask="url(#mask0_5415_581)">
<path d="M173.279 100.376C173.187 100.655 173.095 100.933 173 101.209C161.691 134.283 141.181 159.128 137.132 163.83C136.676 164.363 136.43 164.635 136.43 164.635L88.6695 168.303C88.6695 168.303 80.094 162.994 65.4086 148.457C50.7303 133.927 42.2571 121.048 42.2571 121.048L72.2769 81.4048L77.2225 21.1007L167.282 -1.04907C167.282 -1.04907 185.311 63.4211 173.279 100.376Z" fill="white"/>
<path d="M49.4286 98.2878C64.7842 140.876 92.2782 165.774 92.2782 165.774L83.9743 170.974L34.8068 115.848L49.4286 98.2878Z" fill="#C7FA73"/>
<path d="M173.279 100.376C173.187 100.655 173.095 100.933 173 101.209C161.691 134.283 141.181 159.128 137.132 163.83C136.676 164.363 136.43 164.635 136.43 164.635L88.6695 168.303C88.6695 168.303 80.094 162.994 65.4086 148.457C50.7303 133.927 42.2571 121.048 42.2571 121.048L72.2769 81.4048L77.2225 21.1007L167.282 -1.04907C167.282 -1.04907 185.311 63.4211 173.279 100.376Z" stroke="black" stroke-width="1.2" stroke-linecap="round" stroke-linejoin="round"/>
<path d="M65.4122 90.4778C65.4122 90.4778 66.721 97.1908 79.7801 125.295C92.8427 153.399 100.311 164.638 100.311 164.638L117.211 163.763C117.211 163.763 121.568 108.433 117.211 70.8679C112.855 33.3062 107.373 9.72778 107.373 9.72778L72.5521 14.938L71.1798 75.5314L65.4087 90.4778H65.4122Z" fill="#C7FA73" stroke="black" stroke-width="1.2" stroke-linecap="round" stroke-linejoin="round"/>
<path d="M173.279 100.376C173.187 100.655 173.095 100.934 173 101.209C161.691 134.284 141.181 159.128 137.132 163.831L129.671 163.76C144.945 143.981 162.911 73.9724 162.911 73.9724L173.279 100.373V100.376Z" fill="#C7FA73"/>
<path d="M135.809 162.871C155.768 134.619 161.112 103.773 161.112 103.773L165.118 120.794L159.024 132.475L152.929 142.124L144.804 154.312L136.678 163.961L135.809 162.871Z" fill="white"/>
<path d="M173.279 100.376C173.187 100.655 173.095 100.934 173 101.209C161.691 134.284 141.181 159.128 137.132 163.831L129.671 163.76C144.945 143.981 162.911 73.9724 162.911 73.9724L173.279 100.373V100.376Z" stroke="black" stroke-width="1.2" stroke-linecap="round" stroke-linejoin="round"/>
<path d="M76.8625 159.096C81.8435 152.902 103.15 147.554 119.645 148.461C142.469 149.716 144.289 154.891 144.289 154.891C141.65 158.475 138.243 162.624 135.428 165.615L89.7312 168.928C85.4875 166.113 81.653 163.146 76.8661 159.096H76.8625Z" fill="#C7FA73"/>
<path d="M142.179 152.987C139.505 156.712 135.138 162.984 135.138 162.984L136.609 163.982L143.992 154.433L142.179 152.987V152.987Z" fill="white"/>
<path d="M76.8625 159.096C81.8435 152.902 103.15 147.554 119.645 148.461C142.469 149.716 144.215 154.891 144.215 154.891C141.576 158.475 138.243 162.624 135.428 165.615L89.7312 168.928C85.4875 166.113 81.653 163.146 76.8661 159.096H76.8625Z" stroke="black" stroke-width="1.2" stroke-linecap="round" stroke-linejoin="round"/>
<path d="M173 204.214C173 204.214 182.066 267.294 184.888 278.54C188.165 291.6 253.965 285.606 253.969 282.354C253.969 282.354 255.066 277.785 257.556 251.597C259.758 228.431 261.052 204.218 261.052 204.218H173.004L173 204.214Z" fill="#C7FA73"/>
<path d="M254.367 207.484C257.041 227.574 251.81 283.479 251.81 283.479L254.836 282.244L261.055 204.214L254.371 207.481L254.367 207.484Z" fill="white"/>
<path d="M173 204.214C173 204.214 182.066 267.294 184.888 278.54C188.165 291.6 253.965 285.606 253.969 282.354C253.969 282.354 255.066 277.785 257.556 251.597C259.758 228.431 261.052 204.218 261.052 204.218H173.004L173 204.214Z" stroke="black" stroke-width="1.2" stroke-linecap="round" stroke-linejoin="round"/>
<path d="M303.683 77.8172C294.656 94.9507 279.836 110.945 275.24 115.707C274.348 116.635 273.843 117.136 273.843 117.136L152.991 117.34C152.991 117.34 119.797 93.903 83.9742 14.0243L236.606 -2.61182C236.606 -2.61182 265.239 19.4356 285.375 41.356L285.382 41.3666C298.452 55.5899 307.927 69.7602 303.687 77.8137L303.683 77.8172Z" fill="white"/>
<path d="M102.755 5.59703C135.202 85.6733 155.616 111.506 155.616 111.506L151.914 116.223C151.914 116.223 132.616 100.48 115.857 73.5646C98.1272 42.857 79.4094 11.2764 79.4094 11.2764L102.759 5.59351L102.755 5.59703Z" fill="#C7FA73"/>
<path d="M303.683 77.8172C294.656 94.9507 279.836 110.945 275.24 115.707C274.348 116.635 273.843 117.136 273.843 117.136L152.991 117.34C152.991 117.34 119.797 93.903 83.9742 14.0243L236.606 -2.61182C236.606 -2.61182 265.239 19.4356 285.375 41.356L285.382 41.3666C298.452 55.5899 307.927 69.7602 303.687 77.8137L303.683 77.8172Z" stroke="black" stroke-width="1.2" stroke-linecap="round" stroke-linejoin="round"/>
<path d="M261.959 204.408C261.948 205.872 261.602 212.031 261.292 215.778C246.197 225.196 191.883 226.029 173.434 216.317C173.434 216.317 172.443 205.586 172.273 204.405C172.273 204.405 172.859 203.632 172.855 203.59C173.91 202.835 174.213 202.398 176.394 201.586C176.394 201.586 244.07 202.338 259.666 202.902C261.729 202.976 261.959 204.398 261.959 204.408V204.408Z" fill="#C7FA73" stroke="black" stroke-width="1.2" stroke-linecap="round" stroke-linejoin="round"/>
<path d="M144.949 7.37836C144.949 7.37836 147.679 20.695 158.371 52.2246C169.063 83.7542 179.113 105.752 179.113 105.752L207.923 110.077L226.926 104.059C226.926 104.059 226.937 58.8035 226.926 32.7558C226.916 6.70812 226.93 -1.56055 226.93 -1.56055L144.949 7.37483V7.37836Z" fill="#C7FA73" stroke="black" stroke-width="1.2" stroke-linecap="round" stroke-linejoin="round"/>
<path d="M303.683 77.8173C294.656 94.9508 278.443 112.374 273.847 117.136L274.545 115.379L263.43 108.705C263.43 108.705 279.008 72.7905 285.283 41.2644L285.375 41.3561L285.382 41.3667C298.452 55.5899 307.927 69.7603 303.687 77.8137L303.683 77.8173Z" fill="#C7FA73"/>
<path d="M296.903 48.3689C295.986 79.8068 274.073 112.409 274.073 112.409L276.335 114.7L289.031 99.9725L301.728 83.2137L307.521 61.2763L296.903 48.3724V48.3689Z" fill="white"/>
<path d="M303.683 77.8173C294.656 94.9508 278.443 112.374 273.847 117.136L274.545 115.379L263.43 108.705C263.43 108.705 279.008 72.7905 285.283 41.2644L285.375 41.3561L285.382 41.3667C298.452 55.5899 307.927 69.7603 303.687 77.8137L303.683 77.8173Z" stroke="black" stroke-width="1.2" stroke-linecap="round" stroke-linejoin="round"/>
<path d="M133.505 97.5787C133.505 97.5787 149.658 81.6164 207.951 80.9356C275.667 80.1454 291.668 96.4358 291.668 96.4358C286.602 102.821 278.267 112.896 273.85 117.136L152.999 117.34C145.591 111.389 137.431 102.57 133.509 97.5787H133.505Z" fill="#C7FA73"/>
<path d="M285.135 92.3014C277.237 107.364 272.584 112.581 272.584 112.581L274.446 116.606C274.446 116.606 281.117 109.855 287.389 101.727L291.571 96.4176L285.135 92.2979V92.3014Z" fill="white"/>
<path d="M133.505 97.5787C133.505 97.5787 149.658 81.6164 207.951 80.9356C275.667 80.1454 291.571 96.4358 291.571 96.4358C286.505 102.821 278.267 112.896 273.85 117.136L152.999 117.34C145.591 111.389 137.431 102.57 133.509 97.5787H133.505Z" stroke="black" stroke-width="1.2" stroke-linecap="round" stroke-linejoin="round"/>
<path d="M274.545 115.379L261.052 204.214" stroke="black" stroke-width="1.2" stroke-linecap="round" stroke-linejoin="round"/>
<path d="M195.573 126.544L199.274 197.981" stroke="black" stroke-width="1.2" stroke-linecap="round" stroke-linejoin="round"/>
<path d="M249.139 124.791L241.615 198.56" stroke="black" stroke-width="1.2" stroke-linecap="round" stroke-linejoin="round"/>
<path d="M213.334 126.985C247.14 126.985 274.545 121.789 274.545 115.379C274.545 108.969 247.14 103.773 213.334 103.773C179.529 103.773 152.124 108.969 152.124 115.379C152.124 121.789 179.529 126.985 213.334 126.985Z" fill="#C7FA73" stroke="black" stroke-width="1.2" stroke-linecap="round" stroke-linejoin="round"/>
<path d="M179.223 245.861V245.854" stroke="black" stroke-width="1.2" stroke-linecap="round" stroke-linejoin="round"/>
<path d="M261.052 204.214C261.052 204.214 261.045 204.271 261.042 204.369C260.71 206.655 253.062 208.677 241.562 209.869C234.549 210.599 226.108 211.022 217.024 211.022C213.296 211.022 209.687 210.955 206.23 210.818C204.854 210.768 203.507 210.701 202.187 210.624L201.073 210.564C195.668 210.239 190.776 209.753 186.652 209.146C178.651 207.964 173.515 206.32 173.042 204.496V204.479C173.025 204.373 173.014 204.302 173.011 204.257C173.004 204.228 173.004 204.211 173.004 204.211C173.004 203.283 174.214 202.394 176.394 201.583C179.53 200.422 184.68 199.424 191.171 198.701C198.427 197.882 207.369 197.399 217.028 197.399C226.686 197.399 235.033 197.85 242.162 198.619L242.776 198.687C253.852 199.925 261.059 201.939 261.059 204.214H261.052Z" fill="black" stroke="black" stroke-width="1.2" stroke-linecap="round" stroke-linejoin="round"/>
<path d="M234.045 148.461C237.29 157.647 227.921 161.164 227.921 161.164L207.923 187.941C207.923 187.941 203.701 188.947 198.219 187.028C192.737 185.109 191.64 182.001 191.64 182.001C191.64 182.001 197.489 182.731 199.683 178.893C201.877 175.055 197.005 166.536 204.526 155.738C210.742 146.813 222.531 148.997 226.552 151.477C230.108 153.667 234.045 148.461 234.045 148.461Z" fill="black" stroke="black" stroke-width="1.2" stroke-linecap="round" stroke-linejoin="round"/>
<path d="M251.566 128.082C249.503 122.381 248.37 119.09 249.743 118.815C251.355 118.494 254.583 126.593 254.583 126.593" fill="#C7FA73"/>
<path d="M251.566 128.082C249.503 122.381 248.37 119.09 249.743 118.815C251.355 118.494 254.583 126.593 254.583 126.593" stroke="black" stroke-width="1.2" stroke-linecap="round" stroke-linejoin="round"/>
<path d="M254.699 129.465C254.699 129.465 248.857 124.872 247.672 126.152C246.483 127.433 254.886 136.125 256.346 148.461C257.81 160.8 253.33 166.705 243.185 174.646L251.626 190.344C251.626 190.344 272.587 176.84 270.785 152.302C269.278 131.74 259.92 116.797 258.583 117.34C257.154 117.922 260.047 125.203 260.047 125.203" fill="#C7FA73"/>
<path d="M258.583 117.337C261.599 125.291 263.839 130.181 266.122 141.79C268.404 153.399 267.949 163.086 265.663 169.986C263.377 176.886 255.934 186.915 255.934 186.915C255.934 186.915 270.203 173.418 270.63 159.798C271.057 146.178 266.929 130.216 263.426 124.314C259.924 118.413 258.58 117.34 258.58 117.34L258.583 117.337Z" fill="white"/>
<path d="M254.699 129.465C254.699 129.465 248.857 124.872 247.672 126.152C246.483 127.433 254.886 136.125 256.346 148.461C257.81 160.8 253.33 166.705 243.185 174.646L251.626 190.344C251.626 190.344 272.587 176.84 270.785 152.302C269.278 131.74 259.92 116.797 258.583 117.34C257.154 117.922 260.047 125.203 260.047 125.203" stroke="black" stroke-width="1.2" stroke-linecap="round" stroke-linejoin="round"/>
<path d="M254.41 127.123C252.346 121.422 250.77 117.136 252.138 116.861C253.75 116.54 257.313 126.216 257.313 126.216" fill="#C7FA73"/>
<path d="M251.5 118.353C253.479 118.508 255.691 126.66 255.691 126.66L257.225 126.258C257.225 126.258 254.424 118.621 253.147 117.298C251.867 115.975 251.5 118.353 251.5 118.353V118.353Z" fill="white"/>
<path d="M254.41 127.123C252.346 121.422 250.77 117.136 252.138 116.861C253.75 116.54 257.313 126.216 257.313 126.216" stroke="black" stroke-width="1.2" stroke-linecap="round" stroke-linejoin="round"/>
<path d="M257.288 126.403C255.225 120.702 253.888 116.892 255.257 116.617C256.869 116.296 260.192 125.5 260.192 125.5" fill="#C7FA73"/>
<path d="M254.699 117.665C256.678 117.82 258.89 125.972 258.89 125.972L260.424 125.57C260.424 125.57 257.623 117.933 256.346 116.61C255.066 115.287 254.699 117.665 254.699 117.665V117.665Z" fill="white"/>
<path d="M257.288 126.403C255.225 120.702 253.888 116.892 255.257 116.617C256.869 116.296 260.192 125.5 260.192 125.5" stroke="black" stroke-width="1.2" stroke-linecap="round" stroke-linejoin="round"/>
<path d="M253.098 127.796C257.073 126.219 261.599 125.295 261.599 125.295Z" fill="#C7FA73"/>
<path d="M253.098 127.796C257.073 126.219 261.599 125.295 261.599 125.295" stroke="black" stroke-width="1.2" stroke-linecap="round" stroke-linejoin="round"/>
<path d="M202.97 208.5L202.187 210.627C196.335 210.306 191.058 209.795 186.648 209.146C187.615 205.495 189.354 201.837 189.354 201.837L202.97 208.5V208.5Z" fill="#C7FA73" stroke="black" stroke-width="1.2" stroke-linecap="round" stroke-linejoin="round"/>
<path d="M251.623 190.344L243.005 196.492L242.769 198.687L241.562 209.873C234.549 210.603 226.108 211.026 217.024 211.026C213.299 211.026 209.683 210.956 206.233 210.822L205.052 207.068L202.191 210.628L201.073 210.564C201.073 210.564 197.855 207.209 188.857 202.951C188.857 202.951 189.59 201.339 191.167 198.704C193.855 194.207 197.153 189.617 202.745 185.892C213.627 178.639 223.628 178.534 229.247 178.392C237.954 178.174 243.185 174.65 243.185 174.65C243.185 174.65 246.324 175.39 249.401 180.837C252.755 186.781 251.623 190.347 251.623 190.347V190.344Z" fill="white" stroke="black" stroke-width="1.2" stroke-linecap="round" stroke-linejoin="round"/>
<path d="M112.673 170.477C126.072 169.547 136.784 166.639 136.6 163.983C136.416 161.326 125.404 159.926 112.005 160.856C98.6063 161.785 87.8939 164.693 88.0782 167.35C88.2626 170.007 99.2741 171.407 112.673 170.477Z" fill="black" stroke="black" stroke-width="1.2" stroke-linecap="round" stroke-linejoin="round"/>
<path d="M211.426 169.986C211.426 169.986 211.288 181.433 211.288 181.708C211.288 181.983 212.657 186.217 218.143 186.368C224.108 186.534 224.108 181.571 224.108 181.571L223.353 175.881" fill="#C7FA73"/>
<path d="M211.426 169.986C211.426 169.986 211.288 181.433 211.288 181.708C211.288 181.983 212.657 186.217 218.143 186.368C224.108 186.534 224.108 181.571 224.108 181.571L223.353 175.881" stroke="black" stroke-width="1.2" stroke-linecap="round" stroke-linejoin="round"/>
<path d="M211.789 171.492C211.789 171.492 206.696 168.819 208.202 166.49C209.708 164.159 211.356 166.903 211.493 166.49C211.631 166.078 211.063 161.792 214.851 157.513C217.663 154.338 223.078 153.057 226.161 156.416C230.867 161.541 230.958 175.334 225.201 177.733C219.444 180.132 215.948 175.196 215.948 175.196" fill="#C7FA73"/>
<path d="M218.767 154.909C223.039 154.602 226.366 158.913 226.983 163.763C227.6 168.614 227.396 171.972 226.299 174.646C225.201 177.32 222.439 178.498 222.439 178.498C222.439 178.498 229.223 178.622 229.473 169.986C229.724 161.351 228.267 157.742 225.431 155.742C222.595 153.742 218.767 154.913 218.767 154.913V154.909Z" fill="white"/>
<path d="M211.789 171.492C211.789 171.492 206.696 168.819 208.202 166.49C209.708 164.159 211.356 166.903 211.493 166.49C211.631 166.078 211.063 161.792 214.851 157.513C217.663 154.338 223.078 153.057 226.161 156.416C230.867 161.541 230.958 175.334 225.201 177.733C219.444 180.132 215.948 175.196 215.948 175.196" stroke="black" stroke-width="1.2" stroke-linecap="round" stroke-linejoin="round"/>
<path d="M222.026 164.638C222.665 163.449 223.684 161.393 224.813 161.989C225.914 162.567 224.813 165.644 224.813 165.644" fill="#C7FA73"/>
<path d="M222.026 164.638C222.665 163.449 223.684 161.393 224.813 161.989C225.914 162.567 224.813 165.644 224.813 165.644" stroke="black" stroke-width="1.2" stroke-linecap="round" stroke-linejoin="round"/>
<path d="M218.46 165.644C215.903 166.409 217.546 171.951 220.104 171.217C222.661 170.487 222.344 169.277 221.702 168.466C221.063 167.654 219.487 165.333 218.457 165.644H218.46Z" fill="black"/>
<path d="M216.195 175.503C217.765 178.657 219.067 179.786 220.541 180.576C222.016 181.366 223.91 180.1 223.91 180.1L223.663 178.219C223.663 178.219 222.46 178.773 220.573 178.392C218.686 178.011 216.192 175.507 216.192 175.507L216.195 175.503Z" fill="black" stroke="black" stroke-width="1.2" stroke-linecap="round" stroke-linejoin="round"/>
<path d="M152.124 115.379L173 204.214" stroke="black" stroke-width="1.2" stroke-linecap="round" stroke-linejoin="round"/>
<path d="M237.953 210.13L246.628 105.636" stroke="black" stroke-width="1.2" stroke-linecap="round" stroke-linejoin="round"/>
<path d="M187.058 104.892L194.811 210.13" stroke="black" stroke-width="1.2" stroke-linecap="round" stroke-linejoin="round"/>
<path d="M164.315 108.426L164.46 108.673C166.954 114.458 170.559 120.028 173.554 124.201C173.554 124.201 187.502 125.856 198.194 126.406C208.886 126.956 222.94 126.547 222.94 126.547C222.7 118.78 222.33 111.171 222.393 103.9C222.393 103.9 196.832 104.069 185.382 105.054C173.931 106.038 164.315 108.43 164.315 108.43V108.426Z" fill="black"/>
<path d="M265.74 109.379C263.723 114.741 261.052 120.004 261.052 120.004L262.407 122.318C262.407 122.318 271.974 119.99 273.847 117.136C275.72 114.282 272.841 111.714 270.488 111.217C268.136 110.719 265.74 109.379 265.74 109.379V109.379Z" fill="black"/>
<path d="M188.613 125.997L187.058 104.182" stroke="#C7FA73" stroke-width="1.2" stroke-linecap="round" stroke-linejoin="round"/>
<path d="M88.6696 168.303L105.422 200.055" stroke="black" stroke-width="1.2" stroke-linecap="round" stroke-linejoin="round"/>
<path d="M102.939 161.837L112.054 200.891" stroke="black" stroke-width="1.2" stroke-linecap="round" stroke-linejoin="round"/>
<path d="M136.429 164.638L127.244 199.928" stroke="black" stroke-width="1.2" stroke-linecap="round" stroke-linejoin="round"/>
<path d="M119.148 169.852L119.645 199.995" stroke="black" stroke-width="1.2" stroke-linecap="round" stroke-linejoin="round"/>
<path d="M105.069 170.974L102.667 160.571" stroke="#C7FA73" stroke-width="1.2" stroke-linecap="round" stroke-linejoin="round"/>
<path d="M175.709 222.688C176.132 225.528 200.173 226.724 209.475 225.881C218.781 225.034 231.738 222.646 231.738 222.646C231.738 222.646 197.386 223.545 187.057 220.67C176.729 217.799 175.088 217.115 175.088 217.115L175.709 222.688V222.688Z" fill="black"/>
</g>
<path d="M293.227 86.167C283.544 54.3482 264.372 23.8804 238.363 2.74308C237.375 1.94232 236.02 1.78005 234.863 2.2986L192.98 21.2171C155.57 14.2889 118.164 12.8002 82.0906 26.0887C80.8347 26.5508 79.9811 27.7255 79.9105 29.0589C79.3849 39.2995 77.1978 81.9339 77.1978 81.9339C52.2472 108.267 32.7431 141.402 28.0267 177.338C27.868 178.579 28.4254 179.803 29.4484 180.519L74.3757 211.83C84.0625 243.653 103.235 274.12 129.24 295.258C130.228 296.058 131.583 296.221 132.736 295.699L174.623 276.784C212.029 283.708 249.436 285.197 285.512 271.912C286.765 271.45 287.625 270.268 287.696 268.935L290.402 216.07C315.356 189.73 334.856 156.595 339.573 120.663C339.735 119.425 339.178 118.197 338.155 117.481L293.224 86.1705L293.227 86.167Z" stroke="white" stroke-width="2" stroke-linecap="round" stroke-linejoin="round"/>
<path d="M179.223 245.854L176.633 245.586L175.067 245.423C174.707 247.582 174.573 238.4 174.926 240.591L177.279 240.506L178.39 240.464C178.341 240.136 178.288 239.804 178.238 239.476C178.217 239.352 178.2 239.222 178.178 239.098C177.932 237.476 177.685 235.867 177.441 234.273C177.378 233.849 177.311 233.43 177.254 233.01L172.69 232.495L172.683 232.502C172.443 232.484 172.192 232.474 171.942 232.491C170.192 232.604 168.629 233.507 167.405 234.982C166.604 235.938 165.955 237.141 165.483 238.527C165.38 238.837 165.285 239.162 165.197 239.494C164.855 240.802 164.664 242.242 164.664 243.772C164.664 247 165.497 249.716 166.887 251.53C167.398 252.207 167.987 252.754 168.643 253.156C169.176 253.487 169.751 253.724 170.358 253.854C170.626 253.914 170.901 253.946 171.183 253.96V253.967L179.173 254.757V252.486L180.133 251.695C180.041 251.138 179.956 250.574 179.865 250.009C179.66 248.725 179.463 247.42 179.251 246.115C179.24 246.03 179.23 245.942 179.212 245.857" fill="black"/>
<path d="M179.223 245.854L176.633 245.586L175.067 245.423C174.707 247.582 174.573 238.4 174.926 240.591L177.279 240.506L178.39 240.464C178.341 240.136 178.288 239.804 178.238 239.476C178.217 239.352 178.2 239.222 178.178 239.098C177.932 237.476 177.685 235.867 177.441 234.273C177.378 233.849 177.311 233.43 177.254 233.01L172.69 232.495L172.683 232.502C172.443 232.484 172.192 232.474 171.942 232.491C170.192 232.604 168.629 233.507 167.405 234.982C166.604 235.938 165.955 237.141 165.483 238.527C165.38 238.837 165.285 239.162 165.197 239.494C164.855 240.802 164.664 242.242 164.664 243.772C164.664 247 165.497 249.716 166.887 251.53C167.398 252.207 167.987 252.754 168.643 253.156C169.176 253.487 169.751 253.724 170.358 253.854C170.626 253.914 170.901 253.946 171.183 253.96V253.967L179.173 254.757V252.486L180.133 251.695C180.041 251.138 179.956 250.574 179.865 250.009C179.66 248.725 179.463 247.42 179.251 246.115C179.24 246.03 179.23 245.942 179.212 245.857" stroke="black" stroke-width="1.2" stroke-linecap="round" stroke-linejoin="round"/>
<path d="M179.261 246.118C179.251 246.034 179.24 245.946 179.223 245.861Z" fill="#C7FA73"/>
<path d="M179.261 246.118C179.251 246.034 179.24 245.946 179.223 245.861" stroke="black" stroke-width="1.2" stroke-linecap="round" stroke-linejoin="round"/>
<path d="M179.223 245.861C179.24 245.946 179.251 246.034 179.262 246.118L178.503 246.037L176.644 245.706L175.067 245.427L176.634 245.589L179.223 245.857V245.864V245.861Z" fill="black" stroke="black" stroke-width="1.2" stroke-linecap="round" stroke-linejoin="round"/>
<path d="M178.39 240.464C178.418 240.637 178.443 240.806 178.464 240.975L177.138 240.834L174.926 240.594L177.745 239.645L178.239 239.479C178.288 239.808 178.341 240.139 178.39 240.467V240.464Z" fill="black" stroke="black" stroke-width="1.2" stroke-linecap="round" stroke-linejoin="round"/>
<path d="M179.872 250.009C178.157 250.052 176.94 248.454 176.644 245.702C176.637 245.663 176.634 245.621 176.634 245.586C176.595 245.198 176.574 244.785 176.574 244.355C176.574 242.979 176.778 241.786 177.138 240.834C177.18 240.721 177.223 240.615 177.279 240.506C177.413 240.185 177.575 239.899 177.745 239.642C177.886 239.444 178.03 239.261 178.179 239.098C177.932 237.476 177.685 235.867 177.441 234.273C174.774 235.941 172.997 239.846 172.997 244.609C172.997 250.327 175.568 254.429 179.177 254.736C179.456 254.764 179.741 254.764 180.031 254.743C180.225 254.726 180.419 254.704 180.606 254.669C180.454 253.692 180.295 252.697 180.14 251.699C180.048 251.142 179.964 250.577 179.872 250.013V250.009Z" fill="white" stroke="black" stroke-width="1.2" stroke-linecap="round" stroke-linejoin="round"/>
<path d="M161.07 253.981L166.894 255.339L168.587 255.209L169.092 238.739C169.092 237.631 162.841 239.271 162.664 238.379C161.938 234.696 158.957 233.257 156.537 233.412C154.96 233.511 153.521 234.474 152.388 236.209L152.191 234.146L148.931 234.354V255.219L157.563 256.055L159.116 254.443L161.073 253.985L161.07 253.981Z" fill="black" stroke="black" stroke-width="1.2" stroke-linecap="round" stroke-linejoin="round"/>
<path d="M156.519 234.107L157.433 233.447L165.642 234.371L161.08 238.739L160.386 237.991L156.519 234.107Z" fill="black" stroke="black" stroke-width="1.2" stroke-linecap="round" stroke-linejoin="round"/>
<path d="M157.56 235.289L160.738 235.088L160.932 237.144C162.033 235.419 163.437 234.463 164.975 234.364C167.906 234.178 170.362 236.985 170.362 242.658V255.075L166.894 255.339V243.72C166.894 240.672 165.744 239.18 164.125 239.289C162.668 239.384 161.07 240.651 161.07 244.125V255.788L157.56 256.056V235.292V235.289Z" fill="white" stroke="black" stroke-width="1.2" stroke-linecap="round" stroke-linejoin="round"/>
<path d="M148.928 234.354L152.191 234.146L160.738 235.084L157.56 235.288L153.464 238.192L148.928 234.354Z" fill="black" stroke="black" stroke-width="1.2" stroke-linecap="round" stroke-linejoin="round"/>
<path d="M154.343 250.193L151.055 249.434L142.278 248.542C142.381 247.293 145.619 246.591 145.619 246.591C145.732 245.79 152.3 245.953 152.3 245.205C152.3 242.915 152.882 242.869 152.134 241.307L148.445 235.483L139.88 234.573C139.488 234.52 139.082 234.502 138.666 234.53C134.285 234.809 131.188 239.712 131.188 246.104C131.188 251.995 133.724 256.207 138.006 256.38L146.836 257.237V254.909L154.343 250.196V250.193Z" fill="black" stroke="black" stroke-width="1.2" stroke-linecap="round" stroke-linejoin="round"/>
<path d="M140.236 246.986C140.236 240.619 143.255 235.737 147.531 235.465C151.641 235.204 154.484 239.095 154.484 245.116C154.484 245.864 154.427 246.697 154.318 247.494L143.908 248.235C144.247 251.47 145.679 252.785 147.7 252.637C149.549 252.5 150.61 251.216 151.058 249.434L154.346 250.193C153.51 254.408 151.087 256.962 147.704 257.223C143.037 257.583 140.243 253.23 140.243 246.99L140.236 246.986ZM144.017 244.171L150.776 243.709C150.469 241.106 149.323 239.726 147.531 239.843C145.905 239.949 144.525 241.377 144.017 244.171V244.171Z" fill="white" stroke="black" stroke-width="1.2" stroke-linecap="round" stroke-linejoin="round"/>
<path d="M134.736 257.53C136.299 255.6 134.934 254.606 134.934 251.41L133.904 236.791L128.126 235.617L124.81 235.828L124.781 236.1L121.116 235.719C120.778 235.663 120.432 235.645 120.076 235.666C116.022 235.924 112.953 240.693 112.953 246.965C112.953 253.237 116.022 257.537 120.076 257.227C121.804 257.096 123.321 256.01 124.429 254.327V256.98C124.429 258.211 124.206 259.252 123.78 260.063C123.169 261.223 118.986 260.063 117.345 258.916L113.514 260.271C113.998 263.957 116.082 266.702 119.621 266.924V266.935L128.552 267.852L134.733 262.68V257.534L134.736 257.53Z" fill="black" stroke="black" stroke-width="1.2" stroke-linecap="round" stroke-linejoin="round"/>
<path d="M129.272 236.622C131.018 236.513 132.563 237.423 133.674 239.12L133.904 236.791L137.149 236.583V257.273C137.149 262.98 134.532 267.478 129.932 267.855C125.797 268.197 123.374 265.263 122.855 261.199L126.602 259.851C126.947 262.021 128.065 263.114 129.932 262.966C132.249 262.783 133.533 260.913 133.533 257.929V255.279C132.45 256.959 130.962 258.042 129.272 258.172C125.307 258.475 122.305 254.129 122.305 247.907C122.305 241.638 125.307 236.876 129.272 236.622ZM129.843 253.237C132.048 253.075 133.53 250.609 133.53 247.12C133.53 243.586 132.045 241.37 129.843 241.518C127.607 241.667 126.139 244.086 126.139 247.639C126.139 251.145 127.607 253.403 129.843 253.241V253.237Z" fill="white" stroke="black" stroke-width="1.2" stroke-linecap="round" stroke-linejoin="round"/>
<path d="M113.518 260.271L117.349 258.917L126.602 259.855L122.855 261.202L113.518 260.271Z" fill="black" stroke="black" stroke-width="1.2" stroke-linecap="round" stroke-linejoin="round"/>
<path d="M124.813 235.828L128.126 235.617L137.149 236.587L133.904 236.791L124.813 235.828Z" fill="white" stroke="black" stroke-width="1.2" stroke-linecap="round" stroke-linejoin="round"/>
<path d="M115.867 248.549L110.248 248.147L114.46 246.041L112.795 227.532L103.32 226.47L98.8042 226.727L90.1263 259.576L99.9436 260.458L102.752 256.574L104.865 248.87L105.059 248.856L107.51 258.246L116.876 259.16L118.721 257.527L115.86 248.545L115.867 248.549Z" fill="black" stroke="black" stroke-width="1.2" stroke-linecap="round" stroke-linejoin="round"/>
<path d="M108.399 227.782L112.798 227.531L121.12 258.839L116.883 259.163L114.495 249.815L106.519 250.38L104.099 260.141L99.9507 260.458L108.403 227.782H108.399ZM113.179 244.711L110.516 234.357L107.842 245.074L113.179 244.714V244.711Z" fill="white" stroke="black" stroke-width="1.2" stroke-linecap="round" stroke-linejoin="round"/>
<path d="M80.027 257.047C79.1169 255.318 77.8787 253.315 77.8787 250.302C77.8787 248.059 81.618 245.014 80.8772 243.346L84.9304 239.54L75.0531 238.52C74.6369 238.467 74.2065 238.453 73.7656 238.481C68.961 238.785 65.4158 243.871 65.4158 250.44C65.4158 256.67 68.5624 261.065 72.9436 261.245L82.8138 262.141L81.8261 257.403L80.0306 257.047H80.027Z" fill="black" stroke="black" stroke-width="1.2" stroke-linecap="round" stroke-linejoin="round"/>
<path d="M80.0269 257.047C81.2897 254.98 82.0305 252.288 82.0305 249.276C82.0305 247.032 81.6143 245.015 80.8735 243.346L84.9267 239.54C84.9267 239.54 89.6078 247.597 89.6078 254.165C89.6078 260.395 82.8101 262.141 82.8101 262.141L81.8224 257.404L80.0269 257.047V257.047Z" fill="black" stroke="black" stroke-width="1.2" stroke-linecap="round" stroke-linejoin="round"/>
<path d="M91.922 250.246C91.922 256.758 88.5249 261.763 83.8791 262.12C79.205 262.479 75.7585 257.954 75.7585 251.378C75.7585 244.845 79.205 239.794 83.8791 239.497C88.5284 239.201 91.922 243.776 91.922 250.246ZM79.78 251.096C79.78 254.874 81.4203 257.273 83.8755 257.093C86.3237 256.913 87.9217 254.288 87.9217 250.524C87.9217 246.806 86.3237 244.404 83.8755 244.566C81.4203 244.729 79.78 247.357 79.78 251.092V251.096Z" fill="white" stroke="black" stroke-width="1.2" stroke-linecap="round" stroke-linejoin="round"/>
<path d="M69.5253 263.146L68.7034 259.855L66.5798 244.327L64.1881 243.737V239.501L58.6885 239.85V234.83L57.5774 234.897L51.6193 243.568V245.205L54.653 245.004V255.636C54.653 259.626 56.3568 262.042 59.2142 262.236V262.243L69.5288 263.143L69.5253 263.146Z" fill="black" stroke="black" stroke-width="1.2" stroke-linecap="round" stroke-linejoin="round"/>
<path d="M58.6886 239.85L64.1881 239.501L74.471 240.577L69.1303 240.915L58.6886 239.85Z" fill="black" stroke="black" stroke-width="1.2" stroke-linecap="round" stroke-linejoin="round"/>
<path d="M68.0507 235.998L69.1302 235.931V240.916L74.4745 240.577V245.413L69.1302 245.77V254.994C69.1302 257.266 69.9309 258.081 71.3138 257.982C71.9911 257.933 72.6331 257.622 73.4021 257.132L74.2593 261.601C73.0952 262.519 71.7759 263.055 70.453 263.157C67.1865 263.408 65.2075 260.931 65.2075 256.592V246.034L62.262 246.232V244.609L68.0507 236.005V235.998Z" fill="white" stroke="black" stroke-width="1.2" stroke-linecap="round" stroke-linejoin="round"/>
<path d="M57.5774 234.901L58.6886 234.834L69.1302 235.931L68.0508 235.998L57.5774 234.901Z" fill="black" stroke="black" stroke-width="1.2" stroke-linecap="round" stroke-linejoin="round"/>
<path d="M51.6194 243.572L62.2621 244.598V246.225L51.6194 245.209V243.572Z" fill="black" stroke="black" stroke-width="1.2" stroke-linecap="round" stroke-linejoin="round"/>
<path d="M51.6194 243.571L62.2621 244.598L68.0509 235.998L57.5775 234.901L51.6194 243.571Z" fill="black" stroke="black" stroke-width="1.2" stroke-linecap="round" stroke-linejoin="round"/>
<path d="M161.285 217.841L163.2 215.047L165.518 200.08L160.378 198.827L156.734 198.94L156.466 200.08L149.608 199.155L145.71 199.275L151.64 219.697L149.277 229.069L158.212 230.121L161.733 229.898L161.285 217.841Z" fill="black" stroke="black" stroke-width="1.2" stroke-linecap="round" stroke-linejoin="round"/>
<path d="M158.533 200.295L162.294 214.095L165.518 200.08L169.088 199.97L161.729 229.898L158.209 230.12L160.523 220.776L154.713 200.411L158.53 200.295H158.533Z" fill="white" stroke="black" stroke-width="1.2" stroke-linecap="round" stroke-linejoin="round"/>
<path d="M154.717 200.411L145.711 199.275L149.609 199.156L158.533 200.295L154.717 200.411Z" fill="black" stroke="black" stroke-width="1.2" stroke-linecap="round" stroke-linejoin="round"/>
<path d="M156.734 198.94L160.378 198.827L169.091 199.97L165.518 200.08L156.734 198.94Z" fill="black" stroke="black" stroke-width="1.2" stroke-linecap="round" stroke-linejoin="round"/>
<path d="M145.711 204.549L142.973 207.527L150.649 208.497L151.707 207.061L148.748 204.214L145.711 204.549Z" fill="black" stroke="black" stroke-width="1.2" stroke-linecap="round" stroke-linejoin="round"/>
<path d="M148.758 219.206L151.468 214.659L150.787 213.411L145.28 213.001L141.788 212.282C141.425 214.476 143.125 205.735 143.125 205.735C142.963 204.648 144.786 204.165 144.416 203.283L148.462 200.21L139.259 198.99C139.047 198.972 138.828 198.965 138.606 198.972C134.324 199.103 131.149 203.9 131.149 210.296C131.149 216.095 133.766 220.339 137.456 220.864L146.314 221.909L146.116 219.503L143.65 217.686C143.763 217.513 143.873 217.333 143.975 217.15L148.758 219.206V219.206Z" fill="black" stroke="black" stroke-width="1.2" stroke-linecap="round" stroke-linejoin="round"/>
<path d="M147.679 200.165C151.034 200.062 153.492 202.983 154.148 207.407L150.653 208.5C150.296 206.264 149.196 205.008 147.654 205.061C145.58 205.135 144.081 207.495 144.081 211.277C144.081 215.058 145.495 217.256 147.601 217.154C149.337 217.069 150.437 215.598 150.794 213.414L154.208 214.134C153.718 218.438 151.094 221.817 147.63 222.004C143.47 222.226 140.398 217.753 140.398 211.432C140.398 205.11 143.499 200.295 147.686 200.168L147.679 200.165Z" fill="white" stroke="black" stroke-width="1.2" stroke-linecap="round" stroke-linejoin="round"/>
<path d="M132.507 200.634L123.642 199.445V199.455C123.353 199.409 123.063 199.381 122.764 199.388C121.123 199.438 119.624 200.383 118.446 202.14L118.238 199.995L114.83 200.101V221.725L124.337 222.819L124.802 220.476V221.199L134.066 222.307L134.867 204.849C134.867 203.519 128.344 205.653 128.101 204.623L132.5 200.641L132.507 200.634Z" fill="black" stroke="black" stroke-width="1.2" stroke-linecap="round" stroke-linejoin="round"/>
<path d="M124.34 201.339L127.663 201.237L127.864 203.368C129.014 201.625 130.475 200.683 132.076 200.634C135.121 200.542 137.664 203.509 137.664 209.343V222.11L134.069 222.3V210.335C134.069 207.195 132.874 205.625 131.191 205.685C129.674 205.738 128.009 206.994 128.009 210.581V222.625L124.34 222.819V201.339Z" fill="white" stroke="black" stroke-width="1.2" stroke-linecap="round" stroke-linejoin="round"/>
<path d="M117.508 215.795L107.958 214.659C107.754 215.442 107.013 213.597 109.556 212.497C112.996 211.005 119.998 211.855 119.631 208.962L114.76 201.23L105.422 200.055C105.256 200.027 105.09 200.006 104.921 199.992H104.907C104.66 199.97 104.406 199.963 104.152 199.97C99.5133 200.112 96.2256 205.131 96.2256 211.809C96.2256 217.82 98.7937 222.208 103.129 222.678L112.604 223.743L113.581 221.767L118.033 219.788C118.725 218.727 117.197 217.301 117.508 215.795Z" fill="black" stroke="black" stroke-width="1.2" stroke-linecap="round" stroke-linejoin="round"/>
<path d="M111.5 215.538L107.958 214.659L117.508 215.795L120.965 216.674L111.5 215.538Z" fill="black" stroke="black" stroke-width="1.2" stroke-linecap="round" stroke-linejoin="round"/>
<path d="M106.046 212.952C106.046 206.31 109.256 201.322 113.786 201.184C118.315 201.046 121.109 205.181 121.109 211.418C121.109 212.19 121.049 213.054 120.933 213.876L109.944 214.356C110.304 217.732 111.825 219.139 113.962 219.034C115.913 218.938 117.035 217.633 117.504 215.795L120.961 216.67C120.083 221.016 117.532 223.609 113.959 223.799C109.017 224.064 106.043 219.46 106.043 212.952H106.046ZM110.064 210.13L117.211 209.851C116.887 207.142 115.68 205.671 113.786 205.738C112.064 205.798 110.604 207.241 110.068 210.13H110.064Z" fill="white" stroke="black" stroke-width="1.2" stroke-linecap="round" stroke-linejoin="round"/>
<path d="M100.311 206.355L99.2875 202.105L90.5144 200.993V201.24C90.5144 201.24 85.5088 200.485 84.2776 200.63C83.5756 200.711 82.8948 200.799 82.2528 201.057C78.9369 202.397 76.6157 206.736 76.6157 212.26C76.6157 218.518 79.5154 222.776 83.7062 223.21L88.8988 223.81C88.6836 226.484 87.3184 228.117 84.9973 228.251C82.9548 228.371 81.7237 227.2 81.3462 224.917L77.2225 226.254C77.7375 230.11 79.9563 233.013 83.6991 233.348L83.7062 233.359L93.5376 234.495V232.216L98.8854 230.978C100.279 229.355 100.307 221.016 100.307 221.016V206.355H100.311Z" fill="black" stroke="black" stroke-width="1.2" stroke-linecap="round" stroke-linejoin="round"/>
<path d="M90.5143 200.993L92.8707 200.856L102.755 201.999L99.2874 202.104L90.5143 200.993Z" fill="black" stroke="black" stroke-width="1.2" stroke-linecap="round" stroke-linejoin="round"/>
<path d="M94.3137 201.769C96.1903 201.713 97.8483 202.722 99.0406 204.531L99.284 202.104L102.752 201.999V223.609C102.752 229.57 99.9543 234.22 95.0192 234.53C90.5638 234.812 87.9464 231.683 87.3819 227.401L91.4316 226.067C91.802 228.353 93.012 229.524 95.0192 229.408C97.5061 229.263 98.8854 227.334 98.8854 224.212V221.439C97.7213 223.171 96.1268 224.268 94.3101 224.367C90.0347 224.593 86.7893 219.954 86.7893 213.403C86.7893 206.853 90.0347 201.9 94.3101 201.773L94.3137 201.769ZM94.931 219.206C97.298 219.093 98.8889 216.553 98.8889 212.899C98.8889 209.244 97.298 206.838 94.931 206.92C92.5216 207.004 90.9413 209.502 90.9413 213.227C90.9413 216.952 92.5216 219.319 94.931 219.203V219.206Z" fill="white" stroke="black" stroke-width="1.2" stroke-linecap="round" stroke-linejoin="round"/>
<path d="M91.4386 226.071L81.3462 224.921L77.2224 226.258L84.8138 230.015L87.3889 227.404L91.4386 226.071Z" fill="black" stroke="black" stroke-width="1.2" stroke-linecap="round" stroke-linejoin="round"/>
<path d="M61.1719 190.287L65.8001 190.174L76.4499 191.596L71.6312 191.688L61.1719 190.287Z" fill="black" stroke="black" stroke-width="1.2" stroke-linecap="round" stroke-linejoin="round"/>
<path d="M61.1719 190.287L71.6312 191.688L75.9736 197.067L82.6655 225.023L80.9052 225.115L70.7034 223.983L68.0119 213.915L62.3148 226.099L51.6227 224.903L61.1754 190.28L61.1719 190.287Z" fill="black" stroke="black" stroke-width="1.2" stroke-linecap="round" stroke-linejoin="round"/>
<path d="M71.6312 191.688L76.4499 191.592L85.5122 224.872L80.9087 225.115L78.3019 215.188L69.564 215.562L66.9007 225.856L62.3184 226.099L71.6347 191.684L71.6312 191.688ZM76.8661 209.763L73.9523 198.725L71.0209 209.982L76.8697 209.763H76.8661Z" fill="white" stroke="black" stroke-width="1.2" stroke-linecap="round" stroke-linejoin="round"/>
<path d="M119.187 202.793L114.83 200.101L118.238 199.995L127.663 201.237L124.34 201.339L119.187 202.793Z" fill="black" stroke="black" stroke-width="1.2" stroke-linecap="round" stroke-linejoin="round"/>
<path d="M178.676 242.312C177.642 243.085 176.411 243.487 175.088 243.487C171.465 243.487 168.534 240.478 168.534 235.211C168.534 230.495 173.79 219.425 174.891 217.16C175.928 224.177 177.282 233.246 178.679 242.312H178.676Z" fill="#C7FA73" stroke="black" stroke-width="1.2" stroke-linecap="round" stroke-linejoin="round"/>
<path d="M266.745 235.211C266.745 240.478 263.814 243.487 260.191 243.487C259.535 243.487 258.904 243.388 258.307 243.194C259.147 233.444 259.814 224.057 260.279 216.935C261.063 218.529 266.745 230.308 266.745 235.211V235.211Z" fill="#C7FA73"/>
<path d="M262.452 221.63C267.8 240.224 260.191 243.487 260.191 243.487C260.191 243.487 264.389 243.575 265.952 239.472C267.515 235.37 266.336 231.775 265.486 229.369C264.636 226.967 262.452 221.626 262.452 221.626V221.63Z" fill="white"/>
<path d="M266.745 235.211C266.745 240.478 263.814 243.487 260.191 243.487C259.535 243.487 258.904 243.388 258.307 243.194C259.147 233.444 259.814 224.057 260.279 216.935C261.063 218.529 266.745 230.308 266.745 235.211V235.211Z" stroke="black" stroke-width="1.2" stroke-linecap="round" stroke-linejoin="round"/>
<path d="M174.926 217.118C174.926 217.118 172.421 234.22 182.595 234.784C191.823 235.296 195.569 222.819 195.569 222.819C195.569 222.819 198.758 238.739 217.176 238.739C235.593 238.739 238.186 222.547 238.186 222.547C238.186 222.547 244.945 236.523 254.695 234.516C264.742 232.445 260.318 216.314 260.318 216.314" stroke="black" stroke-width="1.2" stroke-linecap="round" stroke-linejoin="round"/>
<path d="M202.127 240.703C202.127 235.437 195.569 222.24 195.569 222.24C195.569 222.24 189.012 235.433 189.012 240.703C189.012 245.974 191.947 248.979 195.569 248.979C199.192 248.979 202.127 245.97 202.127 240.703Z" fill="#C7FA73" stroke="black" stroke-width="1.2" stroke-linecap="round" stroke-linejoin="round"/>
<path d="M244.853 240.703C244.853 235.437 238.295 222.24 238.295 222.24C238.295 222.24 231.738 235.433 231.738 240.703C231.738 245.974 234.673 248.979 238.295 248.979C241.918 248.979 244.853 245.97 244.853 240.703Z" fill="#C7FA73" stroke="black" stroke-width="1.2" stroke-linecap="round" stroke-linejoin="round"/>
<path d="M177.445 234.273C177.568 238.686 176.478 241.222 173.603 241.927C170.728 242.633 169.695 240.224 169.695 240.224C169.695 240.224 171.222 243.063 173.907 243.374C176.591 243.684 178.672 242.308 178.672 242.308L177.441 234.269L177.445 234.273Z" fill="black"/>
<path d="M193.463 227.528C186.648 246.933 197.756 248.08 197.756 248.08C197.756 248.08 191.174 250.602 189.22 242.997C187.742 237.243 193.463 227.528 193.463 227.528Z" fill="black"/>
<path d="M237.28 224.367C231.685 243.487 235.516 246.365 238.296 247.494C240.55 248.411 243.181 246.496 243.181 246.496C243.181 246.496 240.271 251.096 235.258 248.168C230.246 245.24 231.508 238.866 233.05 234.707C234.588 230.548 237.28 224.367 237.28 224.367Z" fill="black"/>
<path d="M300.73 146.739L269.825 135.317C268.922 134.982 267.92 135.444 267.589 136.347L260.844 154.599C260.509 155.502 260.971 156.503 261.874 156.835L272.189 160.648L275.522 167.919L282.461 164.448L292.776 168.261C293.679 168.596 294.681 168.134 295.012 167.231L301.757 148.979C302.092 148.076 301.63 147.074 300.727 146.743L300.73 146.739Z" fill="white" stroke="#C7FA73" stroke-width="1.2" stroke-linecap="round" stroke-linejoin="round"/>
<path d="M290.726 152.51C291.023 152.267 291.337 152.094 291.689 151.995C293.45 151.498 295.157 153.043 294.822 154.835C294.695 155.516 294.338 156.07 293.834 156.535C293.256 157.068 292.571 157.442 291.869 157.788C290.878 158.278 289.837 158.641 288.811 159.037C288.652 159.096 288.497 159.156 288.324 159.22C288.193 158.991 288.063 158.761 287.929 158.536C287.375 157.576 286.814 156.624 286.373 155.604C286.063 154.888 285.784 154.158 285.738 153.368C285.682 152.419 285.943 151.586 286.712 150.976C288.133 149.844 290.257 150.581 290.684 152.348C290.694 152.394 290.705 152.44 290.723 152.514L290.726 152.51Z" fill="#C7FA73"/>
<path d="M269.924 152.514C269.399 152.324 268.965 152.055 268.622 151.713C268.28 151.371 268.051 150.987 267.935 150.556C267.818 150.129 267.832 149.692 267.984 149.247L269.55 149.815C269.458 150.119 269.497 150.401 269.663 150.669C269.829 150.937 270.069 151.128 270.386 151.244C270.64 151.336 270.884 151.36 271.12 151.318C271.356 151.276 271.564 151.174 271.751 151.011C271.935 150.849 272.076 150.637 272.171 150.373C272.27 150.105 272.298 149.847 272.259 149.604C272.221 149.36 272.122 149.142 271.963 148.958C271.804 148.771 271.6 148.63 271.346 148.535C271.124 148.454 270.887 148.422 270.644 148.436C270.4 148.45 270.192 148.517 270.016 148.634L268.672 147.858L270.492 143.963L275.159 145.653L274.679 146.972L271.342 145.762L270.453 147.604L270.499 147.621C270.7 147.48 270.961 147.399 271.279 147.371C271.596 147.346 271.921 147.392 272.256 147.515C272.714 147.681 273.085 147.939 273.367 148.284C273.649 148.63 273.826 149.032 273.9 149.484C273.974 149.935 273.917 150.408 273.737 150.895C273.554 151.41 273.268 151.823 272.884 152.137C272.499 152.447 272.051 152.641 271.54 152.712C271.028 152.782 270.489 152.719 269.924 152.51V152.514Z" fill="#C7FA73"/>
<path d="M276.75 146.231L278.74 146.954L278.983 152.846L279.071 152.877L283.033 148.51L285.022 149.23L282.257 156.863L280.69 156.296L282.489 151.325L282.426 151.3L278.662 155.516L277.597 155.128L277.413 149.463L277.35 149.441L275.544 154.429L273.977 153.861L276.743 146.228L276.75 146.231Z" fill="#C7FA73"/>
<path d="M179.473 164.419L150.409 170.508C149.559 170.684 149.016 171.517 149.196 172.367L152.794 189.532C152.97 190.382 153.803 190.926 154.653 190.746L164.354 188.714L170.382 192.665L174.016 186.689L183.717 184.657C184.567 184.481 185.11 183.648 184.93 182.798L181.332 165.633C181.156 164.783 180.323 164.24 179.473 164.419V164.419Z" fill="white" stroke="#C7FA73" stroke-width="1.2" stroke-linecap="round" stroke-linejoin="round"/>
<path d="M174.601 173.619C174.711 173.291 174.869 173.009 175.088 172.766C176.192 171.542 178.238 171.905 178.841 173.432C179.071 174.015 179.064 174.607 178.901 175.203C178.714 175.888 178.372 176.501 178.002 177.098C177.48 177.944 176.859 178.724 176.263 179.514C176.171 179.634 176.079 179.757 175.981 179.888C175.769 179.775 175.561 179.666 175.353 179.553C174.471 179.087 173.585 178.629 172.76 178.061C172.178 177.662 171.617 177.239 171.204 176.66C170.707 175.962 170.506 175.203 170.802 174.367C171.345 172.822 173.321 172.367 174.492 173.51C174.524 173.538 174.552 173.57 174.601 173.616V173.619Z" fill="#C7FA73"/>
<path d="M158.724 183.588C158.23 183.694 157.771 183.698 157.344 183.602C156.921 183.504 156.561 183.32 156.265 183.048C155.969 182.777 155.775 182.438 155.676 182.029L157.143 181.711C157.221 181.987 157.383 182.184 157.637 182.311C157.891 182.438 158.166 182.466 158.466 182.403C158.702 182.35 158.904 182.255 159.062 182.107C159.221 181.962 159.334 181.782 159.397 181.57C159.461 181.359 159.464 181.129 159.412 180.882C159.359 180.632 159.256 180.42 159.108 180.255C158.96 180.085 158.784 179.969 158.572 179.902C158.364 179.835 158.138 179.828 157.898 179.877C157.69 179.923 157.496 180.011 157.316 180.138C157.14 180.265 157.009 180.417 156.932 180.59L155.535 180.639L155.058 176.794L159.433 175.849L159.701 177.083L156.575 177.761L156.776 179.591L156.819 179.581C156.907 179.376 157.066 179.189 157.291 179.016C157.521 178.844 157.792 178.724 158.106 178.657C158.537 178.565 158.942 178.583 159.323 178.71C159.704 178.84 160.032 179.059 160.304 179.369C160.576 179.68 160.759 180.064 160.858 180.523C160.964 181.002 160.946 181.457 160.801 181.877C160.657 182.301 160.406 182.66 160.054 182.96C159.697 183.26 159.256 183.468 158.724 183.581V183.588Z" fill="#C7FA73"/>
<path d="M160.925 175.521L162.791 175.119L165.8 179.5L165.885 179.482L166.816 174.251L168.682 173.849L170.227 181.003L168.76 181.32L167.754 176.664L167.694 176.678L166.841 181.701L165.842 181.916L162.989 177.676L162.929 177.69L163.937 182.364L162.47 182.682L160.925 175.528V175.521Z" fill="#C7FA73"/>
</svg>
