<?xml version="1.0" encoding="UTF-8"?><svg id="a" xmlns="http://www.w3.org/2000/svg" xmlns:xlink="http://www.w3.org/1999/xlink" viewBox="0 0 730.49 600"><defs><style>.au{fill:url(#u);}.av{fill:url(#t);}.aw{fill:url(#v);}.ax{fill:url(#e);}.ay{fill:url(#d);}.b`{fill:url(#g);}.ba{fill:url(#f);}.bb{fill:url(#p);}.bc{fill:url(#o);}.bd{fill:url(#s);}.be{fill:url(#q);}.bf{fill:url(#r);}.bg{fill:url(#i);}.bh{fill:url(#h);}.bi{fill:url(#k);}.bj{fill:url(#j);}.bk{fill:url(#m);}.bl{fill:url(#l);}.bm{fill:url(#n);}.bn{fill:url(#c);}.bo{fill:url(#x);}.bp{fill:url(#w);}.bq{fill:url(#y);}.br{fill:url(#aa);}.bs{fill:url(#ag);}.bt{fill:url(#ab);}.bu{fill:url(#ah);}.bv{fill:url(#ai);}.bw{fill:url(#ad);}.bx{fill:url(#ao);}.by{fill:url(#aj);}.c`{fill:url(#ae);}.ca{fill:url(#ap);}.cb{fill:url(#af);}.cc{fill:url(#a`);}.cd{fill:url(#as);}.ce{fill:url(#aq);}.cf{fill:url(#ar);}.cg{fill:url(#al);}.ch{fill:url(#am);}.ci{fill:url(#ac);}.cj{fill:url(#an);}.ck{fill:url(#at);}.cl{fill:url(#ak);}.cm{fill:none;}.cn{fill:#ed0331;}.co,.cp{fill:#fff;}.cq{fill:#ffdb66;}.cr{fill:#eefff7;}.cs{fill:#fd4d70;}.ct{fill:#91b3fa;}.cu{fill:#9fdebe;}.cv{fill:#85a9ef;}.cw{fill:#bdd0fb;}.cx{fill:#cfeedf;}.cy{fill:#dce5fe;}.d`{fill:#cc926e;}.da{fill:#6fcd9e;}.db{fill:#56f;}.dc{fill:#3470e4;}.dd{opacity:.54;}.de{clip-path:url(#b);}.df{fill:#1647a5;opacity:.48;}.cp{opacity:.5;}</style><clipPath id="b"><rect class="cm" x="12.86" y="-3.7" width="700.15" height="613.67"/></clipPath><linearGradient id="c" x1="326.09" y1="520.3" x2="331.74" y2="520.3" gradientTransform="matrix(1, 0, 0, 1, 0, 0)" gradientUnits="userSpaceOnUse"><stop offset="0" stop-color="#cb236d"/><stop offset="1" stop-color="#4c246d"/></linearGradient><linearGradient id="d" x1="327.55" y1="518.75" x2="344.28" y2="518.75" gradientTransform="matrix(1, 0, 0, 1, 0, 0)" gradientUnits="userSpaceOnUse"><stop offset="0" stop-color="#09005d"/><stop offset="1" stop-color="#1a0f91"/></linearGradient><linearGradient id="e" x1="389.41" y1="470.47" x2="400.12" y2="470.47" gradientTransform="matrix(1, 0, 0, 1, 0, 0)" gradientUnits="userSpaceOnUse"><stop offset="0" stop-color="#53d8ff"/><stop offset="1" stop-color="#3840f7"/></linearGradient><linearGradient id="f" x1="391.02" y1="469.72" x2="411.9" y2="469.72" xlink:href="#d"/><linearGradient id="g" x1="337" y1="501.63" x2="352.16" y2="501.63" gradientTransform="matrix(1, 0, 0, 1, 0, 0)" gradientUnits="userSpaceOnUse"><stop offset="0" stop-color="#ff928e"/><stop offset="1" stop-color="#feb3b1"/></linearGradient><linearGradient id="h" x1="404.64" y1="454.1" x2="419.94" y2="454.1" xlink:href="#g"/><linearGradient id="i" x1="488.49" y1="351.33" x2="389.51" y2="447.06" xlink:href="#d"/><linearGradient id="j" x1="436.61" y1="418.48" x2="420.65" y2="432.28" xlink:href="#d"/><linearGradient id="k" x1="418.03" y1="419.38" x2="409.47" y2="431.64" xlink:href="#d"/><linearGradient id="l" x1="348.99" y1="452.03" x2="413.45" y2="452.03" gradientTransform="matrix(1, 0, 0, 1, 0, 0)" gradientUnits="userSpaceOnUse"><stop offset="0" stop-color="#a22b25"/><stop offset="1" stop-color="#c0423c"/></linearGradient><linearGradient id="m" x1="350.52" y1="451.48" x2="411.21" y2="451.48" gradientTransform="matrix(1, 0, 0, 1, 0, 0)" gradientUnits="userSpaceOnUse"><stop offset="0" stop-color="#fe7062"/><stop offset="1" stop-color="#ff928e"/></linearGradient><linearGradient id="n" x1="740.82" y1="-549.24" x2="740.46" y2="-557.95" gradientTransform="translate(-521.05 628.76) rotate(23.84)" gradientUnits="userSpaceOnUse"><stop offset="0" stop-color="#4042e2"/><stop offset="1" stop-color="#4f52ff"/></linearGradient><linearGradient id="o" x1="740.37" y1="-562.32" x2="742.16" y2="-537.36" xlink:href="#n"/><linearGradient id="p" x1="765.08" y1="-550.24" x2="764.72" y2="-558.95" xlink:href="#n"/><linearGradient id="q" x1="764.56" y1="-564.06" x2="766.36" y2="-539.1" xlink:href="#n"/><linearGradient id="r" x1="754.6" y1="-576.21" x2="752.17" y2="-558.44" gradientTransform="translate(-521.05 628.76) rotate(23.84)" xlink:href="#l"/><linearGradient id="s" x1="354.97" y1="436.18" x2="418.27" y2="436.18" xlink:href="#l"/><linearGradient id="t" x1="358.09" y1="436.37" x2="416.4" y2="436.37" xlink:href="#m"/><linearGradient id="u" x1="755.97" y1="-552.13" x2="752.47" y2="-524.39" gradientTransform="translate(-521.05 628.76) rotate(23.84)" xlink:href="#m"/><linearGradient id="v" x1="385.96" y1="441.61" x2="371.49" y2="467.91" xlink:href="#m"/><linearGradient id="w" x1="505.15" y1="273.9" x2="551.4" y2="273.9" xlink:href="#g"/><linearGradient id="x" x1="386.76" y1="405.18" x2="418.78" y2="405.18" xlink:href="#g"/><linearGradient id="y" x1="357.47" y1="373.57" x2="375.96" y2="373.57" gradientTransform="matrix(1, 0, 0, 1, 0, 0)" gradientUnits="userSpaceOnUse"><stop offset="0" stop-color="#e1473d"/><stop offset="1" stop-color="#e9605a"/></linearGradient><linearGradient id="a`" x1="526.08" y1="-894.39" x2="545.14" y2="-913.94" gradientTransform="translate(-295.05 1041.35) rotate(15.65)" xlink:href="#g"/><linearGradient id="aa" x1="-974.87" y1="957.97" x2="-999" y2="989.89" gradientTransform="translate(440.43 -1075.34) rotate(-46.73)" xlink:href="#g"/><linearGradient id="ab" x1="-1010.21" y1="983.24" x2="-990.86" y2="963.39" gradientTransform="translate(440.43 -1075.34) rotate(-46.73)" xlink:href="#g"/><linearGradient id="ac" x1="543.73" y1="258.87" x2="549.68" y2="258.87" xlink:href="#g"/><linearGradient id="ad" x1="164.38" y1="592.42" x2="202.17" y2="592.42" xlink:href="#d"/><linearGradient id="ae" x1="193.5" y1="519.76" x2="183.17" y2="591.09" xlink:href="#d"/><linearGradient id="af" x1="166.27" y1="581.03" x2="176.49" y2="581.03" xlink:href="#g"/><linearGradient id="ag" x1="223.65" y1="584.93" x2="254.15" y2="584.93" xlink:href="#d"/><linearGradient id="ah" x1="244.63" y1="527.16" x2="234.31" y2="598.49" xlink:href="#d"/><linearGradient id="ai" x1="109.74" y1="534.9" x2="190.67" y2="534.9" xlink:href="#d"/><linearGradient id="aj" x1="214.69" y1="581.89" x2="226.9" y2="581.89" xlink:href="#g"/><linearGradient id="ak" x1="183.25" y1="501.18" x2="94.41" y2="601.92" xlink:href="#d"/><linearGradient id="al" x1="137.44" y1="401.28" x2="167.86" y2="401.28" xlink:href="#g"/><linearGradient id="am" x1="198.31" y1="468.91" x2="226.5" y2="468.91" xlink:href="#g"/><linearGradient id="an" x1="-203.09" y1="2246.27" x2="-230.53" y2="2282.57" gradientTransform="translate(56.02 -1870.57) rotate(-8.21)" xlink:href="#g"/><linearGradient id="ao" x1="-243.27" y1="2275.01" x2="-221.27" y2="2252.44" gradientTransform="translate(56.02 -1870.57) rotate(-8.21)" xlink:href="#g"/><linearGradient id="ap" x1="255.31" y1="366.24" x2="230.45" y2="435.67" xlink:href="#d"/><linearGradient id="aq" x1="-4771.92" y1="-4731.65" x2="-4847.32" y2="-4658.75" gradientTransform="translate(5945.33 -11249.23) rotate(-62.23) scale(1.39 -1.39)" xlink:href="#d"/><linearGradient id="ar" x1="218.34" y1="474.08" x2="207.96" y2="550.82" gradientTransform="matrix(1, 0, 0, 1, 0, 0)" gradientUnits="userSpaceOnUse"><stop offset="0" stop-color="#020039"/><stop offset="1" stop-color="#090056"/></linearGradient><linearGradient id="as" x1="-6772.31" y1="-1009.06" x2="-6691.94" y2="-1015.59" gradientTransform="translate(-6390.25 -884.34) rotate(-162.09) scale(1 -1)" gradientUnits="userSpaceOnUse"><stop offset="0" stop-color="#4f52ff"/><stop offset="1" stop-color="#4042e2"/></linearGradient><linearGradient id="at" x1="-6770.57" y1="-987.68" x2="-6690.2" y2="-994.22" xlink:href="#as"/></defs><g class="de"><g><path class="cx" d="M448.04,186.08c-7.9,14.97,15.01,40.34,60.57,90.79,53.62,59.38,121.28,134.3,164.5,116.61,31.81-13.02,46.09-74.47,31.39-118.99-35.03-106.06-237.36-124.59-256.45-88.41Z"/><path class="cx" d="M697.63,526c-3.25,46.42-212.8,70.72-374.76,65.04-134.81-4.73-203.2-8.17-250.99-61.13C11.5,463.02,2.18,344.94,56.38,266.87c73.62-106.04,231.45-89.93,315.74-58.06,9.44,3.57,17.04,6.96,24.39,11.36,130.96,78.48,131.43,161.02,266.81,269.52,23.64,18.95,35.09,25.2,34.31,36.31Z"/><path class="da" d="M278.06,417.19c-.14,.05-.3,.04-.45-.02l-1.5-.65c-.33-.14-.48-.53-.34-.86,.14-.33,.53-.48,.86-.34l1.5,.64c.33,.14,.48,.52,.34,.86-.08,.18-.23,.31-.4,.36Zm-5.68-2.48c-.15,.05-.31,.04-.46-.03-.6-.27-1.19-.53-1.79-.8-.33-.15-.47-.53-.33-.86,.15-.33,.53-.47,.86-.33,.59,.27,1.19,.54,1.78,.8,.33,.15,.48,.53,.33,.86-.08,.18-.23,.3-.4,.36Zm-5.93-2.71c-.15,.05-.32,.04-.47-.03-.59-.28-1.18-.56-1.77-.84-.33-.15-.46-.54-.31-.87,.15-.32,.54-.46,.87-.31,.59,.28,1.18,.56,1.77,.83,.33,.15,.47,.54,.31,.87-.08,.17-.23,.29-.4,.35Zm-5.88-2.82c-.15,.05-.33,.04-.48-.04-.59-.29-1.17-.58-1.76-.87-.32-.16-.45-.55-.29-.87,.16-.32,.55-.45,.87-.29,.58,.29,1.17,.58,1.75,.87,.32,.16,.46,.55,.3,.87-.08,.17-.23,.28-.39,.33Zm-5.82-2.93c-.16,.05-.34,.04-.49-.04-.58-.3-1.16-.6-1.74-.91-.32-.17-.44-.56-.27-.88,.17-.32,.56-.44,.88-.27,.58,.3,1.15,.6,1.73,.9,.32,.17,.44,.56,.28,.88-.08,.16-.22,.27-.38,.32Zm-5.75-3.06c-.16,.05-.35,.04-.51-.05-.57-.31-1.14-.63-1.72-.94-.31-.17-.43-.57-.25-.89,.17-.31,.57-.43,.89-.25,.57,.32,1.14,.63,1.71,.94,.32,.17,.43,.57,.26,.88-.08,.15-.22,.26-.38,.31Zm-5.68-3.19c-.17,.05-.36,.04-.52-.06-.57-.33-1.13-.66-1.69-.99-.31-.18-.41-.58-.23-.89,.18-.31,.58-.41,.89-.23,.56,.33,1.12,.66,1.68,.98,.31,.18,.42,.58,.24,.89-.08,.15-.22,.25-.37,.3Zm-5.59-3.33c-.17,.05-.37,.04-.54-.07-.56-.34-1.11-.69-1.66-1.03-.3-.19-.4-.59-.21-.9,.19-.31,.59-.4,.9-.21,.55,.34,1.1,.69,1.65,1.03,.31,.19,.4,.59,.21,.9-.09,.14-.22,.23-.36,.28Zm-5.49-3.49c-.18,.06-.38,.04-.55-.08-.55-.36-1.09-.72-1.63-1.08-.3-.2-.38-.61-.18-.9,.2-.3,.6-.38,.9-.18,.54,.36,1.08,.72,1.62,1.07,.3,.2,.38,.6,.19,.9-.09,.13-.21,.22-.35,.26Zm-5.38-3.66c-.19,.06-.4,.03-.57-.09-.53-.38-1.07-.75-1.59-1.13-.29-.21-.36-.62-.15-.91,.21-.29,.62-.36,.91-.15,.52,.38,1.05,.75,1.58,1.13,.29,.21,.36,.61,.16,.91-.09,.12-.21,.2-.34,.25Zm-5.25-3.84c-.19,.06-.41,.03-.59-.1-.52-.4-1.04-.79-1.56-1.2-.28-.22-.34-.63-.11-.91,.22-.28,.63-.34,.91-.11,.51,.4,1.03,.79,1.54,1.19,.29,.22,.34,.63,.13,.91-.08,.11-.2,.19-.32,.23Zm-5.11-4.04c-.2,.06-.43,.03-.61-.12-.51-.42-1.01-.84-1.51-1.26-.27-.23-.31-.64-.08-.92,.23-.28,.64-.31,.92-.08,.49,.42,.99,.83,1.49,1.25,.28,.23,.32,.64,.09,.92-.08,.1-.19,.17-.31,.21Zm-4.94-4.25c-.21,.07-.45,.02-.63-.14-.49-.44-.97-.88-1.45-1.33-.26-.24-.28-.66-.03-.92,.24-.26,.66-.28,.92-.03,.47,.44,.95,.88,1.44,1.31,.27,.24,.29,.65,.05,.92-.08,.09-.18,.15-.29,.19Zm-4.73-4.48c-.22,.07-.48,.02-.66-.16-.47-.46-.93-.93-1.38-1.4-.25-.26-.25-.67,.01-.92,.26-.25,.67-.25,.92,.01,.45,.46,.91,.92,1.37,1.38,.26,.25,.26,.67,0,.92-.08,.08-.17,.13-.27,.16Zm-4.49-4.72c-.24,.07-.5,.01-.68-.19-.44-.49-.87-.98-1.3-1.47-.24-.27-.21-.68,.06-.92,.27-.24,.68-.21,.92,.06,.43,.49,.86,.97,1.29,1.45,.24,.27,.22,.68-.05,.92-.07,.06-.15,.11-.24,.14Zm-4.22-4.96c-.25,.08-.53,0-.7-.21-.41-.51-.81-1.03-1.21-1.55-.22-.29-.17-.69,.12-.91,.29-.22,.69-.17,.91,.12,.39,.51,.79,1.02,1.2,1.53,.22,.28,.18,.69-.1,.92-.06,.05-.14,.09-.21,.11Zm-3.89-5.22c-.26,.08-.56-.01-.73-.25-.28-.4-.56-.81-.83-1.22-.38,.16-.76,.31-1.14,.46-.33,.13-.71-.04-.84-.37-.13-.34,.04-.71,.37-.84,.6-.23,1.19-.48,1.78-.73,.33-.15,.71,0,.86,.34,.06,.13,.07,.27,.04,.4,.27,.41,.55,.82,.84,1.23,.2,.3,.13,.7-.17,.91-.05,.04-.11,.07-.18,.09Zm-7.06,.46h-.02c-.64,.19-1.27,.35-1.92,.51-.35,.08-.7-.13-.79-.48-.08-.35,.13-.7,.48-.79,.62-.15,1.25-.31,1.86-.49,.35-.1,.71,.1,.8,.45,.1,.34-.1,.69-.43,.8Zm-6.37,1.34s-.07,.02-.11,.02c-.66,.09-1.32,.16-1.97,.22-.36,.03-.68-.23-.71-.59-.03-.36,.23-.67,.59-.71,.64-.06,1.28-.13,1.91-.22,.36-.05,.68,.2,.73,.56,.04,.32-.15,.62-.45,.71Zm16.6-5.52c-.29,.09-.62-.03-.77-.31-.17-.32-.05-.71,.27-.88,.57-.3,1.13-.62,1.69-.94,.31-.18,.71-.08,.89,.23,.18,.31,.08,.71-.23,.89-.57,.33-1.14,.65-1.72,.97-.04,.02-.07,.04-.11,.05Zm-23.09,5.91c-.07,.02-.14,.03-.21,.03h-.45c-.51-.02-1.03-.05-1.54-.08-.36-.02-.63-.33-.61-.69,.02-.36,.33-.63,.69-.61,.49,.03,.99,.06,1.49,.07h.44c.36,.02,.65,.31,.64,.67,0,.29-.2,.53-.46,.61Zm28.65-9.31c-.27,.08-.56-.01-.73-.25-.2-.3-.13-.7,.17-.91,.53-.37,1.05-.74,1.57-1.13,.29-.21,.7-.15,.91,.14,.21,.29,.15,.7-.14,.91-.53,.39-1.07,.78-1.61,1.15-.06,.04-.11,.07-.18,.09Zm-12.21,1.63c-.28,.09-.6-.03-.76-.3-.33-.57-.65-1.14-.97-1.72-.17-.32-.06-.71,.26-.88,.32-.17,.71-.05,.88,.26,.31,.57,.62,1.13,.95,1.69,.18,.31,.07,.71-.24,.89-.04,.02-.09,.04-.13,.06Zm17.37-5.61c-.24,.08-.52,0-.69-.2-.23-.27-.2-.68,.07-.92,.49-.42,.97-.85,1.45-1.28,.27-.24,.68-.22,.92,.04,.24,.27,.22,.68-.04,.92-.49,.44-.98,.88-1.48,1.31-.07,.06-.15,.1-.23,.13Zm-40.27,12.67c-.1,.03-.2,.04-.31,.02-.65-.12-1.3-.25-1.94-.39-.35-.08-.57-.43-.49-.78,.08-.35,.43-.57,.78-.49,.62,.14,1.26,.27,1.88,.38,.35,.06,.59,.4,.53,.76-.04,.25-.22,.44-.45,.51Zm45-17.15c-.22,.07-.47,.02-.65-.15-.26-.25-.27-.66-.02-.92,.45-.47,.88-.94,1.32-1.42,.24-.27,.65-.29,.92-.05,.27,.24,.29,.65,.05,.92-.44,.49-.89,.97-1.34,1.45-.08,.08-.17,.14-.27,.17Zm-51.29,15.52c-.13,.04-.27,.04-.41,0-.62-.21-1.25-.44-1.86-.68-.34-.13-.5-.51-.37-.84,.13-.34,.51-.5,.84-.37,.6,.23,1.2,.45,1.81,.66,.34,.12,.52,.49,.41,.83-.07,.2-.23,.35-.42,.41Zm26.2-11.2c-.31,.1-.65-.05-.79-.35-.28-.6-.54-1.2-.8-1.8-.14-.33,.01-.71,.34-.85,.34-.14,.71,.01,.85,.34,.25,.59,.51,1.18,.78,1.77,.15,.33,0,.71-.32,.86-.03,.01-.05,.02-.08,.03Zm29.36-9.24c-.2,.06-.42,.03-.6-.11-.28-.22-.33-.63-.11-.91,.4-.51,.79-1.02,1.17-1.54,.21-.29,.62-.35,.91-.14,.29,.21,.35,.62,.14,.91-.39,.53-.79,1.05-1.2,1.57-.08,.11-.2,.18-.32,.22Zm-61.55,17.9c-.16,.05-.33,.04-.49-.04-.59-.3-1.17-.61-1.75-.94-.31-.18-.42-.57-.25-.89,.18-.31,.57-.42,.89-.25,.56,.32,1.13,.62,1.7,.91,.32,.16,.45,.56,.28,.88-.08,.16-.22,.27-.38,.33Zm65.31-23.22c-.18,.06-.38,.04-.54-.07-.3-.19-.39-.6-.2-.9,.35-.54,.68-1.09,1.01-1.65,.18-.31,.58-.41,.89-.23,.31,.18,.41,.58,.23,.89-.33,.57-.68,1.13-1.03,1.69-.09,.13-.21,.23-.35,.27Zm-70.9,19.88c-.18,.06-.39,.03-.57-.09-.54-.37-1.08-.76-1.61-1.16-.29-.22-.35-.62-.13-.91,.22-.29,.62-.35,.91-.13,.52,.39,1.04,.76,1.57,1.13,.3,.2,.37,.61,.17,.91-.09,.12-.21,.21-.34,.25Zm35.36-11.36c-.34,.11-.7-.08-.81-.41-.14-.42-.28-.85-.42-1.27-.06-.2-.13-.4-.19-.61-.1-.34,.09-.7,.43-.81h0c.34-.11,.71,.09,.81,.43,.06,.2,.12,.4,.18,.59,.13,.42,.27,.83,.41,1.25,.12,.34-.07,.71-.41,.83h-.01Zm38.71-14.2c-.15,.05-.32,.04-.48-.03-.32-.15-.46-.54-.31-.87,.28-.58,.54-1.17,.79-1.76,.14-.33,.52-.49,.85-.34,.33,.14,.49,.52,.34,.85-.26,.61-.53,1.21-.81,1.81-.08,.17-.23,.29-.39,.34Zm-79.19,21.54c-.21,.07-.45,.02-.63-.13-.49-.44-.98-.89-1.46-1.34-.26-.25-.27-.66-.02-.92,.25-.26,.66-.27,.92-.02,.47,.45,.94,.88,1.42,1.31,.27,.24,.29,.65,.05,.92-.08,.09-.18,.15-.29,.19Zm38.74-13.61s-.04,.01-.06,.02c-.35,.07-.7-.15-.77-.5-.14-.65-.26-1.29-.37-1.95-.06-.35,.18-.69,.53-.75,.35-.06,.69,.18,.75,.53,.11,.63,.23,1.27,.36,1.9,.07,.33-.13,.66-.44,.76Zm42.8-14c-.12,.04-.25,.04-.38,0-.35-.1-.54-.46-.44-.81,.18-.62,.35-1.24,.5-1.85,.08-.35,.43-.57,.78-.48,.35,.08,.57,.43,.48,.78-.15,.63-.32,1.28-.51,1.92-.06,.22-.23,.37-.43,.44Zm-86.14,23c-.24,.07-.51,0-.68-.19-.44-.49-.87-.99-1.29-1.5-.23-.28-.19-.69,.08-.92,.28-.23,.69-.19,.92,.08,.41,.5,.83,.98,1.26,1.47,.24,.27,.22,.68-.05,.92-.07,.06-.15,.11-.24,.14Zm87.39-29.38c-.08,.03-.17,.04-.25,.03-.36-.03-.62-.35-.59-.71,.06-.64,.1-1.28,.11-1.91,0-.36,.31-.65,.67-.64,.36,0,.64,.31,.64,.67-.02,.66-.06,1.33-.12,1.99-.02,.27-.21,.49-.45,.56Zm-44.97,13.94s-.1,.02-.15,.03c-.36,.03-.67-.24-.7-.6-.05-.66-.09-1.32-.11-1.98-.01-.36,.26-.66,.63-.68,.36-.01,.66,.27,.68,.63,.02,.64,.06,1.28,.11,1.93,.02,.31-.17,.58-.45,.67Zm-46.47,10.35c-.26,.08-.56,0-.73-.25-.38-.54-.75-1.08-1.11-1.63-.2-.3-.11-.7,.19-.9,.3-.2,.7-.11,.9,.19,.35,.54,.72,1.07,1.09,1.6,.21,.29,.14,.7-.16,.91-.06,.04-.12,.07-.18,.09Zm91.27-30.78s-.06,.02-.09,.02c-.36,.06-.69-.19-.75-.54-.1-.62-.23-1.25-.38-1.86-.09-.35,.13-.7,.48-.79,.35-.09,.7,.13,.79,.48,.16,.65,.29,1.31,.4,1.97,.05,.32-.14,.63-.45,.72Zm-44.87,13.92c-.07,.02-.15,.03-.23,.03-.36-.02-.63-.33-.61-.69,.04-.66,.09-1.32,.16-1.98,.04-.36,.35-.62,.71-.58,.36,.04,.62,.36,.58,.71-.06,.64-.11,1.28-.15,1.92-.02,.28-.2,.51-.45,.58Zm-49.86,11.34c-.29,.09-.61-.03-.77-.31-.32-.58-.63-1.16-.93-1.75-.16-.32-.04-.71,.29-.88,.32-.16,.71-.03,.88,.29,.29,.57,.59,1.14,.9,1.71,.17,.32,.06,.71-.26,.89-.04,.02-.08,.04-.12,.05Zm50.7-17.79c-.1,.03-.21,.04-.33,.02-.35-.07-.58-.42-.51-.77,.13-.65,.28-1.3,.44-1.93,.09-.35,.44-.56,.79-.47,.35,.09,.56,.44,.47,.79-.16,.61-.3,1.24-.43,1.87-.05,.24-.22,.42-.44,.49Zm42.16-13.69c-.31,.1-.65-.05-.79-.35-.26-.58-.55-1.15-.85-1.7-.17-.31-.06-.71,.25-.89,.31-.18,.71-.06,.89,.25,.32,.58,.63,1.18,.9,1.79,.15,.33,0,.71-.32,.86-.02,.01-.05,.02-.07,.03Zm-95.68,25.61c-.32,.1-.67-.06-.8-.37-.25-.61-.49-1.22-.72-1.84-.13-.34,.05-.71,.38-.84,.33-.13,.71,.05,.84,.38,.22,.6,.46,1.2,.71,1.8,.14,.33-.02,.71-.35,.85-.02,0-.04,.01-.05,.02Zm55.33-18.17c-.13,.04-.28,.04-.43-.01-.34-.13-.51-.5-.38-.84,.23-.62,.49-1.23,.75-1.84,.14-.33,.53-.48,.86-.33,.33,.15,.48,.53,.33,.86-.26,.58-.5,1.18-.73,1.78-.07,.19-.23,.33-.41,.39Zm36.88-12.93c-.24,.08-.52,0-.69-.2-.41-.48-.85-.95-1.3-1.38-.26-.25-.27-.66-.02-.92,.25-.26,.66-.27,.92-.02,.48,.46,.94,.95,1.38,1.47,.23,.27,.2,.68-.07,.92-.07,.06-.15,.1-.23,.13Zm-34.05,7.07c-.17,.05-.36,.04-.53-.06-.31-.18-.41-.58-.22-.89,.34-.57,.7-1.13,1.07-1.68,.2-.3,.61-.38,.9-.17,.3,.2,.38,.61,.17,.9-.36,.53-.7,1.07-1.03,1.62-.09,.14-.22,.24-.36,.29Zm-60.29,17.88h-.02c-.35,.1-.71-.1-.8-.44-.18-.64-.35-1.27-.5-1.91-.09-.35,.13-.71,.48-.79,.35-.08,.7,.13,.79,.48,.15,.62,.32,1.25,.49,1.87,.1,.34-.1,.69-.43,.8Zm89.37-29.11c-.17,.05-.36,.04-.52-.06-.54-.31-1.11-.6-1.68-.84-.33-.14-.48-.53-.34-.86,.14-.33,.53-.48,.86-.34,.61,.26,1.22,.57,1.81,.91,.31,.18,.42,.58,.24,.89-.08,.15-.22,.25-.37,.3Zm-25.2,6.01c-.22,.07-.46,.02-.64-.14-.26-.24-.28-.66-.04-.92,.45-.49,.92-.96,1.41-1.42,.26-.25,.67-.24,.92,.03,.25,.26,.24,.67-.03,.92-.46,.44-.91,.89-1.34,1.36-.08,.09-.18,.15-.28,.18Zm19.07-8.08c-.09,.03-.18,.04-.28,.02-.62-.08-1.25-.12-1.87-.13-.36,0-.65-.3-.64-.66,0-.36,.3-.65,.66-.64,.68,0,1.36,.06,2.02,.14,.36,.05,.61,.37,.56,.73-.03,.26-.22,.46-.45,.54Zm-14.15,3.84c-.27,.08-.57-.01-.73-.26-.2-.3-.12-.7,.17-.9,.55-.38,1.13-.73,1.7-1.06,.31-.18,.71-.07,.89,.24,.18,.31,.07,.71-.24,.89-.54,.31-1.09,.65-1.62,1.01-.05,.04-.11,.06-.17,.08Zm7.68-3.46s-.03,0-.05,.01c-.6,.14-1.21,.32-1.82,.52-.33,.11-.71-.07-.83-.41-.12-.34,.07-.71,.41-.83,.64-.22,1.3-.41,1.93-.56,.35-.08,.7,.13,.78,.48,.08,.33-.11,.67-.44,.77Zm-78.18,24.45s-.06,.02-.09,.02c-.35,.06-.69-.18-.75-.53-.11-.65-.21-1.3-.3-1.95-.05-.36,.2-.68,.56-.73,.36-.05,.69,.2,.73,.56,.09,.64,.18,1.27,.29,1.91,.05,.32-.14,.63-.45,.73Zm-.76-6.47s-.1,.03-.15,.03c-.36,.02-.67-.25-.69-.61-.04-.66-.08-1.31-.11-1.97-.01-.36,.27-.66,.63-.68,.36-.01,.66,.27,.68,.62,.03,.64,.06,1.29,.1,1.93,.02,.31-.17,.58-.45,.67Zm-.14-6.51c-.07,.02-.14,.03-.21,.03-.36,0-.64-.31-.64-.67,.02-.66,.04-1.31,.07-1.97,.02-.36,.32-.63,.68-.62,.36,.02,.64,.32,.62,.68-.03,.65-.06,1.29-.07,1.94,0,.29-.2,.52-.46,.61Zm.44-6.5c-.08,.03-.17,.04-.27,.03-.36-.04-.62-.36-.58-.72,.07-.65,.15-1.3,.24-1.96,.05-.36,.38-.61,.73-.56,.36,.05,.61,.38,.56,.73-.09,.64-.17,1.28-.24,1.92-.03,.26-.21,.47-.45,.55Zm.98-6.44c-.1,.03-.21,.04-.32,.02-.35-.07-.58-.41-.52-.76,.12-.64,.26-1.29,.39-1.93,.08-.35,.42-.58,.77-.5,.35,.08,.57,.42,.5,.77-.14,.63-.27,1.27-.39,1.9-.05,.24-.22,.43-.45,.5Zm1.47-6.35c-.11,.04-.24,.04-.36,0-.35-.09-.55-.45-.46-.8,.17-.63,.35-1.26,.53-1.9,.1-.35,.46-.54,.81-.44,.35,.1,.54,.46,.44,.81-.18,.62-.36,1.24-.53,1.87-.06,.22-.23,.39-.43,.45Zm1.92-6.23c-.13,.04-.27,.04-.41,0-.34-.12-.52-.49-.4-.83,.21-.62,.43-1.24,.66-1.85,.12-.34,.5-.51,.84-.39,.34,.12,.51,.5,.39,.84-.22,.61-.44,1.22-.65,1.83-.07,.2-.23,.35-.42,.41Zm2.33-6.08c-.14,.04-.3,.04-.45-.02-.33-.14-.49-.52-.35-.85,.25-.6,.51-1.21,.78-1.81,.15-.33,.53-.48,.86-.33,.33,.15,.48,.53,.33,.86-.26,.59-.52,1.19-.77,1.78-.08,.18-.23,.31-.41,.37Z"/><g><g class="dd"><path class="cr" d="M633.11,440.56l-73.16-.41c-2.99-.02-4.86,3.25-3.31,5.82l.37,.61c.69,1.16,1.94,1.86,3.29,1.86h72.79c2.12,0,3.84-1.72,3.84-3.84v-.2c0-2.11-1.71-3.83-3.82-3.84Z"/><path class="cr" d="M643.33,444.48v.12c0,2.12,1.72,3.84,3.84,3.84h16.24c1.74,0,3.26-1.17,3.71-2.85h0c.65-2.43-1.17-4.81-3.68-4.83l-16.24-.12c-2.13-.02-3.87,1.71-3.87,3.84Z"/></g><g class="dd"><path class="cr" d="M615.52,454.34l-55.56-.41c-2.99-.02-4.86,3.25-3.31,5.82l.37,.61c.69,1.16,1.94,1.86,3.29,1.86h55.19c2.12,0,3.84-1.72,3.84-3.84v-.2c0-2.11-1.71-3.83-3.82-3.84Z"/><path class="cr" d="M625.74,458.27v.12c0,2.12,1.72,3.84,3.84,3.84h16.24c1.74,0,3.26-1.17,3.71-2.85h0c.65-2.43-1.17-4.81-3.68-4.83l-16.24-.12c-2.13-.02-3.87,1.71-3.87,3.84Z"/></g></g><g><path class="cw" d="M461.96,585.11c23.08-5.78,86.83-32.3,61.64-146.86-.72-3.25-5.27-3.46-6.26-.28-4.61,14.9-13.2,40.58-24.99,52.74-36.53,37.66-39.9,72.49-39.25,87.77,.19,4.53,4.47,7.73,8.87,6.63Z"/><path class="cy" d="M458.54,583.29c-.43,.17-.94,.06-1.27-.31-.41-.47-.36-1.19,.11-1.6,51.2-44.73,59.13-106.41,59.2-107.03,.07-.62,.64-1.07,1.26-.99,.62,.07,1.07,.64,.99,1.26-.02,.16-1.97,15.94-10.3,37.07-7.69,19.5-22.54,47.71-49.65,71.4-.1,.09-.21,.16-.33,.2Z"/></g><path class="da" d="M449.54,548.03l102-195.41h-20.9c-3.85,0-5.97-4.48-3.53-7.46l108.71-132.49c4.71-5.74,14.02-2.1,13.58,5.31l-7.64,129.56c-.44,7.42-7.01,12.95-14.4,12.1l-14.57-1.67-101.2,219.17c-2.63,5.71-8.35,9.36-14.63,9.36h-35.08l-12.35-38.48Z"/><path class="cu" d="M365.21,410.98l72.01,159.96c4.27,9.47,13.69,15.57,24.08,15.57h37.12c4.93,0,9.46-2.67,11.85-6.98l1.32-2.38h0c-3.99,0-7.64-2.24-9.45-5.79l-95.94-187.99-40.99,27.61Z"/><path class="da" d="M415.89,402.36h0c-7.22-5.7-17.77-4.03-22.87,3.63l-105.87,159.07c-8.48,12.74-22.77,20.39-38.07,20.39h-14.9l-12.12-34.93s98.43-150.92,123.79-173.75c0,0,25.26-22.77,50.17-5.55,6.58,4.55,11.58,11.04,14.63,18.43l5.24,12.7Z"/><path class="cu" d="M106.9,456.6s17.72-22.15,52.06-25.6c0,0,16.31,5.56,48.81,63.78,32.5,58.23,54.06,84.78,79.38,70.28l-2.1,3.48c-6.91,11.47-19.31,18.48-32.7,18.48h-14c-15.41,0-29.88-7.41-38.88-19.92-25.29-35.16-77.04-105.04-92.57-110.5Z"/><path class="cx" d="M637.14,259.08s-.09,0-.13,0c-.62-.07-1.07-.63-1-1.25l.72-6.33c.07-.62,.63-1.08,1.25-1,.62,.07,1.07,.63,1,1.25l-.72,6.33c-.07,.58-.56,1.01-1.12,1.01Z"/><path class="cx" d="M546.39,338.94c-.24,0-.48-.08-.69-.24-.5-.38-.59-1.09-.21-1.59l89.77-116.64c1.08-1.4,2.9-1.9,4.54-1.23,1.64,.66,2.6,2.29,2.41,4.04l-1.58,13.98c-.07,.62-.63,1.07-1.25,1-.62-.07-1.07-.63-1-1.25l1.58-13.98c.1-.9-.45-1.46-1-1.69-.55-.22-1.34-.21-1.89,.51l-89.77,116.64c-.22,.29-.56,.44-.9,.44Z"/><path class="cx" d="M342.74,461.21c-.22,0-.44-.06-.63-.19-.52-.35-.66-1.05-.31-1.57l46.43-68.82c1.69-2.51,4.5-3.86,7.51-3.64,3.01,.23,5.59,2,6.88,4.73,.27,.57,.03,1.24-.54,1.51-.57,.27-1.24,.03-1.51-.54-.94-1.99-2.81-3.27-5-3.44-2.19-.17-4.23,.82-5.46,2.64l-46.43,68.82c-.22,.32-.58,.5-.94,.5Z"/><path class="cx" d="M330.68,479.1c-.22,0-.44-.06-.63-.19-.52-.35-.66-1.05-.31-1.57l2.98-4.41c.35-.52,1.05-.66,1.57-.31,.52,.35,.66,1.05,.31,1.57l-2.98,4.41c-.22,.32-.58,.5-.94,.5Z"/><g><g class="dd"><path class="cr" d="M361.32,278.52l-97.53-.54c-3.99-.02-6.47,4.33-4.42,7.75l.49,.82c.93,1.54,2.59,2.48,4.39,2.48h97.04c2.83,0,5.12-2.29,5.12-5.12v-.27c0-2.82-2.27-5.1-5.09-5.12Z"/><path class="cr" d="M374.94,283.75v.16c0,2.83,2.29,5.12,5.12,5.12h21.65c2.32,0,4.35-1.56,4.95-3.8h0c.86-3.24-1.56-6.42-4.91-6.44l-21.65-.16c-2.84-.02-5.16,2.28-5.16,5.12Z"/></g><g class="dd"><path class="cr" d="M337.86,296.89l-74.07-.54c-3.99-.02-6.47,4.33-4.42,7.75l.49,.82c.93,1.54,2.59,2.48,4.39,2.48h73.58c2.83,0,5.12-2.29,5.12-5.12v-.27c0-2.82-2.27-5.1-5.09-5.12Z"/><path class="cr" d="M351.48,302.13v.16c0,2.83,2.29,5.12,5.12,5.12h21.65c2.32,0,4.35-1.56,4.95-3.8h0c.86-3.24-1.56-6.42-4.91-6.44l-21.65-.16c-2.84-.02-5.16,2.28-5.16,5.12Z"/></g></g><g><g class="dd"><path class="cr" d="M115.33,421.99l-97.53-.54c-3.99-.02-6.47,4.33-4.42,7.75l.49,.82c.93,1.54,2.59,2.48,4.39,2.48H115.3c2.83,0,5.12-2.29,5.12-5.12v-.27c0-2.82-2.27-5.1-5.09-5.12Z"/><path class="cr" d="M128.95,427.22v.16c0,2.83,2.29,5.12,5.12,5.12h21.65c2.32,0,4.35-1.56,4.95-3.8h0c.86-3.24-1.56-6.42-4.91-6.44l-21.65-.16c-2.84-.02-5.16,2.28-5.16,5.12Z"/></g><g class="dd"><path class="cr" d="M91.87,440.37l-74.07-.54c-3.99-.02-6.47,4.33-4.42,7.75l.49,.82c.93,1.54,2.59,2.48,4.39,2.48H91.84c2.83,0,5.12-2.29,5.12-5.12v-.27c0-2.82-2.27-5.1-5.09-5.12Z"/><path class="cr" d="M105.49,445.6v.16c0,2.83,2.29,5.12,5.12,5.12h21.65c2.32,0,4.35-1.56,4.95-3.8h0c.86-3.24-1.56-6.42-4.91-6.44l-21.65-.16c-2.84-.02-5.16,2.28-5.16,5.12Z"/></g></g><path class="dc" d="M478.17,243.1c-.04-.55-.6-1.02-1.55-1.4,1.03-.57,1.6-1.18,1.55-1.77-.15-1.81-5.87-2.82-12.78-2.26-6.91,.56-12.39,2.47-12.25,4.28,.04,.55,.6,1.02,1.55,1.4-1.03,.57-1.6,1.18-1.55,1.77,.04,.55,.6,1.02,1.55,1.4-1.03,.57-1.6,1.18-1.55,1.77,.04,.55,.6,1.02,1.55,1.4-1.03,.57-1.6,1.18-1.55,1.77,.06,.8,1.22,1.44,3.09,1.86-.02,.59-.01,1.24,.05,1.95,.27,3.33,4.01,5.94,8.97,5.94s9.24-3.56,9.29-6.9c.01-.82-.02-1.54-.1-2.18,2.37-.79,3.81-1.76,3.74-2.69-.04-.55-.6-1.02-1.55-1.4,1.03-.57,1.6-1.18,1.55-1.77-.04-.55-.6-1.02-1.55-1.4,1.03-.57,1.6-1.18,1.55-1.77Z"/><g><path class="cp" d="M462.2,254.05c-2.05,0-3.93-.15-5.48-.45-.09-.02-.15-.1-.13-.19,.02-.09,.1-.15,.19-.13,2.43,.46,5.67,.57,9.13,.29,2.83-.23,5.48-.69,7.66-1.32,.09-.03,.18,.02,.21,.11,.03,.09-.02,.18-.11,.21-2.2,.64-4.87,1.1-7.72,1.33-1.29,.1-2.54,.15-3.74,.15Z"/><path class="cp" d="M462.23,250.87c-2.67,0-5.05-.25-6.73-.73-.09-.03-.14-.12-.11-.21,.03-.09,.12-.14,.21-.11,2.39,.68,6.25,.89,10.32,.57,4.02-.32,7.77-1.14,10.03-2.18,.08-.04,.18,0,.22,.08,.04,.08,0,.18-.08,.22-2.29,1.06-6.09,1.88-10.14,2.21-1.27,.1-2.51,.15-3.7,.15Z"/><path class="cp" d="M462.2,247.7c-2.88,0-5.4-.29-7.09-.85-.09-.03-.13-.12-.11-.21,.03-.09,.12-.13,.21-.11,2.36,.78,6.36,1.03,10.7,.68,4.02-.32,7.77-1.14,10.03-2.18,.08-.04,.18,0,.22,.08,.04,.08,0,.18-.08,.22-2.29,1.06-6.09,1.88-10.14,2.21-1.29,.1-2.54,.15-3.74,.15Z"/><path class="cp" d="M462.22,244.52c-2.28,0-4.36-.18-5.98-.54-.09-.02-.15-.11-.13-.2,.02-.09,.11-.15,.2-.13,2.43,.54,5.92,.68,9.59,.38,3.98-.32,7.71-1.13,9.98-2.16,.08-.04,.18,0,.22,.08,.04,.08,0,.18-.08,.22-2.3,1.05-6.07,1.86-10.09,2.19-1.27,.1-2.52,.15-3.72,.15Z"/></g><path class="cq" d="M448.51,227.07c-.84-2.97-2.26-5.75-4.18-8.17-4.11-5.18-10.82-15.73-11.65-30.12-1.2-20.93,17.36-31.41,34.3-29.99,16.94,1.42,33.65,14.04,31.82,33.51-1.13,11.98-7.83,21.07-12.83,26.29-3.17,3.31-5.43,7.37-6.66,11.79-1.5,5.41-5.06,12.15-13.54,12.56-10.97,.53-15.52-9.69-17.27-15.88Z"/><path class="cp" d="M468.58,238.77l5.93-38.55c.12-.8,.51-1.33,.88-1.19,.36,.14,.55,.89,.43,1.69v.07l-6.76,38.19c-.05,.29-.2,.47-.33,.41-.13-.06-.19-.33-.15-.61Z"/><path class="cp" d="M462.42,239.08l-5.93-38.55c-.12-.8-.51-1.33-.88-1.19-.36,.14-.55,.89-.43,1.69,0,.02,0,.05,.01,.07l6.75,38.19c.05,.29,.2,.47,.33,.41,.13-.06,.19-.33,.15-.61Z"/><path class="cp" d="M474.46,196.91c-.15-.24-.5-.33-.78-.2l-3.3,1.54-1.15-3.26c-.06-.17-.2-.32-.4-.4-.38-.16-.83-.02-1.01,.31h0l-2.71,4.96-2.52-7.04h0c-.06-.18-.19-.34-.38-.44-.42-.23-.98-.12-1.25,.25l-3.79,5.22c-.15,.21-.1,.5,.13,.66,.25,.17,.61,.13,.81-.09l3.34-3.73,3.01,6.7h0c.05,.11,.14,.21,.26,.26,.28,.13,.63,.04,.79-.2l2.9-4.66,1.09,2.36v.02s.03,.03,.04,.05c.15,.24,.5,.33,.78,.2l3.92-1.83c.28-.13,.38-.43,.23-.67Z"/><path class="cp" d="M486.1,214c-.24,0-.47-.07-.67-.22-.5-.37-.61-1.08-.23-1.59,1-1.35,1.92-2.74,2.73-4.14,.31-.54,1.01-.73,1.55-.41,.54,.31,.73,1.01,.41,1.55-.85,1.48-1.82,2.94-2.87,4.36-.22,.3-.56,.46-.91,.46Z"/><path class="cp" d="M490.98,205.63c-.15,0-.3-.03-.45-.09-.57-.25-.84-.92-.59-1.49,6.2-14.27,.86-26.22,.81-26.34-.26-.57-.01-1.24,.56-1.5,.57-.26,1.24-.01,1.5,.56,.24,.52,5.8,13-.79,28.19-.19,.43-.6,.68-1.04,.68Z"/><g><path class="bn" d="M329.5,509.11c.22-3,1.2-5.1,2.24-6.54-2.23,.73-3.07,2.39-3.59,6.82-.62,5.27-1.73,19.55-2.02,22.71-.29,3.16,1.01,4.71,2.02,5.74,.33,.34,.85,.18,1.46-.3-1.25-1.6-1.75-3.24-2-4.58-.4-2.12,1.37-16.87,1.89-23.85Z"/><path class="ay" d="M344.08,504.97l-3.88-5.02s-3.72,1.77-7.05,2.3c-.53,.08-1,.19-1.42,.33-1.04,1.44-2.02,3.54-2.24,6.54-.52,6.98-2.28,21.73-1.89,23.85,.25,1.35,.75,2.98,2,4.58,1.25-.98,2.89-3.33,4.14-5.73,1.86-3.58,8.14-14.29,9.62-18.29,1.47-4,.72-8.56,.72-8.56Z"/></g><g><path class="ax" d="M396.83,459.32c.72-2.92,2.03-4.83,3.3-6.08-2.32,.35-3.42,1.85-4.67,6.13-1.48,5.1-4.94,19-5.75,22.07-.81,3.07,.22,4.81,1.04,5.99,.27,.39,.81,.32,1.49-.05-.97-1.79-1.19-3.48-1.22-4.85-.04-2.16,4.14-16.41,5.81-23.21Z"/><path class="ba" d="M411.9,457.65l-2.99-5.6s-3.96,1.13-7.33,1.1c-.54,0-1.01,.02-1.45,.09-1.27,1.24-2.58,3.16-3.3,6.08-1.67,6.8-5.85,21.05-5.81,23.21,.02,1.37,.25,3.06,1.22,4.85,1.4-.76,3.4-2.81,5.03-4.97,2.42-3.22,10.39-12.74,12.51-16.44,2.12-3.7,2.12-8.32,2.12-8.32Z"/></g><path class="b`" d="M344.08,492.75c-.68,.89-5.63,9.9-6.7,11.85-.18,.33-.3,.68-.34,1.05-.12,1.01-.02,2.95,2.11,4.37,1.3,.86,3.06,.57,4.01-.68l9-11.85-8.07-4.74Z"/><path class="bh" d="M413.92,445.59c-.82,.77-7.19,8.83-8.57,10.58-.23,.29-.41,.62-.51,.98-.29,.98-.51,2.91,1.36,4.66,1.14,1.07,2.92,1.07,4.06,0l9.68-11.17-6.02-5.05Z"/><path class="bg" d="M426.05,403.11c0-2.5,14.35-1.61,26.93-3.07,6.61-.76,10.52,7.18,5.89,11.95l-38.09,39.31c-.8,.82-1.99,1.13-3.08,.78-1.5-.49-3.66-1.38-5.59-2.9-1.12-.89-1.33-2.52-.5-3.69l17.51-24.93-15.97,4.61-60.62,74.98c-1,1.24-2.77,1.53-4.12,.69-1.78-1.12-4.16-2.8-5.73-4.67-.83-.98-.88-2.4-.18-3.48,6.69-10.22,43.03-65.89,44.75-71.67,1.9-6.37,8.87-18.03,15.39-18.45,6.52-.42,23.41,.54,23.41,.54Z"/><path class="bj" d="M430.07,420.23c-.18,0-.34-.12-.39-.3-.06-.22,.07-.44,.29-.5l14.37-3.81c.22-.06,.44,.07,.5,.29,.06,.22-.07,.44-.29,.5l-14.37,3.81s-.07,.01-.1,.01Z"/><path class="bi" d="M414.57,424.13c-.1,0-.2-.04-.27-.11-.16-.15-.18-.41-.02-.57l3.59-3.89c.15-.17,.41-.17,.57-.02,.16,.15,.18,.41,.02,.57l-3.59,3.89c-.08,.09-.19,.13-.3,.13Z"/><g><path class="bl" d="M357.12,428.06l-7.65,18.94c-1.33,3.3,.19,7.07,3.46,8.54l44.6,20.03c2.18,.98,4.75,.21,6.02-1.8,2.78-4.41,7.4-12.45,9.9-20.81l-56.33-24.89Z"/><path class="bk" d="M398.82,474.57c-.69,0-1.36-.14-1.99-.43l-.09-.04c-.14-.06-.21-.23-.14-.37,.06-.14,.23-.21,.37-.14l.09,.04c.63,.28,1.3,.41,1.98,.37,.15-.01,.29,.11,.3,.27,0,.16-.11,.29-.27,.3-.08,0-.17,0-.25,0Zm-6.79-2.61s-.08,0-.12-.02l-2.07-.93c-.14-.06-.21-.23-.14-.37s.23-.21,.37-.14l2.07,.93c.14,.06,.21,.23,.14,.37-.05,.1-.15,.17-.26,.17Zm11.14-.3c-.05,0-.1-.01-.15-.04-.13-.08-.17-.26-.09-.39,.37-.59,.76-1.24,1.17-1.94,.08-.13,.25-.18,.39-.1,.13,.08,.18,.25,.1,.39-.41,.7-.81,1.35-1.18,1.95-.05,.09-.15,.13-.24,.13Zm-18.03-2.79s-.08,0-.12-.02l-2.07-.93c-.14-.06-.21-.23-.14-.37,.06-.14,.23-.21,.37-.14l2.07,.93c.14,.06,.21,.23,.14,.37-.05,.1-.15,.17-.26,.17Zm-6.89-3.1s-.08,0-.12-.02l-2.07-.93c-.14-.06-.21-.23-.14-.37,.06-.14,.23-.2,.37-.14l2.07,.93c.14,.06,.21,.23,.14,.37-.05,.1-.15,.17-.26,.17Zm28.67-.68s-.09-.01-.13-.03c-.14-.07-.19-.24-.12-.38,.34-.65,.68-1.33,1.02-2.02,.07-.14,.24-.2,.38-.13,.14,.07,.2,.24,.13,.38-.34,.7-.68,1.37-1.03,2.03-.05,.1-.15,.15-.25,.15Zm-35.56-2.42s-.08,0-.12-.02l-2.07-.93c-.14-.06-.21-.23-.14-.37,.06-.14,.23-.21,.37-.14l2.07,.93c.14,.06,.21,.23,.14,.37-.05,.1-.15,.17-.26,.17Zm-6.89-3.1s-.08,0-.12-.02l-2.07-.93c-.14-.06-.21-.23-.14-.37,.06-.14,.23-.2,.37-.14l2.07,.93c.14,.06,.21,.23,.14,.37-.05,.1-.15,.17-.26,.17Zm45.65-1.34s-.07,0-.11-.02c-.14-.06-.21-.22-.15-.37,.28-.69,.56-1.39,.82-2.1,.05-.15,.22-.22,.36-.17,.15,.05,.22,.22,.17,.36-.26,.71-.54,1.42-.83,2.12-.05,.11-.15,.18-.26,.18Zm-52.54-1.76s-.08,0-.12-.02l-2.07-.93c-.14-.06-.21-.23-.14-.37,.06-.14,.23-.2,.37-.14l2.07,.93c.14,.06,.21,.23,.14,.37-.05,.11-.15,.17-.26,.17Zm-6.07-4.19c-.1,0-.2-.05-.25-.15-.37-.7-.61-1.46-.72-2.24-.02-.16,.09-.3,.24-.32,.16-.02,.3,.09,.32,.24,.09,.72,.32,1.41,.66,2.05,.07,.14,.02,.31-.12,.38-.04,.02-.09,.03-.13,.03Zm59.13-.3s-.08,0-.11-.02l-2.07-.92c-.14-.06-.21-.23-.14-.37,.06-.14,.23-.21,.37-.14l2.07,.92c.14,.06,.21,.23,.14,.37-.05,.11-.15,.17-.26,.17Zm-6.91-3.05s-.08,0-.11-.02l-2.07-.92c-.14-.06-.21-.23-.14-.37,.06-.14,.23-.21,.37-.14l2.07,.92c.14,.06,.21,.23,.14,.37-.05,.11-.15,.17-.26,.17Zm-6.91-3.05s-.08,0-.11-.02l-2.07-.92c-.14-.06-.21-.23-.14-.37,.06-.14,.23-.21,.37-.14l2.07,.92c.14,.06,.21,.23,.14,.37-.05,.11-.15,.17-.26,.17Zm-44.82-.82s-.07,0-.11-.02c-.14-.06-.22-.22-.16-.37l.85-2.1c.06-.15,.22-.21,.37-.16,.15,.06,.22,.22,.16,.37l-.85,2.1c-.04,.11-.15,.18-.26,.18Zm37.91-2.24s-.08,0-.11-.02l-2.07-.92c-.14-.06-.21-.23-.14-.37,.06-.14,.23-.21,.37-.14l2.07,.92c.14,.06,.21,.23,.14,.37-.05,.11-.15,.17-.26,.17Zm-6.91-3.05s-.08,0-.11-.02l-2.07-.92c-.14-.06-.21-.23-.14-.37,.06-.14,.23-.21,.37-.14l2.07,.92c.14,.06,.21,.23,.14,.37-.05,.11-.15,.17-.26,.17Zm-28.16-1.71s-.07,0-.11-.02c-.15-.06-.22-.22-.16-.37l.85-2.1c.06-.15,.22-.22,.37-.16s.22,.22,.16,.37l-.85,2.1c-.04,.11-.15,.18-.26,.18Zm21.25-1.34s-.08,0-.11-.02l-2.07-.92c-.14-.06-.21-.23-.14-.37,.06-.14,.23-.21,.37-.14l2.07,.92c.14,.06,.21,.23,.14,.37-.05,.11-.15,.17-.26,.17Zm-6.91-3.05s-.08,0-.11-.02l-2.07-.92c-.14-.06-.21-.23-.14-.37,.06-.14,.23-.21,.37-.14l2.07,.92c.14,.06,.21,.23,.14,.37-.05,.11-.15,.17-.26,.17Zm-11.51-2.61s-.07,0-.11-.02c-.15-.06-.22-.22-.16-.37l.85-2.1c.06-.15,.22-.21,.37-.16,.15,.06,.22,.22,.16,.37l-.85,2.1c-.04,.11-.15,.18-.26,.18Zm4.6-.44s-.08,0-.11-.02l-2.07-.92c-.14-.06-.21-.23-.14-.37,.06-.14,.23-.21,.37-.14l2.07,.92c.14,.06,.21,.23,.14,.37-.05,.11-.15,.17-.26,.17Z"/><path class="bm" d="M376.22,420.3l.77-1.38c.3-.28,.73-.38,1.13-.28,1.49,.39,5.12,1.53,6.23,3.51l-.49,1.78-7.64-3.64Z"/><path class="bc" d="M381.18,420.84c-.36-.06-.68-.21-.96-.43-.35-.27-.47-.74-.29-1.14l1.99-4.51,2.3,1.01-1.99,4.51c-.18,.4-.61,.63-1.04,.55Z"/><path class="bb" d="M398.45,430.12l.77-1.38c.3-.28,.73-.38,1.13-.28,1.49,.39,5.12,1.53,6.23,3.51l-.49,1.78-7.64-3.64Z"/><path class="be" d="M403.41,430.66c-.36-.06-.68-.21-.96-.43-.35-.27-.47-.74-.29-1.14l2.2-4.98,2.3,1.01-2.2,4.98c-.18,.4-.61,.63-1.04,.55Z"/><path class="bf" d="M381.2,415.77l25.04,10.09c.57,.23,1.23,.04,1.57-.47,.48-.71,1.11-1.82,1.46-3.09,.4-1.45-.32-2.98-1.69-3.63-4.56-2.14-16.28-7.32-23.87-7.62-.8-.03-1.57,.33-2.05,.96-.46,.61-.97,1.46-1.17,2.48-.1,.54,.2,1.08,.71,1.28Z"/><path class="bd" d="M365.01,414.68c8.02,3.42,42.67,18.3,52.16,23.94,.82,.49,1.24,1.43,1.06,2.35-.59,2.94-2.15,9.68-5.01,15.78-.39,.83-1.32,1.27-2.22,1.06l-24.78-5.78-8.12-3.59-22.23-15.61c-.78-.55-1.1-1.56-.75-2.45,1.21-3.17,4.18-10.56,7.09-14.87,.62-.92,1.8-1.27,2.82-.83Z"/><path class="av" d="M411.57,455.47s-.08,0-.12-.03c-.14-.06-.21-.23-.14-.37,.3-.66,.59-1.36,.88-2.08,.06-.15,.22-.22,.37-.16,.15,.06,.22,.22,.16,.37-.29,.72-.59,1.43-.89,2.1-.05,.1-.15,.17-.26,.17Zm-4.85-.59s-.04,0-.06,0l-2.21-.52c-.15-.04-.25-.19-.21-.34,.04-.15,.19-.25,.34-.21l2.21,.52c.15,.04,.25,.19,.21,.34-.03,.13-.15,.22-.28,.22Zm-7.36-1.72s-.04,0-.06,0l-2.21-.52c-.15-.04-.25-.19-.21-.34,.04-.15,.19-.25,.34-.21l2.21,.52c.15,.04,.25,.19,.21,.34-.03,.13-.15,.22-.28,.22Zm-7.36-1.72s-.04,0-.06,0l-2.21-.51c-.15-.04-.25-.19-.21-.34,.04-.15,.19-.25,.34-.21l2.21,.51c.15,.04,.25,.19,.21,.34-.03,.13-.15,.22-.28,.22Zm-7.22-2.13s-.08,0-.11-.02l-2.07-.92c-.14-.06-.21-.23-.14-.37,.06-.14,.23-.21,.37-.14l2.07,.92c.14,.06,.21,.23,.14,.37-.05,.11-.15,.17-.26,.17Zm29.42-.93s-.06,0-.08-.01c-.15-.05-.23-.2-.19-.35,.23-.75,.44-1.48,.63-2.17,.04-.15,.2-.24,.35-.2,.15,.04,.24,.2,.2,.35-.19,.7-.4,1.43-.64,2.19-.04,.12-.15,.2-.27,.2Zm-35.04-1.55c-.06,0-.11-.02-.16-.05l-1.86-1.3c-.13-.09-.16-.27-.07-.39,.09-.13,.27-.16,.39-.07l1.86,1.3c.13,.09,.16,.27,.07,.39-.05,.08-.14,.12-.23,.12Zm-6.18-4.34c-.06,0-.11-.02-.16-.05l-1.85-1.3c-.13-.09-.16-.27-.07-.39,.09-.13,.27-.16,.39-.07l1.85,1.3c.13,.09,.16,.27,.07,.39-.05,.08-.14,.12-.23,.12Zm43.1-1.43s-.04,0-.06,0c-.15-.03-.25-.18-.22-.33l.02-.08c-.45-.26-.97-.56-1.55-.88-.14-.07-.19-.25-.11-.38,.07-.14,.25-.19,.38-.11,.64,.35,1.21,.67,1.69,.96,.12,.07,.18,.19,.18,.32l-.05,.29c-.03,.13-.15,.23-.28,.23Zm-.14-.36h0Zm-49.13-2.56c-.06,0-.11-.02-.16-.05l-1.86-1.3c-.13-.09-.16-.27-.07-.39,.09-.13,.27-.16,.39-.07l1.86,1.3c.13,.09,.16,.27,.07,.39-.05,.08-.14,.12-.23,.12Zm42.9-.78s-.08,0-.13-.03c-.64-.32-1.32-.65-2.03-1-.14-.07-.2-.24-.13-.38,.07-.14,.24-.2,.38-.13,.71,.35,1.39,.68,2.04,1,.14,.07,.2,.24,.13,.38-.05,.1-.15,.16-.25,.16Zm-6.81-3.27s-.08,0-.12-.03c-.66-.31-1.35-.63-2.05-.96-.14-.07-.2-.23-.14-.38,.07-.14,.24-.2,.38-.14,.71,.33,1.39,.65,2.06,.96,.14,.07,.2,.24,.14,.38-.05,.1-.15,.16-.26,.16Zm-42.27-.29c-.06,0-.11-.02-.16-.05l-1.86-1.3c-.13-.09-.16-.27-.07-.39,.09-.13,.27-.16,.39-.07l1.86,1.3c.13,.09,.16,.27,.07,.39-.06,.08-.14,.12-.23,.12Zm35.41-2.88s-.08,0-.12-.03l-2.06-.94c-.14-.06-.21-.23-.14-.38,.06-.14,.23-.21,.38-.14l2.06,.94c.14,.06,.21,.23,.14,.38-.05,.1-.15,.17-.26,.17Zm-37.65-2.65s-.07,0-.11-.02c-.14-.06-.21-.23-.15-.37,.27-.66,.57-1.36,.88-2.1,.06-.14,.23-.21,.37-.15,.14,.06,.21,.23,.15,.37-.31,.73-.61,1.43-.88,2.09-.05,.11-.15,.18-.26,.18Zm30.76-.46s-.08,0-.12-.02l-2.07-.92c-.14-.06-.21-.23-.14-.37,.06-.14,.23-.21,.37-.14l2.07,.92c.14,.06,.21,.23,.14,.37-.05,.11-.15,.17-.26,.17Zm-6.91-3.06s-.08,0-.11-.02l-2.08-.91c-.14-.06-.21-.23-.15-.37,.06-.14,.23-.21,.37-.15l2.08,.91c.14,.06,.21,.23,.15,.37-.05,.11-.15,.17-.26,.17Zm-6.93-3.03s-.08,0-.11-.02l-2.08-.9c-.14-.06-.21-.23-.15-.37,.06-.14,.23-.21,.37-.15l2.08,.9c.14,.06,.21,.23,.15,.37-.05,.11-.15,.17-.26,.17Zm-13.82-.34s-.09,0-.13-.03c-.14-.07-.2-.24-.13-.38,.35-.69,.7-1.37,1.06-2.02,.08-.14,.25-.19,.39-.11,.14,.08,.19,.25,.11,.39-.36,.64-.71,1.31-1.05,2-.05,.1-.15,.16-.25,.16Zm6.88-2.66s-.08,0-.11-.02l-2.08-.89c-.14-.06-.21-.23-.15-.37,.06-.14,.23-.21,.37-.15l2.08,.89c.14,.06,.21,.23,.15,.37-.05,.11-.15,.17-.26,.17Z"/><path class="au" d="M383.94,455.11l-7.12-3.15c-.93-.41-1.41-1.45-1.11-2.42l2.2-7.21c.35-1.15,1.63-1.73,2.74-1.24l8.55,3.78c1.08,.48,1.52,1.78,.95,2.81l-3.64,6.58c-.5,.91-1.62,1.28-2.57,.86Z"/><path class="aw" d="M383.62,453.46l-5.42-2.39c-.71-.31-1.07-1.11-.85-1.85l1.68-5.49c.27-.87,1.24-1.32,2.08-.95l6.51,2.88c.82,.36,1.16,1.35,.73,2.14l-2.77,5.01c-.38,.69-1.23,.98-1.96,.65Z"/></g><path class="bp" d="M505.6,288.17l30.71-23.97c.19-.15,.33-.35,.4-.58l3.25-10.6c.09-.29,.28-.53,.54-.68l2.11-1.2c.21-.12,.45-.17,.69-.15l6.55,.64c.53,.05,.96,.45,1.04,.98l.5,3.07c.05,.3-.02,.6-.19,.85l-.88,1.27c-.25,.37-.28,.84-.06,1.23h0c.24,.43,.18,.97-.15,1.34-1.08,1.21-3.82,3.88-8.19,5.76-.15,.06-.29,.16-.4,.28l-27.61,30c-.45,.48-1.2,.51-1.68,.05l-6.72-6.53c-.51-.49-.46-1.33,.1-1.76Z"/><path class="dc" d="M460.5,324.82l43.7-36.62c.86-.72,2.12-.71,2.95,.04,1.84,1.64,4.92,4.59,6.34,7.23,.53,.98,.34,2.2-.47,2.98l-45.21,43.29-7.32-16.91Z"/><path class="dc" d="M467.82,324.1s7.59,7.75,6.29,21.13c-.38,3.94-1.92,7.67-4.35,10.8l-38.33,49.46c-.88,1.14-2.18,1.88-3.62,2.06-5.64,.69-20.63,2.04-31.24-1.47-.84-.28-1.21-1.27-.77-2.05l34.85-61.31,21.11-24.56s10.06-3.46,16.07,5.94Z"/><path class="df" d="M419.94,388.77c-.16,0-.31-.05-.45-.15-.34-.25-.4-.72-.16-1.06,.33-.45,33.36-44.93,35.6-50.35,2.04-4.96-2.76-8.77-2.97-8.93-.33-.26-.39-.73-.13-1.06,.26-.33,.73-.39,1.06-.14,.06,.05,5.93,4.68,3.44,10.71-2.3,5.59-34.41,48.84-35.78,50.67-.15,.2-.38,.31-.61,.31Z"/><path class="bo" d="M418.78,389.22l-16.13,20.02s-2.37,12.95-4.42,14.7c-2.06,1.76-7.92,2.92-9.45,0-1.35-2.58-1.9-5.31-2.02-5.92l5.24,2.22s-.12-.78-.27-1.76c0-.01,0-.03,0-.04-.03-.12-.05-.27-.09-.42-.17-.83-.36-2.06-.42-3.39-.12-2.44,.21-5.23,1.98-6.61,3.53-2.75,4.44-3.19,4.44-3.19l9.34-20.2s6.46,4.04,11.81,4.59Z"/><path class="cn" d="M347.32,382.63c-.89,.17-1.37,1.15-.97,1.97,1.86,3.75,7.33,12.01,18.61,9.41,14.44-3.34,58.51-36.64,68.48-45.74,9.98-9.1,23.19-20.44,29.65-18.86,6.46,1.58,2.57-2.16-1.91-5.17-3.47-2.33-5.25-5.51-4.32-6.43,.08-.08,.11-.19,.07-.3-.04-.11-.13-.18-.24-.2-2.97-.39-9.67-.45-18.64,4.49-12,6.61-70.59,29.22-90.2,22.67-.73-.24-1.49,.22-1.63,.98-.78,4.47-1.96,18.46,9.5,34.19,0,0-4.47,2.24-8.41,2.98Z"/><path class="bq" d="M357.83,379.25l-.36-.66c.15-.08,14.87-8.09,18-10.69l.48,.58c-3.19,2.64-17.51,10.44-18.12,10.77Z"/><g><path class="cc" d="M469.66,301.04l-11.45,16.17c-.74,1.05-.64,2.48,.24,3.42,1.54,1.65,4.15,3.97,6.95,4.5,.87,.16,1.76-.2,2.24-.94l6.09-9.35s1.17-14.69-4.07-13.79Z"/><path class="br" d="M472.9,287.52c.23,.22,9.77,18.96,9.77,18.96l-10.81,5.22-11.68-16.42s8.85-11.41,12.72-7.76Z"/><path d="M464.96,295.74c-.19,.5-.15,1.06,.13,1.52l5.39,8.99c.08,.14,.18,.26,.3,.37,.64,.6,2.84,2.34,4.54-.03,1.45-2.02,2.81-3.85,4.26-4.61,.85-.44,1.9-.09,2.33,.77,.89,1.76,2.61,5.35,3.69,8.76,.27,.85-.17,1.77-1,2.11-2.19,.89-6.52,2.49-10.36,3.02-.63,.09-1.26-.18-1.63-.69-1.65-2.26-6.31-8.59-7.9-10.17-1.48-1.47-4.2-.92-5.43-.56-.47,.13-.96,.07-1.38-.18-1.25-.75-3.42-2.62-1.43-5.78,.49-.79,.24-1.83-.53-2.35-1.39-.92-2.9-2.63-1.46-5.41,1.46-2.82,4.06-3.07,5.83-2.85,.78,.1,1.58-.32,1.88-1.05,.13-.32,.4-.6,.89-.7,.93-.19,1.54-1.04,1.36-1.97-.31-1.59-.08-3.66,2.47-5.06,4.67-2.57,8.75,1.61,9.79,5.14,1.04,3.53-4.18,6.02-7.46,6.44-2.41,.31-3.73,2.94-4.26,4.31Z"/><path class="bt" d="M466.73,309.06s-2.07-6.07-4.73-5.85c-2.66,.22-4.75,2.87-1.45,5.84,4.09,3.7,6.19,0,6.19,0Z"/></g><path class="ci" d="M544,260.26s-.09-.01-.13-.03c-.13-.07-.18-.24-.11-.37,.06-.12,1.62-2.89,3.56-2.29,1.52,.47,1.95,.29,1.96,.29,.12-.08,.28-.04,.36,.08,.08,.12,.04,.3-.09,.38-.12,.08-.65,.3-2.39-.24-1.53-.47-2.92,2.01-2.93,2.04-.05,.09-.14,.14-.24,.14Z"/><g><path class="cv" d="M87.53,521.02c-1.55,2.29-7.71,54.25-8.68,73.44-.07,1.3,.97,2.38,2.27,2.38h0c1.12,0,2.07-.82,2.25-1.92l11.27-72.24-7.11-1.65Z"/><path class="cv" d="M137.08,521.02c1.55,2.29,7.71,54.25,8.68,73.44,.07,1.3-.97,2.38-2.27,2.38h0c-1.12,0-2.07-.82-2.25-1.92l-11.27-72.24,7.11-1.65Z"/><path class="cv" d="M78.21,516.97v.57c-.04,4.08,3.47,7.42,7.87,7.49l52.11,.89c4.33,.07,7.95-3.06,8.16-7.07l.03-.52c.22-4.19-3.33-7.71-7.85-7.79l-52.13-.93c-4.46-.08-8.14,3.23-8.17,7.37Z"/></g><g><path class="bw" d="M179.58,592.57c-9.26,0-13.36-.79-15.19-1.52,.36,1.52,1.71,2.72,3.42,2.72h32.77c1.1,0,1.8-1.06,1.54-2.01-3.74,.3-11.67,.81-22.54,.81Z"/><path class="c`" d="M202.11,591.76c-.05-.19-.13-.38-.27-.56-2.5-3.19-7.51-8.19-14.33-8.1-9.99,.14-13.48,1.22-21.24,.06l-1.83,6.07c-.19,.62-.19,1.24-.06,1.81,1.83,.72,5.93,1.52,15.19,1.52,10.87,0,18.8-.51,22.54-.81Z"/></g><path class="cb" d="M168.52,576.63l-2.25,7.65s4.98,2.27,9.36,.45l.86-6.63-7.97-1.47Z"/><g><path class="bs" d="M236.44,587.76c-7.22,5.8-10.91,7.75-12.79,8.34,1.23,.96,3.03,1.04,4.37-.03l25.55-20.53c.86-.69,.74-1.95-.06-2.52-2.72,2.57-8.59,7.94-17.06,14.74Z"/><path class="bu" d="M253.5,573.01c-.16-.12-.34-.21-.56-.26-3.93-.91-10.96-1.65-16.22,2.7-7.7,6.37-9.74,9.39-16.52,13.35l2.36,5.86c.24,.6,.62,1.08,1.09,1.44,1.88-.59,5.57-2.54,12.79-8.34,8.47-6.81,14.34-12.17,17.06-14.74Z"/></g><path class="bv" d="M120.42,489.5s55.46,4.53,66.83,9.88c11.38,5.36-9.28,80.42-9.28,80.42,0,0-3.1,1.49-9.99-.65,0,0,7.07-55.39,1.81-67.4l-60.05-9.82,10.68-12.42Z"/><path class="by" d="M214.69,578.25c.51,.47,5.51,10.54,5.51,10.54,0,0,5.56-1.2,6.7-4.72l-5-9.09-7.2,3.27Z"/><path class="cl" d="M87.02,489.03s-1.81,4.35-1.73,10.13c.1,7.99,6.53,14.48,14.51,14.88l65.56,2.99c1.38,.06,2.56,1.02,2.9,2.36,1.54,5.96,9.07,24.26,45.88,60.77,.98,.97,2.51,1.14,3.67,.4l5.24-3.31c.55-.35,.73-1.07,.4-1.63l-38.17-65.18c-2-3.31-5.23-5.7-8.98-6.66l-55.88-14.28-33.4-.46Z"/><path class="cg" d="M163.07,388.67s-18.47,10.95-25.63,16.97l14.8,8.26s8-9.24,15.62-13.09l-4.79-12.14Z"/><path class="dc" d="M85.83,489.5s17.7,4.31,34.59,0c0,0,23.64-31.78,32.78-40.43,0,0,14.59,23.02,47.06,26.28l1.81-4.05s-25.85-11.92-33.81-30.22c-7.96-18.31-11.15-26.12-18.39-30.9-4.51-2.97-7.21-5.01-8.6-6.12-.76-.61-1.82-.68-2.65-.17-7.68,4.68-43.84,29.44-52.79,85.6Z"/><path class="db" d="M152.24,448.24c-.23,0-.45-.1-.6-.3-5.6-7.31-8.82-15.61-8.85-15.69-.15-.39,.05-.83,.43-.98,.39-.15,.83,.05,.98,.43,.03,.08,3.18,8.19,8.64,15.32,.25,.33,.19,.81-.14,1.06-.14,.11-.3,.16-.46,.16Z"/><path class="ch" d="M198.31,469.19l3.65-.97,11.1-2.57c1.34-.31,2.74-.07,3.9,.66l9.54,6-26.35-.04-1.84-3.07Z"/><g><path class="cj" d="M181.1,380.64c.05,.36-4.73,23.79-4.73,23.79l-13.32-3.01,1.23-22.88s15.95-3.89,16.82,2.11Z"/><path d="M167.28,383.63l-1.59,11.99c-.02,.15-.02,.31,0,.46,.13,.94,.83,4.14,4.06,3.23,2.93-.83,5.62-1.54,7.48-.98,.83,.25,1.34,1.1,1.16,1.95-.43,2.13-1.5,6.91-3.07,10.92-.32,.81-1.21,1.24-2.05,1-2.53-.74-7.81-2.44-11.74-4.8-.53-.32-.85-.9-.82-1.52,.13-3.03,.48-12.23,.18-14.81-.28-2.42-3.25-3.87-4.54-4.39-.42-.17-.76-.5-.92-.93-.6-1.5-1.42-4.97,2.95-6.39,.91-.3,1.4-1.28,1.07-2.19-.65-1.8-.92-4.55,2.46-6.07,3.44-1.54,6,.29,7.39,1.78,.56,.6,1.46,.69,2.15,.25,.4-.25,.91-.33,1.52,.05,.83,.52,1.93,.16,2.36-.71,.82-1.69,2.5-3.5,5.86-2.92,5.97,1.02,6.65,7.64,5.07,11.51-1.57,3.88-7.98,2.4-11.2,.45-2.44-1.49-5.62,.07-6.99,.9-.44,.26-.73,.71-.79,1.22Z"/><path class="bx" d="M160.36,395.44s2.45-6.87-.07-8.55c-2.52-1.68-6.26-.81-5.43,4.17,1.02,6.19,5.5,4.39,5.5,4.39Z"/></g><g><path class="ca" d="M188.13,477.48s.09,0,.13,0l56.29-.06c1.39,0,2.52-1.13,2.52-2.52,0-1.39-1.13-2.54-2.52-2.51l-56.29,.06c-1.39,0-2.52,1.13-2.52,2.52,0,1.35,1.06,2.44,2.39,2.51Z"/><path class="ce" d="M266.35,422.35s-.04,.08-.06,.12l-23.68,51.06c-.59,1.26-.04,2.76,1.22,3.34,1.26,.58,2.78,.04,3.34-1.23l23.68-51.06c.59-1.26,.04-2.76-1.22-3.34-1.22-.57-2.66-.07-3.28,1.11Z"/></g><path class="cv" d="M213.19,480.3c-.25,1.02-23.73,89.11-29.69,111.44-.69,2.57,1.23,5.1,3.86,5.1h0c1.84,0,3.44-1.27,3.88-3.07l26.07-105.71-4.13-7.76Z"/><path class="cv" d="M226.05,480.3c.25,1.02,23.73,89.11,29.69,111.44,.69,2.57-1.23,5.1-3.86,5.1h0c-1.84,0-3.44-1.27-3.88-3.07l-26.07-105.71,4.13-7.76Z"/><path class="cv" d="M227.03,477.42h-14.63v11.75c0,1.69,1.35,3.06,3.02,3.06h2.01v26.39c0,1.28,1.02,2.31,2.29,2.31h0c1.26,0,2.29-1.04,2.29-2.31v-26.39h1.02c2.21,0,4.01-1.82,4.01-4.06v-10.75Z"/><path class="cf" d="M176.44,474.6h81.68c1.14,0,2.14,.78,2.42,1.9l1.14,4.47c.41,1.61-.8,3.18-2.44,3.17l-83.81-.49c-1.62,0-2.81-1.56-2.41-3.15l.99-3.98c.28-1.13,1.28-1.91,2.43-1.91Z"/><path class="d`" d="M134.61,264.11s.08-.44,.26-1.23c.08-.35,.42-.57,.77-.49,.22,.05,.39,.21,.46,.4,.34-.25,.75-.53,1.21-.84,.29-.2,.7-.12,.89,.18,.2,.3,.12,.7-.18,.9-1.09,.73-1.85,1.31-2.21,1.59-.1,.08-.17,.13-.21,.16l-1.3,.92,.29-1.57Zm1.27-5.37c.36-1.35,.76-2.72,1.18-4.08,.1-.34,.47-.53,.81-.43,.34,.1,.53,.47,.43,.81-.42,1.35-.81,2.7-1.17,4.04-.09,.34-.45,.55-.79,.46-.06-.02-.12-.04-.17-.07-.24-.14-.37-.44-.29-.72Zm4.84,1.85c-.17-.31-.06-.71,.26-.88,1.28-.7,2.58-1.33,3.86-1.86,.33-.14,.71,.02,.84,.35,.14,.33-.02,.71-.35,.84-1.24,.52-2.5,1.13-3.74,1.81-.21,.11-.45,.1-.64-.01-.09-.06-.18-.14-.23-.24Zm7.73-3.37c-.1-.34,.1-.7,.45-.79,1.43-.4,2.86-.68,4.23-.85,.35-.04,.67,.21,.72,.57,.04,.35-.21,.67-.56,.72-1.31,.15-2.67,.43-4.04,.81-.18,.05-.36,.02-.51-.07-.14-.08-.24-.21-.29-.38Zm-10.06-6.6c.47-1.34,.96-2.68,1.47-3.98,.13-.33,.5-.5,.84-.37,.33,.13,.5,.5,.37,.83-.5,1.29-.99,2.62-1.45,3.94-.12,.34-.48,.51-.82,.4-.04-.02-.08-.03-.12-.06-.26-.15-.38-.47-.27-.76Zm18.39,5.45c.03-.36,.34-.62,.69-.6,1.04,.08,2.07,.23,3.07,.46,.4,.09,.79,.18,1.16,.25,.35,.07,.58,.41,.51,.76-.07,.35-.41,.58-.76,.51-.39-.08-.8-.16-1.21-.26-.93-.22-1.89-.36-2.87-.43-.1,0-.2-.04-.29-.09-.2-.12-.33-.35-.31-.6Zm14.9,7.3c.12-.26,.39-.4,.66-.37,.6-.47,1.35-.81,2.3-1.05,.35-.09,.7,.12,.78,.47,.09,.35-.12,.7-.47,.78-1.2,.3-1.95,.75-2.48,1.51l-1.11-.64,.32-.7Zm-6.57-6.08c0-.36,.31-.64,.66-.63,1.46,.04,2.81-.09,4.01-.38,.35-.08,.7,.13,.78,.48,.08,.35-.13,.69-.48,.78-1.32,.32-2.78,.46-4.35,.41-.12,0-.22-.04-.32-.09-.19-.12-.32-.33-.31-.57Zm-23.63-14.57c.57-1.31,1.17-2.6,1.78-3.86,.16-.32,.54-.45,.86-.3,.32,.16,.45,.54,.3,.86-.6,1.24-1.19,2.52-1.76,3.81-.14,.33-.52,.48-.85,.33-.03-.01-.05-.02-.08-.04-.27-.16-.39-.51-.26-.81Zm31.93,16.8c.66-1.49,1.21-2.8,1.65-3.88,.13-.33,.51-.49,.84-.35,.33,.14,.49,.51,.35,.84-.44,1.09-1,2.4-1.67,3.91-.14,.33-.52,.47-.85,.33-.03-.01-.05-.02-.07-.04-.27-.16-.39-.51-.26-.81Zm4.91,2.53c-.04-.35,.21-.67,.56-.72,1.23-.15,2.58-.32,4.12-.63,.35-.07,.69,.16,.76,.5,.07,.35-.16,.69-.5,.76-1.58,.32-2.96,.5-4.22,.65-.15,.02-.29-.02-.41-.09-.16-.1-.28-.27-.31-.48Zm-5.09-6.48c-.21-.29-.15-.69,.14-.9,1.12-.81,1.81-1.71,2.26-2.29,.18-.24,.33-.43,.46-.56,.06-.06,.12-.11,.17-.15,.27-.23,.65-.16,.88,.11,.23,.27,.16,.71-.12,.94-.1,.1-.22,.26-.36,.45-.47,.61-1.25,1.63-2.52,2.55-.22,.16-.5,.16-.71,.03-.07-.04-.14-.1-.19-.17Zm-28.03-20.49c.61-1.12,1.24-2.22,1.87-3.27l.25-.41c.19-.3,.58-.4,.88-.22h0c.3,.19,.4,.58,.22,.89l-.25,.41c-.63,1.04-1.25,2.12-1.85,3.22-.17,.31-.56,.43-.87,.26h-.02c-.29-.19-.4-.57-.23-.88Zm41.39,25.39c-.11-.34,.08-.7,.42-.81,1.28-.41,2.59-.91,3.88-1.47,.33-.14,.71,0,.85,.33,.14,.33,0,.71-.33,.85-1.33,.58-2.68,1.09-4,1.52-.18,.06-.38,.03-.53-.06-.13-.08-.23-.2-.28-.36Zm7.77-3.25c-.17-.31-.06-.7,.25-.88,.26-.14,.52-.29,.79-.44,.94-.54,1.86-1.13,2.72-1.76,.29-.21,.69-.15,.9,.14,.21,.29,.15,.69-.14,.9-.9,.66-1.85,1.27-2.84,1.84-.27,.15-.54,.3-.8,.45-.21,.11-.45,.1-.64-.01-.09-.06-.18-.14-.23-.24Zm-44.56-28.5c-.29-.2-.37-.6-.16-.9,.82-1.19,1.67-2.34,2.52-3.43,.22-.28,.63-.34,.91-.11,.28,.22,.33,.63,.11,.9-.84,1.07-1.67,2.2-2.48,3.37-.19,.28-.57,.36-.86,.19l-.03-.02Zm51.44,23.67c-.25-.25-.25-.66,0-.91,.97-.96,1.87-2.01,2.69-3.12,.21-.29,.61-.34,.9-.14,.29,.21,.35,.62,.14,.9-.86,1.16-1.8,2.26-2.82,3.27-.21,.21-.54,.24-.79,.1-.04-.03-.09-.06-.12-.1Zm-46.29-30.34c-.26-.24-.28-.65-.05-.91,.97-1.07,1.97-2.1,2.98-3.05,.26-.25,.67-.23,.91,.03,.25,.26,.23,.67-.03,.91-.99,.94-1.97,1.94-2.91,2.98-.21,.23-.55,.28-.81,.12-.04-.02-.07-.05-.1-.07Zm51.18,22.83c.64-1.2,1.21-2.47,1.69-3.77,.12-.33,.49-.51,.83-.38,.33,.12,.51,.49,.38,.83-.5,1.35-1.09,2.68-1.76,3.93-.17,.31-.56,.43-.87,.26l-.03-.02c-.29-.18-.4-.55-.24-.86Zm-45.12-28.68c-.22-.28-.17-.68,.1-.91,1.13-.89,2.29-1.74,3.47-2.5,.3-.19,.7-.11,.89,.19,.19,.3,.11,.7-.19,.89-1.14,.74-2.28,1.56-3.37,2.43-.22,.17-.51,.18-.73,.05-.06-.04-.12-.09-.17-.15Zm47.96,20.95c.45-2.09,.51-3.53,.49-3.85l-.39-1.84c-.07-.35,.15-.69,.5-.76,.35-.07,.69,.15,.76,.5l.38,1.78h0c.2,.92-.27,3.52-.47,4.45-.08,.35-.42,.57-.77,.49-.07-.02-.14-.04-.2-.08-.23-.14-.36-.41-.3-.69Zm-40.96-25.64c-.16-.32-.04-.71,.28-.87,1.28-.65,2.59-1.24,3.91-1.75,.33-.13,.7,.04,.83,.37,.13,.33-.04,.7-.37,.83-1.28,.49-2.55,1.06-3.79,1.69-.21,.11-.44,.09-.63-.02-.1-.06-.18-.15-.24-.26Zm7.81-3.13c-.09-.34,.12-.7,.46-.79,1.37-.36,2.78-.64,4.2-.85,.35-.05,.68,.19,.73,.54,.05,.35-.19,.68-.54,.73-1.37,.2-2.74,.48-4.06,.82-.18,.05-.35,.01-.5-.07-.14-.08-.25-.22-.29-.39Zm32.38,18.95l-.88-4.13c-.07-.35,.15-.69,.5-.76,.35-.08,.69,.15,.76,.5l.88,4.13c.07,.35-.15,.69-.5,.76-.17,.04-.33,0-.47-.08-.15-.09-.26-.24-.3-.42Zm-24.07-20.32c-.01-.36,.26-.66,.62-.67,1.39-.06,2.83-.05,4.28,.03,.36,.02,.63,.32,.61,.68-.02,.36-.32,.63-.68,.61-1.4-.08-2.8-.09-4.15-.03-.13,0-.25-.03-.36-.09-.18-.11-.3-.3-.31-.53Zm22.31,12.06l-.88-4.13c-.07-.35,.15-.69,.5-.76,.35-.07,.69,.15,.76,.5l.88,4.13c.07,.35-.15,.69-.5,.76-.17,.04-.33,0-.47-.08-.15-.09-.26-.24-.3-.42Zm-13.9-11.73c.05-.35,.38-.6,.73-.55,1.37,.2,2.78,.46,4.19,.78,.35,.08,.57,.42,.49,.77-.08,.35-.42,.57-.77,.49-1.38-.31-2.76-.57-4.09-.76-.09-.01-.17-.04-.24-.09-.22-.13-.34-.38-.31-.65Zm8.24,1.75c.1-.34,.46-.53,.8-.43,1.29,.39,2.62,.83,3.94,1.32l.33,.12,.1,.45c.07,.35-.15,.69-.5,.76-.24,.05-.48-.04-.63-.22-1.21-.44-2.43-.84-3.61-1.2-.05-.02-.1-.04-.15-.07-.25-.15-.37-.45-.28-.74Z"/><path class="cq" d="M207.15,224.21s-2.35,18.55-16.15,18.29c-13.8-.26-27.67-3.94-32.37,.54,0,0,11.4-34.74,46.45-25.1l2.07,6.26Z"/><path class="cn" d="M245.89,231.28s4.22,17.87-.44,22c-4.43,3.93-44.55,14.77-48.46,15.82-.18,.05-.35-.05-.41-.22h0c-.5-1.42-.3-2.99,.55-4.23,4.1-6,16.48-23.81,21.95-27.99,6.61-5.05,26.81-5.38,26.81-5.38Z"/><path class="co" d="M210.55,262.86c.1,.06,.22,.08,.33,.04,.22-.06,22.09-6.38,31.4-9.47,1.66-.55,2.84-2.02,3-3.76,.32-3.34,.58-8.37-.02-13.33-.03-.23-.24-.4-.47-.37-.23,.03-.4,.24-.37,.47,.62,5.15,.27,10.45,.01,13.15-.14,1.4-1.09,2.59-2.43,3.04-9.29,3.08-31.15,9.4-31.37,9.46-.22,.06-.35,.3-.29,.52,.03,.11,.1,.19,.19,.24Z"/><path class="cn" d="M231.63,191.08s-7.98-16.53-14.2-16.81c-5.91-.26-43.91,16.59-47.6,18.23-.17,.07-.24,.26-.18,.43h0c.5,1.42,1.65,2.51,3.09,2.94,6.96,2.08,27.8,8.11,34.68,7.91,8.31-.24,24.21-12.71,24.21-12.71Z"/><path class="co" d="M184.48,189.31c.11,.07,.25,.08,.38,.03,.21-.09,21.16-8.95,30.32-12.41,1.32-.5,2.81-.17,3.8,.83,1.9,1.93,5.51,5.83,8.27,10.22,.12,.2,.38,.26,.58,.13,.2-.12,.26-.38,.13-.58-2.81-4.46-6.46-8.41-8.39-10.37-1.22-1.24-3.07-1.64-4.7-1.03-9.17,3.47-30.14,12.34-30.35,12.42-.21,.09-.31,.34-.22,.55,.04,.09,.1,.15,.17,.2Z"/><path class="db" d="M303.92,210.45c-7.07,5.44-15.68,10.52-25.97,14.21-31.97,11.44-57.45,14.32-64.71,14.94-1.31,.11-2.57-.51-3.3-1.61-5.75-8.66-9.19-18.15-10.34-28.46-.22-1.94,.68-3.84,2.31-4.92,7.05-4.7,28.15-17.81,58.81-28.58,10.24-3.6,20.05-5.08,28.92-5.32,10.06,14.29,13.1,30.48,14.3,39.75Z"/><path class="cs" d="M289.63,170.7c19.59-.54,34.6,4.96,39.52,7.04,.96,.41,1.37,1.55,.87,2.47-2.51,4.7-10.65,18.35-26.1,30.24-1.2-9.27-4.24-25.46-14.3-39.75Z"/><g><path class="cd" d="M265.73,183.51c-8.29,2.94-12.45,12.53-9.3,21.43,3.15,8.9,12.43,13.73,20.72,10.79,8.29-2.94,12.45-12.53,9.3-21.43-3.15-8.9-12.43-13.73-20.72-10.79Z"/><path class="ct" d="M267.15,186.19c-6.61,2.34-9.92,9.99-7.41,17.08,2.51,7.09,9.91,10.94,16.51,8.6,6.61-2.34,9.92-9.99,7.41-17.08-2.51-7.09-9.91-10.94-16.51-8.6Z"/><path class="co" d="M277.11,207.23c.14,.09,.33,.08,.47-.02,3.62-2.68,5.05-7.65,3.48-12.08-.4-1.12-.96-2.15-1.67-3.07-.14-.18-.41-.22-.59-.08-.18,.14-.22,.41-.08,.59,.66,.85,1.18,1.81,1.54,2.84,1.45,4.08,.13,8.65-3.19,11.12-.19,.14-.23,.4-.09,.59,.03,.05,.08,.08,.12,.11Z"/></g><g><path class="ck" d="M237.5,199.68c-5.48,1.94-8.23,8.28-6.14,14.16,2.08,5.88,8.21,9.07,13.69,7.13,5.48-1.94,8.23-8.28,6.14-14.16-2.08-5.88-8.21-9.07-13.69-7.13Z"/><path class="ct" d="M238.44,201.44c-4.36,1.55-6.56,6.6-4.89,11.28,1.66,4.68,6.54,7.23,10.91,5.68,4.36-1.55,6.56-6.6,4.89-11.28-1.66-4.68-6.54-7.23-10.91-5.68Z"/><path class="co" d="M244.95,215.46c.14,.09,.33,.08,.47-.02,2.44-1.81,3.41-5.16,2.35-8.14-.27-.75-.65-1.45-1.13-2.07-.14-.18-.41-.22-.59-.08-.18,.14-.22,.41-.08,.59,.43,.55,.76,1.17,1,1.84,.94,2.64,.09,5.59-2.06,7.18-.19,.14-.23,.4-.09,.59,.03,.05,.08,.08,.12,.11Z"/></g></g></g></svg>